<mxfile host="app.diagrams.net" agent="Mozilla/5.0 (Windows NT 10.0; Win64; x64; rv:133.0) Gecko/20100101 Firefox/133.0" version="25.0.1">
  <diagram name="Page-1" id="pvBxkb_t-72lH08HK6yU">
    <mxGraphModel dx="3033" dy="2294" grid="1" gridSize="10" guides="1" tooltips="1" connect="1" arrows="1" fold="1" page="1" pageScale="1" pageWidth="850" pageHeight="1100" math="0" shadow="0">
      <root>
        <mxCell id="0" />
        <mxCell id="1" parent="0" />
        <mxCell id="iovOzbsHrw43gdFjkHrP-4" value="" style="shape=image;verticalLabelPosition=bottom;labelBackgroundColor=default;verticalAlign=top;aspect=fixed;imageAspect=0;image=data:image/png,iVBORw0KGgoAAAANSUhEUgAAARkAAABhCAYAAADiFtUPAAAXFklEQVR4Xu1dfZAWxZ3+LQRzXGmiKSsfrIig8uEhVZiIErZWcfNB2AULLbdyuYLKwuJSgQVrSbl7J1wCWXEjKCmii7vvLvGDE5YPy4SrBPlYd2MK8yGLtxYVU+KC8fbqvFCFORIRDJLunrfn7ZnpmZ6emXfemff97T/ibnfPr59++plf90w/U3aJ/AwPD0N5eTmUwk+a+5rm2NPGLcQ62IjJcCtDkQkGZiFqIfHjQx2xDoY1igzBLc3kSXPswShbuFqIdTDsIxGZCyfaoWrxB7C9bzWMG1HmK5Kwdb4wtBUqv9gEv/n/88b1Rn0Zmvd0Q9v8yb6uLxaKizxin6OKP0jsQbDXBrUIKwTBupAw0HGOao6E6UfBRWZb12hYXH9OKlD2yWCfpKKwXTixHzYu+zYc/UYvvLD6Ji1M4iJPPuKXxS67jogzFTjdm4IWoEVaOAk80YHWOX/UcyQfN6CCi4xX9qMjMhT8oAAlhTxB4leJDM8svQROh7ilXLYQPPG7MpCNi4xPKo6p/h5k/LVEhgVQNwA3jPwpPN1/GsbMWgI9/RmYcTJ3Z7z64ANQVdthLGPoEmZvH3zz1HxYNLgMBjN3sxh3L78efnX9Chh48SKId9gzT86F6Sv3s3or21rgsz9fCmsOvwdjKjbCkf7VIN6BpXfjSwdh0TU9cP8fM1Ax0t+yjcbjZ6KK4ItxNrZlYEvTTUzgGuq/Z+LS2tUB//KJDobXlClvQ2b7BDh47BZYt9TI2qKK3xH7pbfh4a/OMnHr6yaZ4pJjuTEjWLLfZbNHGoc97rrJI4NwqejruIkMzaIb6heysefL9vU39TrG/j8avm/hB8X5ry+tss4XsuS/Ysud1vFzGStz7hGO1UwdgpanXjbnXNu8UfKbrjBHph+yzVXbtfmcC8sPbZGpnDEADUc6gAL0+o+/wcTjteZhafrNJyYVkoW3H4NNfyKTf8QhJgSLeqezCZcTmWmwduwuJhBUtOh1Wl81yvBsR3k3ZhNsMYx5opfF5/dHT2SccW76vxbon7PEvK6l3zN2wKLtXfCdmsmWQZeLjH78qtj5deTLpQWw/Ws5vPJxF/M7BmkoJxWZrKi/N7c3e7PZD/WVrTCz4z54ZuFuY+yrR1l46YazyBvxJmAsbelYzYKzK/vYvqM49yq/9Dzc+WwX+z0VrTkPj/W4kck5Jrv2uLIhX3Grxk5bZKz7IMaGr53ADfU7iWK/wq7Ns5DfNt4AR+e8CWsv+y7M3HOXKUy5ugaIWz+8Ee6950FYPm8uXFdGMgFhQ1ktMnFkMvI4LRtstOMkG2vfWwvPb/xIQyT14w8jMkz8b12d2zzPxr1t8JdaIq0iWbH8XYW1uLTx3OQXcKbZrn2+2DNN+xyj15GKgvB7P9kyvZmrri3jtS4/IhYZcpe/Zj3c3um8c9NlFBWXtZdtgb80HjCWEjaBMsDbD5sfexRanhlvWV6IwLoBGPRO7Ic8sk00Mc41M7OZmrBMi2NPSRW7VyZjyTA1lpfFIhq6/VBh7SkyJDNnmbyIM126lK9zzBdZ1ml/QBJUZHKclM9V+7XpisIRtyZw2iLjvVwylhKzD2eXU08sh+qe8Ww/ZVzZIaib/S04cLHZsr9iWS4RgZrd2w91k06xNO0zq+7xnQnwp0tnV70LdD2q8yNPg42sgvfl+C9WwrJHriVZiTE4YpxjnsjA/6yohFzK7MzwVCIZNH4V8dXLpVmOuHVeRdDBOe1ldZdLZhbLlh0ynOXzRZbJeC2X/Gb7Fo7V9Fn4/Xp2rorXNpZL4fmhLTJVdTvIJuKbxgaWZEP2TPsKWPZQN0vBKyoqYAjuNkSGZCl0w3fHhH3sEbNMicW6CzYdhxeahkknF8KaI9XwytkuywZzVO+ZuG380t/TdS/fiF767X+C3785kS19HHGy/uQ2/+iGuLnx67Hci+IdBjeB5LjlNpunkeXoIoaldQP6JXPTksets5+VduHQiV9749cy9k5+sH1NMrmd88VtrIRNesnck93IvDimurYx58LzQ19kNF+6MweRpIZ1s3fBksOdWk9+dEgQtGxcjyaDxudVL82x5wOPfLaJWAdDNxaRoTvel8/ZAiw70XxRLli39GqlmTxpjl1vlApfGrEONgZaIhPsEsmvlWbypDn25DPDGiFiHWzEUGQIbmkmT5pjD0bZwtVCrINhjyKDIhOMOSVYC0Um2KBLRebMmTOXaHNXXXUVkH+XzH+DQYi1EAFEwAuBK6+80vFnZlr1/vvvw/mLI0oCvU+O/BhkQKSh83Sc0hp7GvAVY0Ss9UfMDTNTZGgm87+n/6zfcspqfP7qTwPR1ZRFbYSLxI9v2BBrfayVIoOZjD6ocddA4seHOGKtj7VSZPxkMhdOnYDhjyfA+AnpXVr5zWQunHgLTl2aABNv9H/CW39Y9Gog8fXwClM6LNZJ408c8ShFRpXJ7GueB0ufPQ+3/MMxuGLB09DzeHWYMSxYXT97MruXV0Ft5kO4bfRR+FRtDxzIeuMULOjshVXEdxwazVoTyBwEgx4w5Rh4HQgNY75UaIz59VVY03KMJ+29rIr48qkbf9zK82uKR3FkOFDM6+8YsHgoqdo043Ths6zNoGOgFBmvTObCyQzc13gO2n/WCOUjTsKPFiyHz2/8T/jmDcm5y/sFRpXJWCaPzWPD7zXyVU5FfPvEp6T9wYXHTQMxMa6oRIYfevWyVs0XHvlsV4U1fbN95u5rYV9nEzkQbBwupAd210/J5CxLBP7UvtMkLc8P+NLxoGePxvz7gPNNecGcDEYvZmf76AlvtxjEQ8OufJ5EDyYbhmdim2EwVYqMVybzQW8z1OyrhN7NRvayr3kavHHXAPzb1z8RJqaC1FVlMmzgiE2F6OxHvXF0T3vno3Mq4tsd/ap3VZkHVu3xRCUyMpOxUslkREzpAdv1Fx6D56Z2+OIPL8+O3mQN2N4h2xCnJz3pfhxH4QZpaTMbnJLPAR0mZfxWioxXJnM8cw88fmEDdC83vg5g//98TKh8tanKZOwDJRu4fMWmatevyDz1r3+Eqff+1bzjcWc1mSUq9+uR2S6KJ9O59SiP0X6y3pLJMKuPH8DnmjqZg5vMrpS7LfKT7/b2VVjk++8qrC3Xz2YaNJOh9rNUbPi5PSl/hPL05kWFYAG5sT067SlLXUcfvQTB1iavq+RznCLjlckUk8ioMhnloOSb3R7tq4jPU+7/vvlWuOaN38Gd28+yDIz9nhsS2SxRDe8SmS2nxHpUMGJyE5ltXVNhw/0boJJ40DIbCZtNqsVIyWbBGtYwKcqhUWFtz2J41kg9oVUiQzlmZplMkA3HgsvbrXV1RMbSpvCpIiWf4xQZzGSMIVUOSpRM1mxLRXwmJsQDtuHX/UD3ACa2jrX4+7hZosptOX/CzLlEi1TxSZtMZBYSj+NRNx+HP09+2lxucuEzv5lF+0zsSrcNerevCU3kxVVYi5lC4+4q03ZVxR/6d7fyYl26n1bbPgQ317+Y21NzEQR7m2LdZ23ZkSOzilNkcE/GoI1yDRs5nf03qCK+c5NvlvltKt4vmSWqafwuseUULVL5hiONWCoyxEC+9dUH4TfLK9kmqCOL0mjfPyr5KanCmt+Q7PteXvxxZBvihq7QDVebFIkguGUwvDkln+MUGXy6ZAxLMT1dEjObuknkqw4SS1Ru9Wi3E5Vbj+a+DOG1J8OcDM3lmYcdpcPaVO/LE/mRF6NVlchYlqBuXs/C0yXqc63y0FXu/9kEwS0GERcln+MUGXxPJjc0RfOeTHb5x7+DJbNENTZ+5baLomWj/e7qufFL9gTEO2yQ9vMpIH7aVokMX5KIbXGMZPzxKi8uvcT9HEecNkHw0yZtw5PPcYoMvvFrHdI43pD0Q3axjIr4nu0l2BJVF4c4yofCmmXEyXpjPI54lI+wVZlMHAMbxzVUT5fiiCHoNYISP+mWqEHxyGe9oFjnM6akt60UGT+ZTNI76Sc+1XsyftooVBkkfnzII9b6WCtFBjMZfVDjroHEjw9xxFofa6XIYCajD2rcNZD48SGOWOtj7Soy3H6TNlkqFpz68GENRAAR8IOAp/1mqdg6pvkOlebY/RA0SWUQa/3RUC6XUGT0QY27BhI/PsQRa32sUWSymKWZPGmOXZ+yha2BWOvjjyKDIqPPmhKuEVZk4nj5TWd44ognEpGJ0qpPB6Aoy/olTxL7qoqdvmYuGmwxP5jmMaavDNBXyMvXwezefmbDYD8awA2o3PAudstNsd8qrGlZtN+0MiWcyLjY/0U5+eNqS0meBPdVFbvMbW3/+Y9hcabPFBV6SK/11emwbuk50LXOVJ1XimsM47iOCmu033SOQjiR4e1FeJgqDqLIrqEij1kngX1VxU6Jb3rIMDOk/4L5Cw7Cc3/bzJza7Mf+MZNxZ6EKa3tNtN90P7luftzN19OlBE48XbHyTZ4E9lUZuxDz9EMPMK/Z15qHoeaH5eyLC3wi7Ly7j5ldyzIZ6uzmZolZ7Jabusul3A3pbdNIHO03PT5TiyJjk6tUigwlu2GlOf1gDey87mfQVkOWSiSj+X5vzmaTepvIRaa0LTeDioxoa4H2mygySjOiNC+XaOyU8DvHbYYrtjQwsambRD99QYWnBV6u2su+2TPj5FYXkaFCNKtkLTeDiIyXnSYfD7vnb8nab2ImUwSZDOmC4Xx/Dsrfmkiyl9VAP09CJ0L7G2PJFzGr2bJJtYFbqpabuiIjs75E+03MZIo+kzEeU98Lr1c/ZxpQ2/1k3EWGLJc8LDGL3XJTR2TQfhOfLrnuBys3TxP8JM1X7LJP0yrejxG/mXSmfQUse6gb6NcFSs1yU0dk0H4zXyKj+ygngeV9TdQExk1DSnPsCYU0/M3IpYU43rDVwTSOeKJ5T0anVwktm+aJmubYE0qHvIlM2vobRbwoMlkU0zxR0xx7FCSOsw3EWh9tFBkUGX3WlHANFBn9wUeRQZHRZ00J10CR0R98V5ER7Tf1m8UaiAAigAjkEED7zZQ/ocG7a3zTGbHWxxqXS7hc0mdNCddAkdEffBQZFBl91pRwDRQZ/cFHkUGR0WdNCdcIKzJxvPymMzxxxBNaZNysBnU6moSyfsiT1L76iZ1izM4qzXsNtg3+kjniRfVjt9/UbTdN9p1+sEb7TSsDQomMm9Vg27xRujwreHkVeZLcV1XsHFxK/oMfXQ+nJz3AHPGi+olKZHRtP6OKX6cdFdZov+lEM5TI2JuzeMnqjFwCyqrIk+S++oqdHZBsgzv23wfdXxk07R6igD4qkeGG5WHbi6JPbm34wlqojPabUdlvUlCzp3zPrnoXijGTsZAuYX31Q3w6cZndZudU0yWPOeHVDUDN1CFoeeplgFFfhua9fWz8aPmG+u/B0/2noXxWBVwquxuO9K+GLwxtNX8/ZtYSaO3qAO6oR0XC/vee/gxUjDS8a4rBvtMP1iZXBJ6g/WZYPxmCqsyoJ593lKjb1iFP0vrqJ3bmjEdtN4mAiJ6+lV96Hu58tgva5k9mezZzHh4L2/sMJ7yzK4ngkN/nMoucVaf80ynWevQ6iwaXwWDnP8Kia3pM9z36ZYRNfzLEh/64+dFs65oKG+7fAJVEANkeEpu0ho2oeP3tfd72oFFyxQ/W/Hpov2kgEclyyW41GOWgxtWWX/Iksa/K2MXPuWQBHVOxEfq6R8Pi+nNEVAynPLevFIi/X3jrauYpY/6Q7Kd9by08v/Ej04DcuewpHvtOJdZZYNB+M0eR0CKTtLt6UFHyQ56k9lUVu7lUIhab7CebEXxm1T1MHLRE5vZjlixElom47a0Ug32nCmuKB9pvWmdhKJFxsxoMOtELWU9FniT3VRW7bEOe/u7BwbFw7g8THSJjXy7Zl1Hvze2FLU03STIfj+US/0LlJG5gbix5vJZLfI/HXF6NGGKfGLFfny2XPOxBo+SVCmu033SiHUpkvKwGoxzYONpSkSfJffWM3baPwbFkk+GLTfDutFa2oSsul8zJTf5Ol0bWjd+XyMbvQrYhrNz4JUsy3vbrTywvCvvOMDxh789kPoTbRh+FT9X2MPN2P7xSPrW1fabHT5uUB7J4zLkW4ad/QolMHJM/rmuoyBNXHEGuk+/Yj/9iJfzzC1WmAXmQGIulTlis43jDVgfrOOJBkcmOSFjy6Axs1GXzEbv41irPWKJ8SzhqDOJqLx9YxxV7oa6DIoMiUyjupfK6KDL6w4YigyKjz5oSroEioz/4KDIoMvqsKeEaKDL6g+8qMmi/qQ8m1kAEEAE5Ami/SXBJ8x0qzbGnbVIi1vojhsslXC7ps6aEa6DI6A8+igyKjD5rSrgGioz+4KPIaIpMHC8v6Q4jEl8XseDlw2KdNP7EEU9okTFf2hK8SIIPYeFq+iGP52vYhQtduZ/EjxDYT09z75gwoUdtMOWINcur9VMyULX4A/OclZ+Yo46NXtM3T9p7WYgLNh03XQjd+KOydaXHBHZM2OfqZkj7WX/HALPS4PYZqjZpbF58lrXpB3NZmVAiQw/OTWwdmzUzeol0dI+lo0GDKkQ9FXkshC2jB/VyviaFiFe8plbsxNKB/tCjAsseuVZr0sr6GfVEdvP75dac/IS3H8zdrCvEurrxq7BG+03nyIQSGUtzLgfx/JAhCWV8kWfPXeb5HXp3OTrnzUS4AKpil06kiA7A6U5S1Vg72svGuah3OqxbmvO+UbVD/+4nNj9ldATdHhfab0ZkWsUH1O545ocISSmjmqj2k7DKk7ExdkwVu2wiiZnM1QcfgKraDsOMSlye+LDmrKiogCGQW3NS680ZJ7cyi88pU96GTKaPLB9+Cred+BG0dJ+H5j3dzHnPK7PgcYqZjCxeam/JXPiynjn0JvCr61fAwIsXLWZaZ56ca9qArmxrgc/+fCmsOfweUBMvfmLca+hUWDtvvMRhkFjSov1mSPtN7t8qrj9jnGORXEpFnrSLDLV1EPdk6KHHZ7o74CuTrJ9GsbjgzdihtOakIvC1DdeSCSr3knmteRioxWfDr/uZF7D4b9kei31PRmYnQW0p+I8lXm6oNeIQs/vk2U9OoJw2na2v6mVIKp6IZET7TQONiJdLhmoXo5F42kVGnNDUoW7jskfIWB0STMN3Eo+YVxgpglpzqqw8qck4j0P8t0w07HsvYjZmmJVb46VZyG8bb2BL2LWXfRdmkqUtFTh6vZzIOG1ArysjZuoaG8p+RQbtN3NyG53IkDaTtITQTW9U5GEbekW0J2P2h5p8E9e62zu74Ds1OdNw+0arH//feETGcMGzx0tFiS6j6BitvWwL/KXxgPkVBWdf9sPmxx6FlmfGw8Fjt2jt9ah4QnmH9pvW2RdKZLgb/b6O+TCOPXEp3kym2J4uAd/4facWOsftgtmHO5gdJnWwq+4Z72oybrfmzE0o9+WSLHsJnskYSx57vGw/pewQ1M3+Fhy42Gx+vsWayThtOu0+x6qbk0pk0H7TiWAokaGG1LtX3A+19J0AsmHY2JZh3q9p/FGRh/Ypze/JOJYEwtPA6YfI4+yHutmeDd/IdfuSgd2a86v1dxCf4Br2KNzyzaXsRqrbEim4yKyGM+0rHPHyTVvxnRJZ9iXWZXuITcPk5rgQ1hyphlfOdpnvmbhxWMUTL+tLtN+0olp2ifyoAE2jmAQlT26j8S04dWkCTLwxum9Jh8WxlMbJEyuSndXN3gVLDncqxSIo5mGxjuMNW52+xRFPuExGpzcJLxuWPIXsXppjjwo3usd0+Zwtljdso2pbbAex1kcVRSaLWZrJk+bY9Slb2BqItT7+KDIoMvqsKeEaKDL6g48igyKjz5oSroEioz/4riKD9pv6YGINRAARcCIgs96kpdjTJQQMEUAEEIF8IYAiky9ksV1EABFgCKDIIBEQAUQgrwj8HXHdH821xgujAAAAAElFTkSuQmCC;" vertex="1" parent="1">
          <mxGeometry x="-70" y="-710" width="281" height="97" as="geometry" />
        </mxCell>
        <mxCell id="iovOzbsHrw43gdFjkHrP-5" value="" style="shape=image;verticalLabelPosition=bottom;labelBackgroundColor=default;verticalAlign=top;aspect=fixed;imageAspect=0;image=data:image/png,iVBORw0KGgoAAAANSUhEUgAAAsgAAADlCAYAAABOBgG3AAAgAElEQVR4Xuy9fZRWxZU3uhExQ5bJdbIy8RUElUEEgtwgCehLr0Zs8SV0A4NEkoy3+wZoaSI2SJMFzERiJICt6CQvEbS7gVHDyHf8YK7y2XZHF4a5ETKMOmZFW9ExuU58FybgoLjycqvqPHWeOvVUnapzTtXznHOo/kfsro9dv9q79u/s2lXV6+OPPz4L7sch4BBwCDgEHAIOAYeAQ8Ah4BAgCPTatuNpR5CdMjgEHAIOAYeAQ8Ah4BBwCDgECgj0Oot+8L/fe+896N+/fy6AydNYcjEhZRhEFuc8izLzU5mHMcjUM89jS2qSDhs1gg6jcIwcPmodciXKiwCvk44glxd/15slBLK42GZRZkeQLSlwxprNg+7ahtxh5AiybR1z7ZtFwBFks3i61lKCQBadURZldgQ5JQpfYTHyoLu2IXQYOYJsW8dc+2YRcATZLJ6utZQgkEVnlEWZHUFOicJXWIw86K5tCB1GjiDb1jHXvlkEUkWQz7yxHmpm/xds7loMl/Q8DNWjW+Dwnz7xRtznv8PSnRuhderQyAjEWZhYWS47r1fkPl2FyiIgmnObc2qi7Th6mgRlG/YWZQy0/00b+sLsxtPE7k3ZWqXHlmReslg3yryz4zNhNzp44X5M+ROd/kRl4mIUtz9aTzj2XV2wYliH729N2R3bJ/Xlum3L8NkxvwZmru+Epc+cgdYpfUBHZ2RjxvVVPzrtq9pwf88HAqkmyKyBnXljD6yZ9x14+eud8PPFwyOhryJLmIzjvlhHTX9n0mlHEtoVToSAas51F+0wIXgSFtUh8G3HdaC6cvALf1i9uPYWZQzlJMgm1pIoY0ukvBmsHBebcpGRUt1X+xPTsqnWJFs+R2b3Nj5MjRPks/uh4dJtMPedDhjzVqmflq3jYWudqI7uGppB03QiJ0AgMwQZjzHugqVamKjBOCNJoEkpq6o750nENq0vtklGFIIc196ijKFSBLkcY0uiV1msG2Xe2fHFXdOjYiTqR9W36u9RZSjHmiSSqWQcBdLZ0DkK7rnN7M6NaYIcZ96E9s0Q7arepTvCptfyqLrhyqcTgcgE+dc//TqMWrCHpDw0t3bA2pbhhLg2Nd4Nj3Z/AP3GzYFt3YWvvVlHoG5EDyx75HkvRQJt69AtElq+/7gqONtrGhzq9tIq2BSLkoicQsllEJcsTGffhFUTx8FdB9+HflVroGsj2uKdcxQG937aGwP9XWHbF8vFjm/lhjaYNbR3OmfUSUUQUDkj0Zzeen4b1OjqLFwFN53P6QvSIZG+606JjGR8tHch1Mxs89KNCnZEtkeRrMOG7YWOjv8gXfB6e2LdZN9WF7Qugy89e5uv87bsLfIY6M4Nwm7YsDfRWLqCa0gh5Qp/xAYINVN++gNPw9g3fgLLNn7ip2EpHV6MtUQ2Nnb949czft2Q6VhxPhEGmwfB/qPXwD81/dBfU9O+5kjtjeiofEwEDyatTrTOivQf+xEdX0RxE5JdRgdGHbgzaGMone9za68vsZckfkDLDyGfQyK7GvotkkWGCetLX31uAcy7d2Bgx/SL+7nxI1/9rbenQsOxeXCsYxpZX3bM/2t4edLrJDVD1DdrB1VVVdADnl/X3a0rxQdFj/vPgJ/9/iRA39nEJjCh53d6ZbKIxox3hEvGys015QNJ1nLdNd+VSzcC0Qgyt91RPeYIPPCfy6B7UhWcXIDIL8oPxgaKjepXS9+D6q8+Adc/voH8Hi9yk1YNQHmG02HzTeP88jJHJtxuIsR2NvR7qDMSQdUhS/IUCyxvsU/TUYV0q0d2pQufc/Gc4oW3fswWbZ3lF2qxvidwEAL4WZKIZW3YvAEah3YKPixHwvIB2/2tSWyrK18KRozUJDK6velEEvnIMY87u4YEUyO8Mwq0fNMvuwETLIw7/bfoA9vUWiIcW+Fjm65/RUyj6RgdE57P22v7BNa5LKw5MnvDcxM2pqIN6a2zRSxK9dvzRXN8/xBXv4U7G716Es9JFD+EbVuu3zKsBJj8wQtWsfnXOIiFPxzYjxOWxAbWmGuPwgOojarzDnipDsdlGAf9OibhN60emIwgo/VPNIc6OsOfYaJj5gNborkmdYXcRX8tz67ndJKzCEQkyF7k9eGPr4QZNy+B+VMmw+W9ihGAkigPc/BGtp0ajSAX85FE2yTaEWSl4RWj2cRxfW1x8bAg7gRF8TYd+0Ukku7UrrwIhDkj2Zyu3zUTnljzqX9YTKWzYTnrcUhNeIRyK4omviCMFIt3XjyHpWOr9FCsiR2bOGPgcyHj4i7bgRIT5OhriYrg8OufaN3Q0bGSA8oZWHNU2MjGRPEIW2cxkWtqDOr/oW6xfgcO4jG4CckgF/Dh+yCRRGYXUda27m6iDkZhZ2HYszJin/SP8Ls7qgM2P+TK3tLURN73lmK8GP6leTCJGi+/4Htw3c4bvMAXe3i+gLFMr6Oc4YmKj0pnZGdCvEi33nrK2nSUsZTX27nebCEQjSAXpMAHeH784P2w7LEr/G0PqjxRnBuvfKoUizikA4sc1fBYwkCMkH5FC3KXbE2MazcZAkqCLJhTXr+i6DJPwuLoqjhCibcZ74Fr21FksW5oMM2Acd6y1CQdW5UR5HKNoRIE2dTYwnRGtG7o6Bghk3h3DkfuMrLm6KyxojEJo5XsmDGJFeh/0d8EfdFd1xUinhxuovkORKMvXaG0saRzooORNkEO8Umszb9wcoN/uI0neKrx03QETIyXX7AWTjXv83ZsBLop0+sopDIqPmG+WWrfEn0yHexI5r1c7bQgEI0gF5RrQmc3zLrq7cKWUwf5ahWlWIi2R/kUi2LqRXgOMj1Vf3LhuySPOcpPVMMLEgYvUvH+5E4/3zrpbQVRZHdl4yGgTrEonVMZUZPprOlFVUqQ0dbmhINe3vuvH5oPtduu8PLmQwky2m5FTp+11S8svFkYIRcR5Lj2FmcM1NE1HSqMsZCmdaz9s2Rbl45dlDupEzUu/XjxbjCIupbopFjwqWT8uqH1MUC287O15qjW2MskYwpul4vG7KUN8Pp/qLtUv/s95Pki0VodqgN1XQE9E9mYTH6bBJC3y+IYZD5JhEmnMpVic5cMY5RS0OsAzJrwt7Dvz0u9dAmpbgZTLHCaVO32mjKkWIjtRHojSGHXQHc9dRHkeP43L7WiEWQ0arx4zPv+RpJyMP2BV8mVa96WReGQHjrgxh8AEkWK6TZN2CE9U/dWypz2qon1cNehWiYKPhKR4Qbud5i470Xjq8/MgZm8KGeScagctmhO+W1YfguyVGfF+hJ3UZWlJ7A2Rw+/sAQZO7FSXV4MJ9bfEbTVlvf8cnxkydS943HGQPNv+1z9Krz44ofksCE93MMeOrrtO1+Gf399iPQ6xjCybGItCUsfEa9npeuGTMdKifOeTK05KnvzbKJ0TMFDeuJ1VqT/WD9K9Jv4IjFu2JbDdEDcR9G+PXtJ5gd0/ZDswzuo32qsWP8sCuqw6xuLJX/ADh/O2zJot3+9qg7GExvHw+nf1EW621ylQ+LrWMU4hO0QqeaaHgbkd8WjfAwl8V2ubnoQiEyQTYuOo0Lf/nmNf1LWdPuyFAsb/bg204OAjMyYkNCWztqU2cS4ddrIwxhk49QZmy3d0MG+kmV0sKmkfGnoO5MYoYjrrAnbYc7BduvpPpnEJw2K5WSwhkBFCDJ9GQePSna61OSIneGZRDMbbZme83LorGmZKzFTeRhDVIJcDt2oxFxG6TPP8x4Fh7CyWcMIpwtdOGmtv1NsCoeo9mW7X9e+Q0BXJ3udRT95i7pmbWFy6pocgSzOeRZl5mcqD2PQXSyTa2l+WsjzvJuaJYdROJIOH1Oa5toxhUBFIsimhNdtxxmeLlL5KZfFOc+izI4g58dmkowkD7qbZPw6dR1GjiDr6Ikrkx4EHEFOz1w4SQwikEVnlEWZHUE2qLQZbioPumsbfoeRI8i2dcy1bxaBEoJ84sQJkmKBf/7yL/8S0P/n5r9moXOtOQQcAg4Bh4BDwCHgEHAI5BGBiy66KDAsPwf5ww8/hE/+fF4uxvyZ3v8b+IHmYmBuEFIEsP5mbc6zKDM/AXkYg0yp8jy2pEuJw0aNoMMoHCOHj1qHXInyISDSxwBBxhHk/++DP5ZPIks9/bcv/h9QOHtoqQfXbNoQyOJim0WZHUFOm+ZXRp486K5t5BxGjiDb1jHXvjkElATZRZDNge1aKi8CWXRGWZTZEeTy6nVae8uD7trG1mHkCLJtHXPtm0NASZB1Ishn3n4D3vvfg+CKQelNx3ARZHNKk5WWsuiMdGU+88Zv4e2zg2DIlb1TNx15GIMMVN2xpW5SyiBQ3rCxYWO6GNnouwwqkLgLXXwSd+QacAhoIKAkyKoI8u6lU+C2xz+Ba/7iKHxu+qOw7R9qNbotfxFVDjL/DCl9vIR/FlZX8rBnLtk2VM+f6vbnypUioLPYsg880GdZcUv+7/v8d1i6qwtap/QBQC9KNfSfAT/7/UmvM/S3Tcd+AbOGmiOp2jJ3fAxj+74Mn5+5DfZ1TEvV9OdhDHEJcok9F/TE16EIM6W7hkRo0mpRnXnHAuBxNY4/AnPf6fBfZhPZm//EOCt139mAn3yu6o2frS5thx+grIyqLpFHYGP+E8WnR0NzawesbRkeCVMdjGR9R+ooo4V18IkzNG1bOvsmPLn2NbimuQ7w0+jaP6jejjvmwp3Hvg74CXS2rnbfXGe69XTLaY8lRkGhv4zRTtqqKAlyWAT5zFsdcEvzaVj/TDP0P+8t+Mn0+fDf1vwzfGuwOcJgCjBVBJk4tjFH4IE/eIv2R3t/CpNWfQKbNvSF2Y2nI70nT51Azez/UtbjlRu/cb9m3nfg5a93+u/em8LgXGtHtdjiV6Ku2zEQdre3wGW9emDVxHFwcuG7sPyC78GQlQPIQndJz17kzHd6zvy8A9Bw6baAYzeNqUrmgL4QmWdDv4c6jZL0pGPKwxiSEGTe7vHT0/PuHahcC0TkTmcNSTpfpuqr5h0QicA2dtfB9wEYoovtUGhvaB1mf7Du193XH/a1jxC2Eygs6UsmA9+PjztjYzhYgn3EypfQf3vvh8bqlTChszuS7akwyoJ9m9IXUTsqfKL0zWJ5Sc/DoGNLWBen7zwNp38zJJK9htWLS2B16+mWi4JdlLK69hulzbSUVRLksAjyf3Uuhbrd1dD5Yy9qvHvpSPi3G47A3/+P89MyPl8OrQgyQ5BJtBCRoYbOUXDPbeUjyFHIdepATplAURdbHLFaceZB+MEFi8l/f77Yiw7h32+9/BlYMaxDa5FNAoNKZkLqd94AxwpR4x3z/xpenvS6F+FOyU8exmCSINO1hI2Y6kxVpR2fjoxsGdW8+2ULayvFg9odb2+8TuMo1anmfUVCyrUjlFdWJqSuzMZ4+49jeyqMsmDfUfUiSnkVPlHaikyQyUdVK4xd95VoPl9RL64d69bTLRcFu9hlCRbpC9rEHY+SIIdFkF/tuBn+4cxq2Dh/KOmf//+4QtmoZyKC/MX9d0LNzDY4/KdPyPY63TbFUd+mxnp4tPsD7/c7N8KK4Z1FMtXrAMya8CO4uKUdWqd6WNEfoXIzi/eYtx5Gbd9N2sZpH9u6vQg3rkd/339cFZztNa1ka8cGjllqM9JiW4g48RFkHFm+77s1cPjKZ2HrtC6o/uoT0OfqV+HFFz8ENiXDFC4qmUVkgiXzpuRI0k4exmCSILMRZBzJEttz/DUkyVyZrKuadxlBZiNQrL1RwozrqdZJvCaaIshSG2v5jO/8bz1/P5rHXTDnYLufJqKDpQqjLNi3zjjjlgnDh+jArCMwuPfTJf4Q61DANyMf/Lm115Pdin5Va6BrI9oJnnMU6kb0wLJHng/4byorbqP+lRoY/dxcv563iyi22WC9JuIfsHzDhr0JHR1dvr/GPpxGr01xCNb/V1VVQQ94/l++voTzBYotlX36A0/D2Dd+Ass2flLkMxLseT7D7sTH1YO01FMS5LAIcpYIslYEeXSLR37xT4EAy6KGxQV7Omy+aRy8P7mT5KNhsoy33q5ruwWeWPMpStEYAavnroZqZJSiXFXxwk+/wjrgd3dUw8kFKAcWEWu8eDYcmwfHCluM9Pep+oJMi2YjOVTOiBUVY1u7vcb/yKA5VfijpHb4m/DBVeu8BRClzdzdsYhsseKPoosX/85o9FYlcxYcaB7GkIQgV7PrCGoI69BjG9vgxiFve2k8EnuOu4akxeRU8y4jyPj3IntjCTLdxQlElS1FkMNszCMSW8hQxi3pjGz7KoyyYN829U1FkDH5ajrURnyp7w+5MxjUH7LpkZg44uDG9Y9vIL4Uk+FJqwYU0ygKUeDxe9uBJbR+6h1vs7RPrh7bB5XvV0vfE+48xuYQNJhTkAl/gN+0eiDyXR4XicMXSIopwqfpl91AUomYf2Ofh7Gsv/ZoKPb0zICNwJFNnQtrW0mQz9UIMs1JXvlSMcXC+zrbir5eXyCY+l+mghxlqnA42vjHoY/6W+L8ZIRFRvj0DpHh48MAjiCLVVzljGgtbNjNO2qkOWd4K3XLoN0lOeG8MzNhxCqZs+BA8zCGJASZzXX0zhTci3LbD5Sk6Mjsmfatu4aY0DsTbajmPYwgs/2X2BsiwrMmbC+N1nIEGdebub4Hrm58qrjeaqZYsHUfH/lISYoV3qWhH8ibu9AhrJj5/yqMsmDfJnQljn3xfo5PoQjzzXwOMt+WFz1uImt8WGqGbj3WL/NEPSmHkOHAn5eKwhdkY6a4ydomtsAeZmR2YtOU9hdXZ5UE+dzNQfaiuF9YeDOJBG/uGgnLL10B17ZvgNvrhvpGJDvEVyTYS+DwfBQFRoe/RAojIrcqxdZW1rhakZN6KmeEh8lHjkuGHmLwlSDIWchRVOGehTHEceC4jsie6Xj5SJIWQSaHwsLXkLSYq2retQiywN6kdmYpgizTz2+9PVVInNlIt2ouVBhl2TZUY9f5uyqCHPz4RNF8chBe7ZtDCTL52GkFHD2m6Yu0n7j1xARZLSd/+4V3KDRo/6kmyAWfmra0Px3dE5VREuRz9RaL0ggyUu4B22HCwcL2zkPzoXbbFf62hmx7FH9hke0d9gAgMxOlyu7dYkEIdd07oVuydCulZLsorjbkrJ7KGdE5pjeX0OGzt1ucQpGFETM+IldLXbh+Mklx2d021bvdIsYpdhXEOjKLTtibvGpOJaPq73kYg0mC7B/SO74MuidVRU6xUK0hqvko199V8y4jyDJ7I3nFYYd+LBHkwJrMRIpnHm/xb9tgb72JEilTYSTrO032bVOfVARZmGLR/llyoJ73zSTvuLC7G0Z0cV4wjR6XfOTS240EKRZs1JnWE8lX/DA2xCHOK9y4xMjkpQfqpViI+IJOBFmWYkFTSbBfjGsXNnUqSdtKgnyu3oMsykE+sf4OmPf9jSRPOZgYvzf8kB7agpBFKglJ43Of0QEDepgP/90/1IMOG9A7Ftl67pCe2ARUzohuq7K1af6U+B5k767Lmes7SY56nHtQVcaqkhnXT/s9qXkYg1mCXDzZjfP7xPasOKQXsoaodKpcf9eZdyKLgNjK7lHFKSrrdn8KixZNKR2GJYIcZmPsvekTUSpH1DvIdTBKu33b1CcVQcb534N7v+4d0mP8oX8/dcA3j0Q5uQ1w16Fa2H/0msDNFMH832L0mOrnqon1pB4OjAQOytM+uaizT5CZQ9xUPpacm+IQJOhW4A0TG8eja+nqSIpg4JCeDl9AFwjwt3Wx8gZSLOZsFWKPP2Jt+0WbOhfWtpIgu5f0KjU1+v3iJP1v/7xGmues31K+Suo4o7SNWFfmNL+0lYcxxCXIadOncsqjO+/llClJXzZsTBcjG30nwaJcdZUEWeNtgXLJmtV+4vCFc/Wck5IgqyLIWVES1S0WWRkHlZONZNBX/86VbTjdudJ1RrrtlaNcFmXmccnDGBxBjq7teZ736GiIaziMwpF0BNmUpgXbScoXHEEu4tnrLPrB/4uVVSeCbGdKzbaqugfZbG+utTQgkEVnlEWZHUFOg7ZXXoY86K5tFB1G8Qmy7blx7TsEdHxZgCC7CLJTmqwikEVnlEWZdRaVrOrQuTS2pHOUB91NioGqvsPIEWSVjri/pwcBZYqFiyCnZ7KcJNEQyKIzyqLM5xKJzMP8RLMi/dIOGzVWDiNHkNVa4kqkBQEhQT5x4gRJsaA/mCSj35F0iyz/Ny2gOzkcAg4Bh4BDwCHgEHAIOATSjcBFF10UEDCQYsH/Md1DkUvnvtyzOnPx5c7inGdRZhdBjq+jeaqZB921PR8OIxdBtq1jrn1zCChTLBxBNge2a6m8CGTRGWVRZkeQy6vXae0tD7prG1uHkSPItnXMtW8OAUeQzWHpWkoZAll0RlmU2RHklCl+hcTJg+7ahs5h5AiybR1z7ZtDwBFkc1i6llKGgC1nZPMSf12ZbcqQdBrzMAYZBrpjS4phFuvnDRsbNqaLkY2+s6BTuvhkYSxOxuwjYIQg40ukG8cfgbnvdEBV716pREVleCVPPuNRoOeEl+7qgtYpfSKNqRyXasv6iDMO2tamDcW36y9DT9tm/Uc153h87AXq9Jlp5e87PoaxfV+Gz8/cFvmpWRWm2jJblEElo+rveRhDXIIcx/5kfZVjHVHNZZS/68w7bk/kL0RPTf/6p1+HUQv2BEXoO5s8/4v9jI7fkZVR1ZU99+w/aXx6dKyn5nUwck9NBw9FRdHBxLaEnk1+cu1rcE1zHUTygXHrFQS2ZetR2rXJA2RPyZuYW5ttJCPISClWTRwHdx18H4BZuGwKHLdt1cIkUiT8JOO8eweSN86jGEsUpYw7njCCXMM9x6kah03DiDs+E/VUc/7R3oVw3Y6BsLu9BS7r1UN0+eTCd2H5Bd8T/n7FsA7wsSXlZ0O/hzrB5AuGKpkD825JhqTY52EMSQhyVPtL7NSTTpih+qp5B4m/wHY4ZOUAONS9GC7p2YuCLTuFwRas+3X39Yd97SPUfkfmmzR8lszGbj2/DarHHIGVL6H/9t4PjdUrYUJndyT7V2GUBfs2pC7CZlT4ROmbxfKSnoeLa3dI8Afr4vSdp+H0b4ZE8vu4Xv0rTfDzxcOjiOiXtcUZorRriwfo2ncs4CxXSkaQqXBn90PDpdsyH0HmHRvEHFcUpYw7v1EIsmoctgwj7thM1Yu62OKI1YozD5YscvT3PxvRBtftvAGOdUwjIu6Y/9fw8qTXI+8whI1PJTMh9ZZlSIp/HsZgkiCr7O+cIcgSf8HbHf7/rZc/U2JXOAp1qnlfkZDqrM+yMiF1ZTYW+EBGJCuO/efZNpKuG7i+Cp8ofUQmyOTjqRXGrvsK3HPbaX2CXKg3fm977B10W5whSrtl4QEEK/OBpSh6EaWsI8gFtFQRZPwF2tR4Nzza/QH0GzcHtnV76SRn3tiDfl9Pfk9SMnZuhBXDO5lI4wGYNeFHcHFLO7ROHRqYG7wQ18xsg8N/+sRP5yCL8KwjUDeiB5Y98nwgzQPLSGWoqqqCHphGoi5sdDvOOMa85X1dn4spFv6EFCJLOIIcSKlhfv+tt6cGCLSMUEcxQL6sykGIyISI1CeRIWndPIzBJEFmd3BsrCNJ58tUfdW8F20tGFBhI0x4J+e+79bA4SufDXyoCh29JYIstbGWz/jO/dbz96O1eBfMORiNFKkwyoJ9m9IXUTth+BAdQL5xcO+nS/xwiS9Ffvhza68nu9v9qtZA10aUPjjnqNCvUjm8KHANjH5url/P29UQ+/5gvSbYOq2LyDds2JvQsXkQ7D96DfxT0w8TcwYTPIGOP0y2MB5AsSf1O7pg+gNPw9g3fgLLNn5S5DySuWHnGbeDd2Ee+EN603FZeR1BZghy9egWj6wWfjARfmxjG9w45G1v+30BykdGJBcvYg3H5sGxwlbf+5M7YW3LcEKW8bbbdW23wBNrPkWEcwSsnrsaqhHRVW3Ds19v9WO2wPWPbyB9YeOYtGoA+pqdDptvKsqAne5NqwcKCXLUcfxq6XvnPEHGc1q7vaYET/b3J9ZNdgRZwzvmmQSoxkYcQAXXEY3psVZEhY2MIOPf0xxFvObWDn8TPrhqXYAgC6PK5SbIaPvcIwpbyFDGLemMvHukwsgR5A9BdrUsJVdNh9qIP/X9cGFHj+qXKBKKSW71V58Q+NVCgImJAlOiSFIraeod7/tpn1w93EfD5g1we20fK5whLk/ABBnzijDZwngAwR6NremX3UBSjZh/0+Ba/bVHIWxu6JkC9qyPtcXIUMOOIDMEmU2xwGR3zbx7UU7qAeC31lRbEVSZ+lz9Kvxx6KP+ljw/Z15EeCv6wnyB/Mn/0m0sbu/I+tJNsYgyjnM1gowNt3lHTcmWGv/7cjivPDjQPIzBVAQ5iv3xZx101xFDviBxM6p5DyPIbOc4dWHLoN1FgoyI8KwJ20ujtRxBxvVmru+BqxufKq65mikWbN3HRz4i/BAmEUJ6viNm/r8Ko3KsMYkn2mIDyggyc76GT6EI86V8DjLvP9kc4rDUjKT1ZD42zNZN8AS2XxkWtIxIRhkmtC2+jjS1Q7ZTa1GnkjTtCLKEIONf01w0+mVFHZgWQSaHOZbA4fnV5OBXyU0YeOHufw9c246+NuuGepEJQZqD6vcip8rnUuuO41wkyDqRY5rCUo78X5UDLYcMSRYUXDcPYzBFkK2vI0kny2B91bxrEWSBA5WmMlmKIMtszESKlQqjLNi3QZUpaSoeQR4Jyy9dEepLQwky+dhpBZpDrE2QY9QLJcgizmCIJ6SGIKMZt5GaaEsnHUEOIcj+4Zrjy6B7UlXkFAtMXsnWjijnprC4TzhY2C56aD7UbrvCy5USRJD5FAsZsQvN1ZOM41xNsZDlQ4X9PmkESWXIKgcamN+YUSyVDEn/nocxmCTIVteRpJNlsL5q3mUEmb1N5hRKKRsx4yP/Kjfv5gvJoR5LBFlmYzOPtysPYIMAACAASURBVPi3bbC33kS5BlSFURbs26DKRCbI2JeWbOO3f5ZcEhDmS8MI8hf33xm4gaJ0DgTplSjFgr+5QqueIi2zhDOcd0A5NhzAKfYdTMWkPCHAKyRpI6oUC+r7WCzZCLIsxYKmwuxumxq4LSqK3djUubC2HUEOJcjFxRnn3fiH9FDSPz0cpzykh5RXGqVEpHje9zeSvGd66E5OkAtku5DfOLFxPLqKpq4kLUBMkMPHIdsmqZRSmupX5YzotirbH86P+nbPFLJVy/8eX+Fj+45SlcxYJtsyJMU/D2MwS5DtriNJ58tUfZ15J30JiK3snlS8vq7b/SksWjSlVExLBDnMxth70yeiVI59XP6rCksdjNJu36oxJvm7MoKM8r8H937dO/jG+GH/fmrGlx7qHonO7TTAXYdqyYE59maKIKEsRo+pfq6aWE/q4Tu3cU5yie/nose4Hu97vdSIwsH+BJzhxPo7EvMEUQoEL5uQB/TyCHpD5ygfPxlBnj1nq3Bu8EfujjvmIp/aSS4daG7tIGe2svBjhiBnYKQ6C1MGhuFEjICArTm3+cqVrsw2ZYgAsbBoHsYQlyAnxS7L9XXnPStjtGFjuhjZ6DsLuCsJMnfHfxbGdC7IKM05zvjgHUHO+AQ68eUI6DqjNGGYRZl5/PIwBkeQo1tFnuc9OhriGg6jcCQdQTalaeVtxxHk8uJtvDe3MBmHNPUNZnHOsyizI8ipN4WyCJgH3bUNlMMoPkG2PTeufYeAji/rdRb94IJ5MuY8jcWpsR4CWZzzLMqss6jozVj6S+Vhfmyh7LBRI+swcgRZrSWuRFoQcCkWaZkJJ4dxBLLojLIosyPIxlU3kw3mQXdtA+8wcgTZto659s0hICTIJ06cIBFk9+MQcAg4BBwCDgGHgEPAIeAQOBcR4F92dCkW56IW5HDMWYzWZFFmF0HOofHEGFIedDfGsCNVcRi5CHIkhXGFK4qAS7GoKPyuc5sIZNEZZVFmR5BtanF22s6D7tpG22HkCLJtHXPtm0PAEWRzWLqWUoZAFp1RFmV2BDllil8hcfKgu7ahcxg5gmxbx1z75hBwBNkclq6llCGQRWekK3OaHxLIwxhkqqw7tpSZQlnEyRs2NmxMFyMbfZdFCRJ2ootPwm5cdYeAFgKJCTL79CZ+phc/x5vGH5XhiZ4dxuPoP64KrjhvWsmTzrpjxBdoVxeeh8Z1+o2bAys3tMGsob11myDlTF3ETedr6TNngH0LnZeTCseXiyR0hQur5hyLJ3viVvZ7/0nT06OtPJmpLXPHxzC278vw+ZnbIj93a3ta8jCGuARZZEeydZHaNP8MrKxvoY2ip1uX7uoK2LLO/JpaT9i+dOadrmWN44/A3Hc6oKp3L9KEyN5+/dOvw6gFe4LD6TubPP+L6+Ex8O3wY5eVUdWVPfec1P51MHJPTV+ko8KRymjrO3oW+cm1r8E1zXVw2Xmebmr9FJ5TvvPY1+FQ9+JodbkOtGUVCCbz71pjyEkhme+OM7xEBPmjvQvhuh0DYXd7C1xG3iYfBycXvht5sY4jeNQ6OgsTafPsfvL2OF28kygrdQbVY47AA3/wnMFHe38Kk1Z9IiXcbH+iN883dyUwPm5sLIZJxxl1PspRXjXnWH+HrBxAFrRLevYiZ7uTzPuoA3cKfz/mrYcBz+XKl9qguvd+aKxeCRM6uyN/7ISNXSVzYJ6Izc2Gfg91GpUh6dzkYQwyDCKNTeFg4xDkGu6p3VefWwDz7h0Y+QPehr2rsAFEIrCPuOvg+wAM0ZXZISXPdC6wzHX39Yd97SOE7QTmTNKXTAbpWsjY2K3nI7tPaP8qjLJg30nXhyTrX5S+Zb40jPhiXZy+8zSc/s2QSDYVp55xXx/i36PgluWyumuJ7hgTEWS+E/zFv+LMg6mMIqsWJn8slgkyT8B5DI0bDdNBmFO04TB1ldBWOe05Jx9G2HkLyCbze+wgWYKCdx1envS60Q9Clczko3TnDXCsYxqBzYYMSecjD2PICkFWrSeycdiwd9W8y9ZY3m/g/996+TMldoUjQ6ea9xU/BnUIgaxMSF2Zja0Y1pHY/lUYZcG+k64PqSXIZK1vhbHrvgL33HZanyDHrGfa19uwaZtzbb1tmU+P0LE5glz4Ys9lBHnWEagb0QPLHnkegNnSxArZ1Hg3PNr9gTR1gmyLSiLIX9x/J9TMbIPDf/rEa3fnRvjc2utJhAWnYtx0/tNe21VroGtjX5jd6Bktjizr9MuW2dY1E9oHfgN+9vuTgegNG53ho1Pkb9iR9L/Hj5Sy48ERVV4OQiIRXsOGvQkdHV1kHLXDvX9Pf+BpGPvGT2DZxk/IWFunDiXbpAE5uzsAt+u3sXkQ7D96DfxT0w9DcRbpvMoZ8VEjdp5YXPzfn1eM2N56/n4k9y6Yc7Dd3yaOYHfSoiqZRWQibR+leRiDaYIs1XMUEQ6kWPQ6ALMm/Agubmkn9sHraFgEmV8XtiFb8lIR9iBdrSf2Q9eZFcM7i2QvpM8oOq2adxlBZqM+eCfyvu/WwOErnw0EWoTO3xJBltpYy2f8j+i49q/CKAv2HUUnopYNw4foAPItg3sX/CLyLVTHsQ5JfSn1n3OOCv04lRG3Uf9KDYx+bq7ng1E9b3cx6Odon8F6TbB1WleJ79OSL4avL1lPBP5d5J9nXdWZen9O55lyCJ43kLVLogc6Pj2KThojyNiwa7fXJM6/iSJ8lLKqhUm2eBNC+NUn4PrHNxCHhY1o0qoBiKhOh803FSOOsq83Up/JQWYJtsj5sc5SnGKh0S/9WFmAchORzHhuGo7Ng18tfS8QASlRJlZO/MfCNujvFwyGLYN2E4dF2zpGtjlLx4/lrx+zBRo2b4DGoZ0Eu6ZfdgPZnmT+7Tl6PBaUliOQE5fFbdxe20fYj06qie6c01xHPldU9HvPeLcQ6MYt6TQaPcZtqmTOggPNwxiSEOSAvWMb+tPfQfekKqGeYzugNr9pwwhYPXc1VKMPcdEZhZK1BAmJP0Af29gGNw5520tx42zJs9Nx8P7kTljbMpyQZZwadF3bLfDEmk9R3+F9lmONxX3QvEH6Qf3BVesCBFkYVS43QUbrX1L7z7NtRNGVOPZFgzNNh7wzPL4vKuym0TZFqUvYl4r9eCFlsRAFHr+33QvQ0FQmmjrK2xXtk6vH9hFVPtpn0e/LfL3cbwblFvOTf2lOtz+nnEvGGwjHuPYohOmBzKdH1VEjBBkL07yjRn9LIqqUBsqrFqYwgsxGbVjjq//aYi/6S39QFHjTsV8EnBsfQS6NwG5FkZ0XSAuiSDFvNEQ5FP3yZF20YPB5WHrpF0WDJYSXJ9Ro/Ot3zSSOl0a6S43e+yJniQElu9KFTdAPj7NIRbTnHFeW7YAwvw9ssVrK/1XJ7AiygcUgQROq+RHZkcoe6Udln6tfhT8OfdRPn+HFLG1nD6yZdy8693EA+O1/lc1TJ6TqMwpUKmxkayzfB04boh/k5G+ICM+asL10t4YjyPSg9dWNTxUx1EyxYOs+PvKRQKogtTkSIQwQp+j5/yqMsmDfUXQialllBJnJwedTFJoa9Xwp9n28LXnR4ybyUca3K/L/1GfJ6vF9eFFoPflY/yjy9ayPZfvhg2si/4z9ZjFVMJ3+XIa/ijeUBM0MZDUkJshpjxxTA1UtTLEIMvqKoYfvZAsBT5CLua7L4PkbVsG17ShKWuelGvCkURRBpl9PYf2qHLIo+hpGkH2Zf3oLbGr62Ce/spSEMFLMEmf+9L6UIDMpKlEWXO05LzQqy6Gnv//BBYuFjtPkzS0qmbOQo5iHMcSJcOE6sQkyWktWvrQEDs+vlh50FrVN9YHfHdIiyOTAWXifVuwtLPIrcGrSsy2WIsgyG/vW21MT23+ebSOKrsSxL5lf29w1EpZfukLbl5YQZBLsaAUcPaa3o4h8WJR6wbLR5AsQZAHH0PHvJGIu85s0Nzel/twYQUZKlvRcXCKCXEL+TFiIpTZUC1NUgkzTA4pblx7B5cmnNIL8nygn+LLtMOFgYbvooflQu+2Kklxj8bYLu2Uq6DdmioUwB5khj83bT8Ff/U2bt/VZ6IMfvzpFpBhBDkux4Le4VDjHiSDTLbDdbVMDt7BgR4hTUvjfL7/ge/7tFrZubVHpaWBxtBTFTmqCeRhDHAcuI8j+7oQk5akk8iNxbMKPWEoSjy8TpnGoUizoB6vUmUZQBtW8y9ZY9jakUyiSN2LGR/5VbtLDs4XIMnvjkFBUzQgyW1dmYzOPtyS2fxVGWbDvCCoRuagqgoz1tGRrvf2z5OYpXV/KE118FohGj0tsOCTFgo0e03om5AumWIh8vW6KhZwnkF3/lPpzHYIsS7GQ+XT2StsoSpmIIIvuDk7rXciqhSk6QfauBqOHX2T3GxOCLMlB9u/URGkaVVVV0APTUA73SJSX2wB3HapFuYvfRE7P+zc+qEZP1ur26x9+Yw4byEhwiZwFQOh80i1ZnBdE8yPZwz90/OxND7Jr6vjfq+QU9aNzj7Ryzgt3V85c30kOLzW3dpA8TeyUd9wxF0p+jzBh7/2eiLZy93H5b1GMLw6px3XSfk+qEvcMjMEoQS5ElmV6zu+kyHblxAS5ePsKtj2+D48MKA7poTImdgJ15p3gKiCtsrtLsezrdn8KixZNKZ0SSxHkMBtLav86GKXdvpOucWH1VQQZn/8Y3Pt1//A6vXNY5UtZ/xkkyJhsFqPHVD9XTaz3fDC6cztw2K3gS70ASbAem7b04osf+of8cH8q+aL6etxXEr+ZSn9esOeGzlEM1ynmgwdSLOZsFepBmO+Oo7eJCHKcDitVR2dhqpRsrl87CGRxznVlTvNLW3kYQ1yCbEeTs9Gq7rxnYzQ4Xea38PbZQTDkymiPOsUlgGw9G31nAXclQRbs0mZhXE5GcwiEpoOa64a05AiyYUBdc+lBIIsOO4sy8zOehzE4ghzdjvM879HRENdwGIUj6QiyKU3LbzuOIFuYW7cwWQA15U1mcc6zKLMjyCk3hDKJlwfdtQ2Vwyg+QbY9N659h4COL+t1Fv3IwstZhdAtTFmdufhyZ3HOsyizzqISfxbTVTMP82MLUYeNGlmHkSPIai1xJdKCgEuxSMtMODmMI5BFZ5RFmR1BNq66mWwwD7prG3iHkSPItnXMtW8OASFBPnHiBIkgux+HgEPAIeAQcAg4BBwCDgGHwLmIwEUXXRQYtkuxOBe1IIdjzmK0JosyuwhyDo0nxpDyoLsxhh2pisPIRZAjKYwrXFEEXIpFReF3ndtEIIvOKIsyO4JsU4uz03YedNc22g4jR5Bt65hr3xwCjiCbw9K1lDIEsuiMsiizI8gpU/wKiZMH3bUNncPIEWTbOubaN4eAI8jmsHQtpQyBLDojXZnT/JBAHsYgU2XdsaXMFMoiTt6wsWFjuhjZ6LssSpCwE118EnbjqjsEtBBITJBlT4Rq9V7GQjqGxz633H9cFfz9sk64va5PGaW005XoYu1yXrZtZ1TqVnXmnLaCn03fMmg3/Hwxemoa/fhPg54eXXyCGv2efWrWxrPqOjKn/SnaPIwhLkEWPtmOnjFfuqsLWqdEW0uyZqM6845xxeNqHH8E5r7TAVW9exGoRX4EP389asGe4FT0nU2e/8X1RO3w8yYro6orszHZuqBejbwSOhil3b51xxqnnA4+cdrVtqWzb8KTa1+Da5rrAD8Rrf0Tt552B3YLauNjVwwrrSfhqIkI8kd7F8KQlQMAv4d+Sc9etOjtDCx6VkYbs1Gl4eF3wPvfAxM6u2HW0N5k8a0ecwRWvlR8F1xmMOVUrjh9OYIcrjSU1PT7wRFCkItz3wbVvfdDY/VKohczj7fAdTsGwu72FrisVw+smjgOTi58NzLxCZNGpaeBuSQyzIZ+D3USnU3LTx7GkIQg13DP4b763AKYd+9A2Ny1OJLTjWPrldQB1bwDIhHYZu46+D4AQ3R1/QjGo+6+/rCvfYSwncDYJX3JZGDrymzs1vPRekB8QnBdiGJ7KoyyYN82dUyFT5S+WSwv6XkYeLsUtYV1cfrO03D6N0Mi2SuuV/9Kkx9goW3r2LBOmSjjFn0kqsZuW4Yk8iepq7u2RFnv491iQRak9DlrOnCV4ckUJG2KE0ceR5BDTKygt8cHnQcfXLXOJ8jsgoKjyy9Per2ECOMI14ozD5YsikkMWqWn2OCv23kDHOuYRrqRyZZEhqR18zCGKAumlFzRCBT++L50W+TgQRxbTzp3Seqr5t1vm8ODtyP8/1svf6bE3nAk6FTzvuLHoA6usjIhdWU2tmJYR4BkxbE9FUZZsO8kOqKqq8JHVV9mi1oEmfiCVhi77itwz22n9Qlyod74ve3+jkgUghxlTHHK6qwjOmXi9J2qOjE4aqIIMq+M+Ov6gT8Ut83SBI7S8AoRh/+c3AHzp0yGIVeiiBwThehXtYZEyr+4/06omdkGh//0CUBh65QunJs29IXZc47CsGFvQkdHVzFKct6BooNk/j3qQGlb33p7KjQcmycmQAJ5sOE3Nd4Nj3Z/AP3GzYFt3aX4qwgy38bKDW3ECeHFmh9ra12XMNKO533MW0FZcDs46lIz6wjUjeiBZY8872MWdbs5ji4p5xw16kUMboD7Rz5SJLuMId16/n6E7y6Yc5Bb/ApzUe4IsohMmCbpcbBm66hwz8IYTBJkNoIss9czb+xBelZP7JisKzs3worhnUVC1usAzJrwI7i4pR1apw5NOkVW6qvmXUaQ2SgP3pm577s1cPjKZwMfnkIHbokgS/Wz5TN+EEi6LiiQVWGUZdswoVRh+BAdQL5kcO+nS/xdia9C9vO5tdeT3Qrsu7s2er45zA95UeAaGP3cXL+etzse7mPZ6LGfFoRseEHrMvjSs7cF2qoEf5i5vodMDeUwovFg3y3z0xh3lmOUmx/Qeae8avoDT8PYN34CyzZ+UlwnJXqRlKMaIchUKWzkZJowOtyGamHCZbCT+vGD9/tEbtOxX3gEj9sy5b8OCTFuPA34v/VjtkDD5g1we20ffzHFW/MXTloLS585A3wUQtRW/bVHvQ8NllgXcvVKt+DQNv8ClN+InCaeB5Zcs21Xj27xSD3z4xnMdNh8UzHyrxNJ/5fmwX6+rt8n2fYsbYdicv3jG4iMeDGZtGqA/td5AgVQzjlysLMmbCfk98L1kwPRYM8ot5Dexy3pFEaPa7fXkI+mSLlq54ADVeGeZRKgGhtN12FtDX+4PraxDW4c8raXlsPbayFl4P3JnbC2Baf47CFpPde13QJPrPkUrSsjYPXc1VCNPjCjbOcnMJ1YVVXYyAgy/j3NE8RY1Q5/09/NoXWEUeVyE+RC+lXYuqACToVRlm1DNXadv6sIMg7CNR3yAjhh/g77bOqXcWoTJoXVX30CpH6IiQITskh9Pk2lk/lYNnrM+GvchipFk/pa2/yhoZNJE5WM51dL35PgU3l+QNZUNHdNv+wmfIz9N51nzJnC9CIuRzVCkIniW4qo6RiVThnVwsS3gaM+N60e6H15IvJL8we9r6mt6Av2BVLF/zotEGS2LN2CG71nEvzH4Dp47rVB8OQ3Ov1cJVFbmHBhAoq39Jdf8L3AdrpH4hFxKxgvv22kQ24pmWONs/5ri4PkGX390o8Dfqz0i9qToWg8RHF5Eo7aWb9rJnHyLH6qfCid+dQpo5pz1hmx/1blAeKyzTtqrJD8KDJjDGykeehgG1YmD2OQjU81Nt4GMdldM+9elKt+oOTjmHeQfI4ydQx9rn4V/jj0UX9XKen82KqvwiaMILMy8QdmgfmQpYf6PJ8TTF3B9XC07OrGp4pYaaZYsHUfZ3eTGBvbOq2LI07RUwpVGDmC/CHwL5dR3Si1raAvlPllSpBZv8O3xUaBo/jYQO5xgQM9/PGVMOPmJWQn+vJewQBbJfgDJr8qzsB+TGCOkCZ+IJsPyn9kspec+YjBUc0R5JQ6a2pcqoWpxGkUFtbg1xdKlUAH+a5tRxHiuqEBJaIRZJYgY+NpeOVy+PzuP8MPO0fCD284BiOn7YP3B/8/QFMV+LbwpOJtGJxnuvyCtcGcO1sEmUasC1Fq3/kIxkqUjh4O++ktsKnpY0IUyRe6IMUmbFEzGXkVOf3QOWcP8TCV8S7IDy5YHIgm80TaRuRYV0+zkKOosrUsjMEUQcbt0PGyjop3Quy6wRICLwq1BA7PrzZ+INQ0UVbNuxZBFjgx6UegpQiyTD9x+hubzhTn41SFUZZtw4Q+qSLIYpI7EpZfukLql5UEmfizVqA5xNoEmatXtNvCTvRjV8D+o9cU85lRmlQl+AO7Cy4LqoUS5ArzA2MEOQZHTUSQ6RbH7rap1k71mzA63IZqYSJj+dcbvRsK0BeUMIKMFRwdtplwsLDF89B8qN12hR9l5pWMRDj6z4BTi39J8unwNuKd/3qFlydc2I7h2yJb9iTf8G9h35+Xlmzhx02x4KO2xXZwFHgcFLd36Vc5WnQGbC8ZK00pIFHU7afgr/6mzcsVLDg2vh3trztTE820o5pztkvW2fE5kfS2CpweYzvPXiWzKrptAcbITeZhDCYJsh/pPL4MuidVRU6xCPsAjTw5Fiuo5l1GkAkpLNwOcwr9e8SMj/yr3Lx1RRKptUSQZTaGU+XorU1xb7FRYZQF+7aoQqF+muyoiFIs2j8b6pdVBBkHpNgbKHR9bMnNFexNWFfhdKrZ8IWFNxd3UCvEHwKkOCTFQvzxUXl+oEOQZSkWSTlqIoKMF68dd8xF21qd5GBJc2sHyaFL449qYQqMBQ2gmDfYiRS9Hu46VEsW7QsfvgPmfX8jSUmoqqqCHpgWQpC9a43oQS4+OuDfqcm0RQloyTYjBRUZIStP4GBc4SAhH5kVpV4ElW6vf0AIj5sm4YfJx+YF0bxI9qARbYfP4ZalgdjQGeWcM53y0SD2vuOJaMt2H7o1gm7DsrKazrvXkTnt96TmYQxmCXKR5GF78A+8MPaqPKSHPtqxjtrcvUhqgzrzTvoQEFvZXaUYl3W7P4VFi6aUimeJIOOOZDYmWhei4KaDUdrtO8p4o5ZVRpDRuZDBvV/3Dukx9iP2VSNR8KeB+O5AJJdJIfDSBIvRY6qfSh8riR6zchDf0PJe5fmDBmcIS9fEV/jSA8Rl5QeFDwp2F5+VM5BiMWerUC+SctRkBDmq9lewvM7CVEHxgl3Lcu5SI2A2BMnUnBcg1ZU5zS9t5WEMcQlyNizDjpS6826nd/Ot2rAxXYxs9G0eIfMtKgmy5MC8eUky3OI5xh9sBt0cQU6ZHeAoM77xwnRkMmXDLIs4us6oLMJodpJFmfmh5WEMjiBrKixTLM/zHh0NcQ2HUTiSjiAn07RzkT84gpxMZ0httzAZADFjTWRxzrMosyPIGTMMS+LmQXctQeM36zCKT5Btz41r3yGg48vivaSXcmzdwpTyCbIgXhbnPIsy6ywqFqa3Ik3mYX5sAeewUSPrMHIEWa0lrkRaEHApFmmZCSeHcQSy6IyyKLMjyMZVN5MN5kF3bQPvMHIE2baOufbNISAkyCdOnDhrrgvXkkPAIeAQcAg4BBwCDgGHgEMgWwjwD9e4FItszZ+TVoJAFqM1WZTZRZCdCWIE8qC7tmfSYeQiyLZ1zLVvDgGXYmEOS9dSyhDIojPKosyOIKdM8SskTh501zZ0DiNHkG3rmGvfHAKOIJvD0rWUMgSy6IyyKLMjyClT/AqJkwfdtQ2dw8gRZNs65to3h4AjyOawdC2lDIEsOiNdmdP8kEAexiBTZd2xpcwUyiJO3rCxYWO6GNnouyxKkLATXXwSduOqOwS0EDBGkKVPI2uJYb+QyvDI08mjW+C/Zm6DY+hZYfKDntLGT0Wv/+R7QJ+ANiFpOfsyIS/bhurZav6Za9P9R2lPNee4LfbpWPo4C37Sd9SCPcGu+s4mT43/fsGN/tPqS3d1QeuUPlFEUpbVlrnjYxjb92X4PNJX/Ax2mn7yMIa4BJnaNn6K3v/p898hjq7YvADfhr7ozDvuF4+rcfwRmPtOB1T17kVEET01HWaHuJ6oHX5csjKqurLnnv2nhE+PhubWDljbMjwSlDoYuaemL4qEqU5hbVtCPv/Jta/BNc11EMmXxa2nI3zGymhjXcZxyZ6yV4lghCBTp9DvB0fg54ujLRgqAU39XbUwkUlF77xDr2mwuWsxMQ46rndHroSujX1hduNp/28q0hgmt6ovU2RcR1F1yqjGGrUNU3Oqakc15/jVoet2DITd7S1wWa8e8jF0cuG7JaQXj6/uvv7w5Dc6YcjKAeRjCb9P3zh+Z8DJq+TR+btK5gDWRObZ0O+hTpg1tLdO82Upk4cxJCHINdxzuK8+twDm3TtQuHYo14kMPa2rmncacLjr4PsAhQ9OTHSxHerYFbXDfe0jiK3y7QSwLAQ3SsrIfs9UltnYree3QfWYI7DyJfTf3vuhsXolTOjsjmR7KoyyYN82FxEVPlH6ZrG8pOdh4O1S1BbWxek7T8Pp3wyJZK+4Xv0rTaH8J8xPpsWH6sihKqP6e5Q5NFFWd30R9ZWcIJMFZzYcH3QefHDVumwTZOSM6r78LHxp4X6y6OkaS1SFoOXj9BVFYaLKpdN23iLI7JhxxGrFmQdLdBh/fZ5q3gej9tcF/o7Lb738GaNRZJWDIKR+5w3+LgfeuXl50utGZdDRg7AyeRiDSYIMZ/dDw6XbIn9M2bDfpHObZN79uhwevN3J7Iraof8xqIOrrExIXZmNrRjWESBZcWwvz7ZhQrdU+ETpIzJBJlymFcau+wrcc5s4GCbsv1Bv/N52f0ckipy4bFps3YQcJtqIip92+QJf1Q0qJSbIHom8Ae4f+YiQXGgLbrmgyvDopD7yd+/A8tfmEZKEF+QPJk2FJ9Z8Cps2FCPIJ9ZN9rbg0dbpgtZl8KVnbyPRjH5Va+Chb+yHu1+5PZTAqPrCEWz8xdvUeDc82v0BsNhoGwAAIABJREFU9Bs3B7Z1d8CYt4JfwbQdItuco1A3ogeWPfI8kWvpzo3wubXX+3LhqOcX998JNTPbgGz/FrZ96aIvbEOQQqAiyFK5Zx2Bwb2fDoyHbq/amnrVnIsiTnwEmR0vxo9GunDE+b7v1sDhK581+lGokllEJkSk3hamOu3mYQwmCTIbQRbZh5cusAfZez2xD2q/K4Z3FglZrwMwa8KP4OKWdmidOlRnGspeRjXvMoLMRnhkdiV0upYIstTGWj7j79jcev5+NF+7YM7BaKRIhVEW7NumYoXh4+28iv0I1qGAb+P8H9kB5n0k59+8KHANjH5ubsBvymyW4kCjx1undRH5hg17Ezo6umD6A0/D2Dd+Ass2fkL8MWvPUTnEi399Bxx58lVp23hNwPikgTMQToFwCPCRAtZSGRX8gM59KLYaHAO3g3eBHvhDMb0r6ke//j3IaIGaNWE7WSQuXD85FwS5SIRHwg9vOAZ/3+4RY/b3ywdsJ9EgTFi9LbdR/hcnNiZ/As47IIwcBYgtSdsI9rW5azpsvglt9y9AOa5I8fGi2XBsHvxq6XuBCAbbTv2YLXD94xtIeWywk1YNCJB6Pp+KlwGPT9QGTTehSkQUDOVqB3Is0R/xx8GhbrncGJOmQ20kMk/H4+d6W1pxVc6Ijx7Xbq8pyTXno1k0lwl/tNQOf9P4rolK5iw40DyMIQlB5u0D68pjG9vgxiFve2k8nF0fK6QMvD+5k+S0YrKMt++va7ul8HE+AlbPXQ3V6OM3Tak0PEaqeZcRZPx7lV0Jo8rlJsgoaOI5apSKh37GLemMvHOjwigL9m1puSbNqgiyjh8p9a9ewKn6q0+U+EjfvzFR4EAgiqbe8TYbOKfUCjh6TPgA6qPpl91A0nGYf+P0jiQcoqFzFNw1dou07TRxBjmXiM8PCO9QYFt/7dFQjkHPNNCzRjp6nCiCzBqzbHtaR4hylFEtTMUIBZ7EVvjKor+A//nUjfDPBVJaVG5vkh/++EqYcfMSmD9lMlzeq0249bb8gu8FtsNZkunlQ6n6KuZCBw0s/u+bGreiKNULRBRMamluNRshp/nXopytsAiyrA3dtk3rgWrOaX9Yd5t31JTmnDEfgKJot42DqSqZs+BA8zCGJASZtRtMdtfMuxflth8Afote5MjZD1nqFPpc/Sr8ceijxcPDpg3FUHuqeQ8jyKwIJXYls0OOION6M9f3wNWNTzEHrSXpLSF1H+d2Q6nNkQghzQmPmf+vwigL9m1IXYTNqAhy0LbQx0phPrwor9i30R1ZWV1sc2wOcVhqBu//dOrR/OckHIINjrH51KVtx+cGMo4RlTNE5QE6/EA2J6rx8wE+eg5CdNZIpJDxCTJ72IFpOQo7t2loUaMb7ATg7Y/m7adIhCCQgsAc0sOO78cP3g/LHrsC9h+9JpCzRHPYll+wluSu8lGf6H15C0EixUNbtA3974Fr2zfA7XXedgzbpo6SYkzzRpCxQxJFjvFYQz/6Cvqva2i6uq5yoC4HWRdJO+VU8yOyDzpnYTtAogPAdDtw5UtL4PD8auEBUjujjNeqChstgiywK6kdWoogy2zsW29PLTmDEDW9SYVRFuw7nnbo1YpHkEfC8ktXSH2bkiCTjx0vCkxvR2GJt5RYa9aTkzh9DoEj0iKZVASxEpwhUZ+FyxH44Jwxgqzy65yaxifIXEP5iSAXtmMKeSp0uyWwPYKMkZxevgpvmc6GLyy8mWyFFrdrcOrJ38K+Py8VXg/HTzZNyShu7Yi3Io61f5akbEw46KUq0NxGLYXEBJmpi68rqt12hdEIctg2j87WmN4Sql9K5YxC85EEyfzsrRenUBrLiBkfkavfTOZS68icNIqlj2C8knkYg6kIMmmHErnjy6B7UlXkFAvq4KPkzsWbuWS1VPMuI8ihdhV2qMYSQQ585DCR4pnHWwJnEGS33oShqMJI1neaU2uSaU2wtoogC/0I5xd536YiyPhsCXsDRekcCNKiUIoFf3OFPonzCH0UDiGKGgfHlR7OIA+2JUuxUH0gyFIsaErn7rapobdVifTYEeQCKqLID/6TaBv0xPo7YN73N5I8XBIxb3kPEeV6uOtQrU+YwrbfVX2VHNIj+b3e1ol/Nyg6ZHfbd74M//76EGlkGec2b76pwZfrwoeLcldVVUEPTDNMkLnDhQW5iXGjvL3BvV/3Dukx4zG5uPJtqZwR3ZJl69EdELxDsG73p7Bo0ZRAs3HvU9Qdp0pm3E7a70nNwxjMEmTvph98chpHgvyDNIwdKA/pFWxfttuhq182y+nMe+CDQXEPsrf+iu1Q1k7J+GLcYhFmY+y96RNRKkfUO8h1MEq7fVdKh2j+t8iP+PdTI59Mfduh7qL/43d5+ZTKwA0USGdYf44DVyU2y0WPWa7AE3JRlDcqh1CR7zRxhrDd6MCBRx1+ULBfnINNbxaRppjM2SrmGOgje8cdc/33C6LcX26MINs0GhNt6yxMJvqhCzc9vGgyumhMvjI3JPsgsC1GWefc0GB0ZU7zS1t5GENcgmxIDTLZjO68Z2VwNmxMFyMbfWcBd1UEWecu4yyMUymj4vyLsn6GCpjgBybaEEHmCLJhRcLbLhdOWutFllP6aIrhISubs6W8qo51nZGqnXL+PYsy8/jkYQyOIEfX+jzPe3Q0xDUcRuFIOoIMJHXjXOIQJviBiTYcQb7I/BOWphZO1455BLLojLIosyPI5nU3iy3mQXdt4+4wik+Qbc+Na98hoOPL9O9BzhCebmHK0GQZEjWLc55FmXUWFUNTWvFm8jA/tkB02KiRdRg5gqzWElciLQi4FIu0zISTwzgCWXRGWZTZEWTjqpvJBvOgu7aBdxg5gmxbx1z75hAQEuQTJ06cNdeFa8kh4BBwCDgEHAIOAYeAQ8AhkC0ELuJSc12KRbbmz0krQSCL0ZosyuwiyM4EMQJ50F3bM+kwchFk2zrm2jeHgEuxMIelayllCGTRGWVRZkeQU6b4FRInD7prGzqHkSPItnXMtW8OAUeQzWHpWkoZAll0RlmU2RHklCl+hcTJg+7ahs5h5AiybR1z7ZtDwBFkc1i6llKGQBadka7MaX5IQHcMKVMXLXHyPDYtAEIKpRGbtNmJLkZpkzupbujW18VHtz1XziGQBIFkBBk/A9h/Bvzs9yc9GdDzx5uO/QLS+G68juGxz1X2H1cF/9eSDmidOjQJvpHqhj1BXT26hTxtTXFeuqsLWqf0idT+uVZYZ87Zp2P9x11C9FpY3iCw2jJ3fAxj+74Mn5+5LfJztwbFFTalMwZcEet74/gjMJd5cti2bEnbV40Njylgq4V1MY692rr8PikGsvoqbGg90byLnnD/9U+/DqMW7Al213c2vPCnb0L7wG8o/Y7syWYdG1aVwc/Ubxm0O/JjUDoYuaemzb9XoG1L6FniJ9e+Btc018Fl6Hl37Z+49bQ70CuoPU695hKVEtl0ogYrUDk5Qb50WyYcnGphwotx7fYaeGzDIrjxqt7Iee+BxuqVMKGzW5vwJ1XOMILMPrFJy/FvnldAf1LdpWrO8YtF1+0YCLvbW+CyXj2wauI4OLnwXWit64IGgV5Lyxv8UFHJHNARIvNs6PdQp7aOlmPCVGMA5Eww1ncdfB8AE56TGyArT7Krxiay4VefWwDz7h0Im7sWR3K6SdeTcsw124cKG9m8Y7sasnIAHOpeDJf07EUfTTuFPgXjUXdff9jX/lmhfbKyyOxk5vEWsc0zNqyyc/oR1O8HR4wT5CzYt029UupQhM5ZLC/peRh0nqnGcz9952k4/ZshkewV16t/pSmyPvDDSWrzqvqqv0eAN7Sork2b6s9WO4kIcrnANjH4UMMjDjs50UiKhy5BBhzhzMiHiYm5i9tG1MUWfyStOPMgbJ3WpbWY0vImnxRXyUyc984b4FjHNAILjmS9POn1VO0mqMbgz2cG9Vg1NqENxxxn0vUkrt3ErafCRjbvvB3h/996+TMlOo0jUqea98Gt57cp7VPXTnRsOFCm4CuODzoPPrhqXWRCpMJIV+64c5T2eip8osgfmSCTuW2Fseu+AvfcdlqfIBfqjd/bnvhDP6nNJ60fBV/tsob4lXZ/BgsmJsjVX30C+lz9Krz44ofgb1EbFNBUU2GGF6ZU/N/Y/z+xbrK3BYhSSxa0LoMvPXsbiYr1q1pDoiFf3H8n1Mxs81IjUBm8zbpiWAfUzDoCw4a9CR2bB8H+o9fAPzX9EB7t/gCqqqqgB6aRuuz2Di8DjUixEWT8hdzUeDdpp9+4ObByQ1uqooqm5jFKO5EW20JUE0eQ8Rwp9ZopbzLVRSWziExgUm+SpEfBWFRWNYZzjSCzEWTeTrd1dxCninesmhrrif2StWLnRlgxvLNIBHsdgFkTfgQXt7SXNe0rii7EnXc22oR3cu77bg0cvvLZgE7zZEdln1p2omPDXBkvwngD3D/yEfIxHdXuVBhpyR1lUjJWVumnke8c3Ptp389R+8HzEvC1yH4+t/Z63x93bewLs+cchboRPbDsked9f8yu3V4UuAZGPzc34MdlNkuhZaPHSjtGaRvl4BB0vDxWY94qRtJVnIHISblKRxfid0/D2Dd+Ass2flJcnyTzwaod2XEZcwQe+IO31mXpJzFBxtsWd3csgure+8kCf/Hi36UqmkUnQ2l4aByiLVA5QR4JywdsJ1uBWOmwAqx8aZT0y5NNi6gfswUaNm+A22v7eNv6C1A+Mcp1xo70ptUDhQSZzWukBLgYSZkOm28qRsBT+RVZAatQOSNWJJpi423zeotImF6z5SPlqilwUMmcBQeqGkPeCTKfg4zt9bGNbXDjkLcD9o7nsuHYPDjWPoL8/v3JnbC2Zbif3nVd2y3wxJpPYdOGEbB67mqoRo49jec7dNbYgNoLIuo0XxFjVTv8zZLoLBtVpuubyj5ZAiuKFOvYcKAM+UjZDnMOtsOF6yc7gmxhTVf5aexnmw55wR/ffgq7aVQcUQoiXtPxR9X1j28gvhaT2kmrBhR9PhMFZkmkn3pX8NElfbLR4/O8ND2ZHVN+UfTP9jgEJsj11x4twepXS98rfHSrOQMhtgizpl92k10b9t/YP+IAnagPuruJ54OeI0hz8DRMjRMRZL5hne0qCzal1aTK8GT5SXKCjBVsHDz88ZUw4+YlMH/KZLi8V3DrD9dtatyKvnZfIDLiyDL5smv0tm/4vCjtFIvCiAOk+2uLi4f48N9TfGBSa8IMFNIlalhvm3fUSLfURKQ0rHwS0VUyO4KcBN3kdVXzU7pe7IE18+5Fue0HvN0j5kNc5Mj5nSMaKf3j0Ef9tJrko7DTggob3Q+jkgNwiFBTYiqKQFGb+HbPFJi5vgeubnwKHucivCobxn3SutTB8+sC20ZcX6fCKAv2bUd7vFaj+Gl+VyGJrw1GgVHktGCnKh8tqxe2A1yU2x6H4M8n8WsNIbcKziBLUaGYyPooCTTq7NTYVKoEbTuCjMELyZEJS7HARoC3VH784P2w7LErSLqEn7uEog0N/e+Ba9tRpLhuqL+twqdFiBwmr2Aq4ky/5LK4hZFAd5VVVc6IfuHiw5l8WgvbOO8YVeWVgoUUUMmchRxF1Rh0iVISHG3VVY1NZKt0zorRGy+FSosgk52pJXB4frV3gNTggVDTGKmw0Zp3gTNVkVHR38PsJHLkGN9mwB4sZYCLGhlTYZQF+zatN2x78QgyisReuiK+ryWHnVuB5hCH5S4H7Duknh5BpuuAeQ6hRZBRhDmMMxgjyGiCVTZsU6eStJ2IINPtht1tU73TxxFvfUgieNS6qoWJLpqlt1h8H56v2QUTDnrbOsV8Qs8oyS0XV+Gt09nwhYU3ky1RQnAxQUYH6Wg9fIVc7bYrAhFk0faNiHypCPLmLu9LtLi1U/wCNrn9HxXzSpdXzbksN0qm12SbyXIulY7M/kdVVm+xoIoR8/BaJfUq0vzQa6LoOI8vg+5JVX5KlW6KBd1tsq17SXFVYSMjyOytEafQ1veIGR8VbzYRBC90/E4pkfFS0HRsWCdnMq7DV2EkkzvNqTVJ9SYKQRamWBRuNQnztWGRYHxWiL2BonQOimmQbIpFyc0VhY8oPsViQmf5OYReikU4Z9AhyLIUC9ZGAzdEpfgDX6THiQgy/qreccdctDXVSbb0m1s7SA5dGn9UCxOJJiISO+/7G4uH6lCiP85Xonk0eIy3fefL8O+ve1fAnFh/h1+eRBJa3kNEuR7uOlRLFvgLHy7+nR7AY1MsaBSJ5ixObByPrpepK9nqVxNk73okesjHHdLzNFA153RbldVXbx4/I9RrafnF5nReJTOWNe33pOqMgWB+zhDk4i05mKD5h2kLh3npTlToIT1EtnUin5Vce5PMu+zOVLxDt273p7Bo0ZTi0DT9jshOdGxYp4wtgpwF+7apY8oI8qwt6JDe694hPcZ+WN9dPOw+EgWOGog/DuzuBg7K4eBSMXpM1yXWj+Oc5BKb5aLHFBPRIb1KcAgSQZ6ztQQr9kNByhkK63JDZ/FMVbCed0ZH1gcJymnaqE1dMtF2MoJsQoIytaG9eJdJHteNfQSyOOe6Mqf5pS3dMdjXAPM95HlsSdFKIzZpsxNdjNImd1Ld0K2vJMiSw/S67Z8r5cpxUL8cfVR6vhxBrvQMuP6tIaDrjKwJEKPhLMrMDzMPY5BNXZ7HFkNdA1UcNmoEHUbhGDmCrNYhnRLlIK/l6ENnrDbLOIJsE13XdkURyKIzyqLMjiBXVM1T03kedNc2mA6j+ATZ9ty49h0COr6s11n0gwvmyZjzNBanxnoIZHHOsyizzqKiN2PpL5WH+bGFssNGjazDyBFktZa4EmlBwEWQ0zITTg7jCGTRGWVRZkeQjatuJhvMg+7aBt5h5AiybR1z7ZtDQEiQT5w4QSLI7sch4BBwCDgEHAIOAYeAQ8AhcC4icNFFFwWG7VIszkUtyOGYsxityaLMLoKcQ+OJMaQ86G6MYUeq4jByEeRICuMKVxQBl2JRUfhd5zYRyKIzyqLMjiDb1OLstJ0H3bWNtsPIEWTbOubaN4eAI8jmsHQtpQyBLDqjLMrsCHLKFL9C4uRBd21D5zByBNm2jrn2zSHgCLI5LF1LKUMgi85IV+Y0PySgO4aUqYuWOHkemxYAIYXSiE3a7EQXo7TJnVQ3dOvr4qPbnivnEEiCQGKCjN8jr5nZRp5nntj4FOzrmJZEHmt1VYYnel4UC9N/XBVccd60kuefdQXFl2nTp6T9OujJ6qW7uqA1Y++S6445LeVUc47llD1xK/u9/6Tp6dFWnlbXlrnjYxjb92X4/MxtqbM5nTFg7LFtNI4/AnPf6YCq3uh50gz8qMZm0t6zdhG/Chs6vaJ5F9kbfs551II9Qa3oOxte+NM3oX3gN+Bnvz/p/Q2tp5uO/QJmDe0dKCt7kt3vC5UmT8sLnopXlcH+Ysug3cK6YWqsg1Han5K3aaY6+MTpX9uW0BPJT659Da5prgPyZLLuD1dPuz/d9lNUTuYbUySiMVGSEWT8Znf/GdCv7X9Ba907cN93a+BE7W9TSfy0Da/wDjl12kkVXVT/1ecWwLx7B8Ym3cZmP+cNqeYcf9wNWTkADnUvBvwufeP4nYSsjTpwp/D3Y956GKrHHIGVL7VBde/90Fi9EiZ0dpc45iSwqmQO6FOvHlg1cTb0e6jTqAxJ5Md1VWMA5ExWTRwHdx18HwATnpMbckWQa7jncOPae9K1J+k8Rq0fd95ldsh/NGE86u7rD/vaPwsNl24L/bCS2cnM4y1w3Y6BsLu9BS4j9jMOTi58N+CzsDxhZehHUL8fHDFOkLNg31H1Ikp5pQ5FaIzF8pKeh4G3S1FTeO6n7zwNp38zJJJ/5uvp9hdhOKkoqmurqRDWgBCJCDILVqSvLQOCR21C2/DKQJCB6yPqWFx5PQS05xw3R0ibgGwyv7/1/LbAIoujSC9Pet3oB6FKZuK8d94Axwo7NTZk0ENXXko1Br9mBu1ANTYhqY05ztwRZDrxHB44UrzizIM+2cT/v/XyZ0rsCkeuTjXvA94OZURHx074vkVtBcoU1oPjg86DD65aZ5wgZ8G+k64PYfVV9hWl78gEmcxtK4xd9xW457bT+gRZUC+vBDmAv8xnRpmklJdNRJDxwtFwbJ7vrNM8Vm3DExHkWUegbkQPLHvkebKdR9MjsAE2Nd4Nj3Z/AP3GzYGVG9pKInmqCDI2JLaNbd1ou/m8Aygyf48fnSQRCxS5fOAPHYCjmHyfxGEgGYcNexM6Ng/KVETOps5ozzkSgsWYjVwFfn9eMWJ76/n70TzsgjkH241GP1Uyi8gESy5s4qnbtmoM5xpBZiPIQntH6SVn3tiD9KmerCVkjdm5EVYM7yx+kPU6ALMm/AgubmmH1qlDdaeirOXiznsg0IKiungn8vCVzwbIJ092qr/6BPS5+lV48cUPhWkSWnZS2MngI8ilJKAYZfYihTfA/SMfCZB6XaBVGGnJrdtZBsuF4UN0APm5wb2f9n0u8ZfIfthUT2o/n1t7Pdml6le1Bro29oXZc44K/TiFCbdR/0oNjH5url/P210U+GgmJUxUL6w/EW/gffj+o9fAPzX9MDhOQ7yA4kj4QkcXsp+nYewbP4FlGz8prjsSnFmVkvnMDKqdVOTEBHnJsQHQ/7dPkonMcg6yzGkTJUCL8fWPbyCOCRvDpFUD0NfldNh8UzHiKIv2iHISMZl+bGMb3DjkbW+LbwHKR0Ztsx8cbI6b//v2EYEoJ+1z04a+UD9mCzRs3gC316XTeVbCaFTOiMpEcx35fETR773FZQupOm5Jp9HoMW5TJXMWHKhqDHknyPyZA6W9E7seB+9P7oS1LcMJWcbpO9e13QJPrPkUNm0YAavnroZq9IHO59lWwq5kfSaZd5rXiLGqHf5mSXSWjSrTde/ujkUk1Ql/WFy8+HcBW9SxE1ymdnsNSbGS7YAGypCPlO3ko/jC9ZMdQbagfCqCjANFTYe8QJQsQMf6xdmNXiQYk1yxHy/MfSEKPH5vOwlC+ekYNA1H4KPJ8CX15P2JeUPAh9f2scoLKKdp+mU32Y3BuNB/43ETWa49GoqzzGdaUImKNpmYIDf8642h+VwVHR3TedzFmye+AVL6tcXkcKL/IzgsUlp/D6yZdy/KezsAK4Z1BLbsxVtCRYMiyjy6paTP9btmEkeKF4K0p7qUUx+059xf6ErzEWm+LI4yBebLUv6vSmYdx19OjEV9qcaQd4LM5jpisquyd+yQqCNn7Zc6Mhwp/ePQR1O/U2dq3ksOwKFdPUpMRYc5qU18u2cKzFzfA1ejw+KPcxFekd0076jx10x6SBvXpelLuA5bhm1DJzUjjm1kwb5tri8qghy0LRSsKOT7e1HerShQ9wIRz48aMwRZVhfbnBcFbiK7FmGpGbw/j1qPkE8Bb2B9OJ+eYZoXyMZH++XXI2mql84OjE1lKUPbiQgyqxxY1riLRhnGqYzMyZx2KEFGX1k47SHsBL5IuWie2a+WviclyN4BEhSh/uktsKnp4+JXcCHVgk8D0DmAUA6c09SHtsMuCC3TX/r7H1ywuCRX0nR6g0rmLOQoqsZwLhFkPFaVvYcSZHIodAkcnl9dcpgsTbaGZTEy7wKnq/Iror+H2UnkyDG+zYA9WMoAL7sFQzY3KoyyYN829S4eQR4Jyy9dAde2ezuosgiylCATX9sKOHqM/ao2QY5Rj0Zned4Qrc9kvMAYQU455zOhp4kIMj1s1tDJpAtwJ4JNCGmiDdXCFJUgeykW7LZo8WuWjwKVkFea53x8GXRPqhKmWNAPjubtp+Cv/qbNy8crLNLFrVivT5mDNYFblttQzTndotvdNjVwov1bb08lufX875df8D3/dgvZCfikeKlkDnxwWYpi2x7DuUaQ/UO5MntXpFj4W8SCj+Okc2Wyvkp3ZfPO3hpxCkXyRsz4qHiOQnAQiLVbcvuM4DYZmZ2QXTgFjjq5lSrSHpcgZ8G+TeoM35aKIAtTLAq3mkw4WEi9eGg+1G67wss71oggf3H/nX70GMtTOgfiNEg+QKhHcsW8IeDDFWkdZGcjAS/QIciyFAuZz8zrlbXJCHIhOpKHe5CjE2TvajB6sCbKIT32xgS8YPuH7tBhAjYfjs0VormH7GEe2qfOqW6bi1pa21Y6bOR8d9wxF23LdpKDUc2tHSQHFM+P8PdooOz9qDZy7pUyUxlycA9yFm9zUc2PcDuSuwlFZO/KQ3ooiqkT+aykLaqwCfswkt2tinFZt/tTWLRoSnFoIfbJjl90n7Dovns+CqxTxhZBxvK7e5AvEqoxPf8xuPfr3uE1xl/699OjlMeqqirogWnIl45EQawGuOtQLeBDb+zNFEU7xYS1GD0mHaMA1qqJ9aQevoIycDCe9slFj/l68v7EvIH34Vg+47ygEJhr6BzlY8GmcwRSLOZsRYchS3EO842VXHts9Z2YINsSzHS72ou36Y5dexVDIItzritzml/a0h1DxRQjQcd5HlsCWEjVNGKTNjvRxShtcifVDd36qgiySyXURTJ+OWnOcfwmM1vTEeTMTp0TXIWArjNStVPOv2dRZh6fPIxBNud5HltSPXfYqBF0GIVj5AiyWodsl3AEuYiwI8i2tc21XzEEsuiMsiizI8gVU/FUdZwH3bUNqMMoPkG2PTeufYeAji/rdRb94IJ5MuY8jcWpsR4CWZzzLMqss6jozVj6S+Vhfmyh7LBRI+swcgRZrSWuRFoQcBHktMyEk8M4All0RlmU2RFk46qbyQbzoLu2gXcYOYJsW8dc++YQEBLkEydOkAiy+3EIOAQcAg4Bh4BDwCHgEHAInIsIXHRR8FYVl2JxLmpBDsecxWhNFmV2EeQcGk+MIeVBd2MMO1IVh5GLIEdSGFe4ogi4FIuKwu86t4lAFp1RFmV2BNmmFmen7Tzorm20HUaOINvWMde+OQQllRU9AAAgAElEQVQcQTaHpWspZQhk0RllUWZHkFOm+BUSJw+6axs6h5EjyLZ1zLVvDgFHkM1h6VpKGQJZdEa6Mqf5IQHdMaRMXbTEyfPYtAAIKZRGbNJmJ7oYpU3upLqhW18XH932XDmHQBIEEhFk/NzmqAV7gv33nU2eZ6zq3SuJXMbrqgyv5HJs8jzsOHj5653w88Xo+WGNH3fBtgZIZSyimnPy1HH/GfCz35/0pELPTW869gsoPuu9HhrHH4G573T4+sw+Nc0/UWtiaEqZUSdpf4pWZwwYK2wvPL4mMLTZhmps5Hn40S1wGD156/8gvVq6qwtap/SJJFrW1hMVNnTwonkXPTUt9S9/+ia0D/yG1G5pPzI70bFhVRn8HPWWQbu1fQOVSQejtNt3JCWOWFgHn4hNkuLatoT8/pNrX4NrmuvgMvS8u/ZP4fnzO499HT1xvThaXaYTbTm1BTNTUPYUvJnW09tKIoLMDwtPbt19/WFfx7TUjVhleLxi4gXwR2f+AY5FGEtc5Y5bL3Ugp0wg1ZwTgnzptgABJkMofBzddfB9AOaD76O9C+G6HQNhd3sLXNarh3xAnVz4bmTiEwaTSuaArhAZZkO/hzp9Up+GKVCNQYZvGmRXyaAam8iWX31uAcy7dyBs7ormOLO2LqiwCbOrISsHEGJxSc9e9NG0s9QmCySH+Jf2z4rtVkY0GDuZebxFacMqO6cfQf1+cMQ4Qc6CfatsJMnflToUoXEWy0t6HgadZ6rx3E/feRpO/2ZIJHuNW0/EoXTkNFVPB048Nh371Gkra2WMEmT8lXGqeV+qnDWdEJXhscZ0Yt1kqN1eE/lLMGsOLWvKGlXeKHMujBbICHRBEBzhWnHmwchOMglBJs575w3+hxv+kHt50utGSXpUnPnyKtz98gp8k8pho75qbMI1IOY4s7aeqLCRzTtvR/j/t17+TIlOU/9y6/ltSrKjayc6NhwoQz6eZ8PxQefBB1eti2z7Kox05bah22loU4VPFBkjE2Qyt60wdt1X4J7bTusT5Lj1BINJvc0X9D9tQZkoehGlrDGCnPaJVRkelf+Rv3sHRsz4KJAmghetmplt3rYps13qbwGi3zW3dsADU7ugZtYRqBvRA8seed4vu2JYB/n9sGFvQkdHF0x/4GkY+8ZPYNnGT2Dpzo2wYngnWfA3begLs+cc9cptHpTKVJUoylXpsjpzXv3VJ6DP1a/Ciy9+iObl1aDDCyM2hShzuSPIIjJhmqQnnTcV7ucaQWYjyDiS1dR4Nzza/QH0GzcHtnV76Ttn3tiDfl9Pfk/WGGZdIJHnXgdg1oQfwcUt7dA6dWjSKbJSP+68sxEqvDNz33dr4PCVzwZskSc7oXaLRqdlJzo2zJXxIoU3wP0jH4n1cazCSEtuK7OXjkbD8CE6gPzo4N5Pl9hPiY9G9vO5tdcD3gXsV7UGujZ6vpX3zWzaE26j/pUaGP3cXL+et6shtlmKmFevCbZOQ/4f+XGRvVaaQ1DsQjmIBFtWM8juyZgj8MAfimmH6dAcO1IYI8iyr347YkdvVbUw0W2z/7j6a3Dpv/2/cP3mk8KoXHGhHgnLB2wnW4Fj3nqYKM3Kl0bBXWO3wPWPbyBODBvFpFUDCPGtH7MFmn7ZDTj6gRd3+m+fGDee9ss1bN4At9el0wlGR75yNXTmHON/d8ciqO69nxCUixf/rjjvIQQZ63ucXQYVGiqZs+BAVWPIO0Hmc5AxEX5sYxvcOORtLy1nAcpHRusDnsuGY/PgWPsI8vv3J3fC2pbhhCw3Vq+E69pugSfWfIrWhRGweu5qqEYf3TQ/XqVHlfh7knmnOY4Yq9rhb5ZEZ1n/Qtdgqd1qEmQdGw6UIR8p22HOwXa4cP1kR5AtKJmKIGM/23SojdiBbz9cGiTVDxJwQn4VE1ZMcrHf5X2zn/ZUiAKP39tO/HmR6BZS6XibpX0K6qnstRIcgvAbhneIOEj9tUdDsaUBQRtnbyyokpEmzRBkRCTowpG2w3kUJdXizSoQzlOjOTd46x3/ralxK/pqfYE0h79ID3VPh803jYOHP74SZty8BOZPmQyX9wpu/ckMlRofzYuihswadKQDAkZUIX+NqOacH3HJdquEIONyzTtq9LfgIkCrktkR5AhgWiiqmh9+Jw2T3TXz7kW56geA7CTRCFNhXWE/kPkcZbom4R2OPw59NNJ5CAtDVzapwkb3w6jkAJzCv1Cb+HbPFJi5vgeubnwKHucivCK7YW0Y90nr0nMnvJ2zbeikZogAU2GUBftWKkKCAiqCLLIfSoB5H02ixgxBltXFvpZGgfGB/LDUDN6++Xp0Z4O310pzCNmYeA5C1yBpRoDOrkuC+U9bVSMEOe5iUU4wVAtT6eGIwg0WLe+hmw7ugWvbvaiuyAH++MH7YdljV8D+o9cEcpccQS7nDJf2pZrzOARZJ+qUZNQqmbOQo6gagy5RSoKjrbqqsYkcC52zXy19LzpBJjtTS+Dw/GrjB0JNY6TCRmveBQ5Y5V9Efw+zEx0bLinDHtxlgIsaTVNhlAX7Nq03bHvxCDLazb10RYmP5iPIUoJMDnG2Ao4ee+lOKJWj8CHLH+4r5QnBet5OMmev5LakynIIYwQZTZbKHm3qR7nbTk6QM5K0rVqYSokv3ZL4PjxfswsmHCxs6zw0H2q3XYEiyJ5RTujshllX4a3T2fCFhTeTLVH+K0xmqC6CbFfdVXNOt+h2t031Ts+jbW0yn2j7jvxwEeRy5F+pZC5doDN4iwWd9piH1+xqTXjrkeaHXhNFx3l8GXRPqoqcYuFvEac890+FjYwgs7dGnEJpaYEzIAL/orRb1JHMTkiKmwJHHTuPSxJUGGXBvm3an4ogC1MsCrea8D5aN4L8xf13khxiep2rKFhWkhaFUizY6DHGhCehvp6dd4DculJJDqFDkGUpFqy92bq9yaZOJWk7MUHGW4jrdn8KixZNSSKH9bqRFqaCY6OK8fj/uQ/mfX8jOaRXVVUFPTCN3HBxYv0d/u9xJCGQpC/ZQmW/SB1BtjvtqjnH107tuGMu2lrtJAej8EFLnAMqc+R0G5aVOmoESTVipcyogbTfk6ozBtEHiAqbNPxdNTbh1iRD8jBB8w/pkVQt7+o35SE9VEYn8llJjFTYyOwK/152z6rQv6jsttCRyE50bFinjC2C7GPR8TGM7fsyfH7mtlRem2pLz1QEuWbWFnRI73XvkB5jP79GgatSHz0SpUE2wF2HaqW7u5u7cKpkMQpM16VVE+tJPfymA85JLrFZLurME2Rs06y9slyhrByi8HHe0DnK392WcpA5W4XYKv2kLWVIQbuJCXIKxqAlgvbirdWaK5QFBLI457oyp/mlLd0xZEGHeBnzPLak85FGbNJmJ7oYpU3upLqhW19JkJkcft02XTk1AtKcY3XVXJdwBDnX03tuD07XGaUJpSzKfC6RyDzMjy19d9iokXUYhWPkCLJah2yUcARZjKojyDa0zbWZCgSy6IyyKLMjyKlQ94oLkQfdtQ2iwyg+QbY9N659h4COL+t1Fv3ggnky5jyNxamxHgJZnPMsyqyzqOjNWPpL5WF+bKHssFEj6zByBFmtJa5EWhBwEeS0zISTwzgCWXRGWZTZEWTjqpvJBvOgu7aBdxg5gmxbx1z75hAQEuQTJ06QCLL7cQg4BBwCDgGHgEPAIeAQcAiciwhcdNFFgWG7FItzUQtyOOYsRmuyKLOLIOfQeGIMKQ+6G2PYkao4jFwEOZLCuMIVRcClWFQUfte5TQSy6IyyKLMjyDa1ODtt50F3baPtMHIE2baOufbNIeAIsjksXUspQyCLziiLMjuCnDLFr5A4edBd29A5jBxBtq1jrn1zCDiCbA5L11LKEMiiM9KVOc0PCeiOIWXqoiVOnsemBUBIoTRikzY70cUobXIn1Q3d+rr46LbnyjkEkiCQmCD7TzyeHl36VG8SyQzXVRle1Iuycfnq0S3wX+gp0GPoXXbyQ56UHQfrP/me/4Rs2DBET5ri8lc3PlVs0zAObHP0edelz5yB1il9/D/RseGntckPeoZ56c6N0Dp1qEVpzDetmnPc40d7F0LNzDbyjPhEhPu+wlzKfm9b33VkzstT01jPGscfgbnvdEBV717mFcBCi6r54W2n37g5sHJDG+AnpmssvQJWYq/UZnd1BexaB46o6yDbpgobWlY076KnpvFTvaMW7AmK3Xc2vPCnb0L7wG/Az35/0l+fNh37Bcwa2jtQVmYnfl+otOypeFUZvHZvGbQbfr6YeZpeA2AdjNJu3xrDjF1EB584jWvrNfLhT659Da5priNPwGv/xK2n3YHdgmFcwNa6ZWJEsifqTbSN20hEkMnCPOYIrHypDap774fG6pUwobO7ZKEyJWySdlSGp21ABSFIefQuPPSaBpu7FhNjoo7q3ZErtQiyP57Ce+mUKESVJRYuXJ9sG3z/Z97YA2vmfQde/nqn0CGURd4Yg1TNOWAM+s+Afm3/C1rr3oH7vlsDJ2p/i/7dJfz9imEd1vVdJXMA61496INsNvR7qDNVNqcaA/2QvOvg+wCY8JzckC+CjNbEB/7gkf6P9v4UJq36BDZt6AuzG0/7a0UMdZZWEdnfq88tgHn3DozcXxJbjjvv+GN0yMoBZM28pGcv+mjaKfxowrLV3dcf9rV/Fhou3Rb6YSWzk5nHW+C6HQNhd3sLXEbsZxycXPhu4EMCyxNWhq7z/X5wxDhBzoJ9m9Rdvi2lDkXonMXykp6HtT5Q8dxP33kaTv9mSCTbiVtPNZw4Y1C1WfL3CFwgjCdE7jdhBd11I0k3iQky+3WBv6pfnvR65KhFkgHo1lUZXlTHQMvXfflZ+NLC/YSgxDaSEAXVHV/UcmHjFf0tKj5R5bFRXjXnrIGx0QLZ73kMbOi7jszX7bzB32GwIUPSuVCNQfZhmLTfctRXjY0GDShBJh9hiMw1dI6Ce24rH0Gm/UaNziexcxU2snnHkeIVZx70ySb+/62XP1PiR3C06FTzPq1oPCG5GnbC9y3SoUAZsks4G44POg8+uGqdcYKsK3c5dL0SfWjrkIZwkcklmdtWGLvuK9FstVBv/N524x/6SexRAyJSJCoX0G23rOUKdmk6WJSIIHuRIC+Cdev5+6GpcRfMOWheSUwArTI8qiQk0jPnKNSN6IFljzzvpRcItipp+Uf+7h1Y/to8slDiBfyDSVPhiTWfQsuM/XD3K7frERlJBJnKMmzYm9DR0YW2A5+GsW/8BJZt/MRPecByNDXeDY92fwB0O5ffauTLbOuaWdyiFETwhAZTkHHU996Bf3xtfmBcL/71HXDkqT97UTIJdqwM/cdVwVkUeccRo0jbWBEVQTXn2PE1HJtXks4i+3059F1HZp5MsP8fESIrxVVjOJcIMh9B5iPJvBMX2bKfaoDWoubWDljbEtzWV0WQcfSMbXdbtxfdxjtDTY31ZO2gaVQrhncWI229DsCsCT+Ci1vatdKr4s574IMURXXxTs7hK58NkE8ep+qvPgF9rn4VXnzxQ2GahIh0l9hJISWOjyAHjIIr4wVBboD7Rz4SIPW6hqTCSEtu3c4yWC4MH6IDs47A4N5P+/6O6jKbEkd1+XNrrwe8S9Wvag10bVT7ddxG/Ss1MPq5uX49b1dDbD8UXq9eE2yd1kVsR+YH8Q4kll/mz791fFHAH7EpmP4Y0C5UEl6gwwXGvFUcb1VVFfTANHjoG6V8xoTfp3Mqw4SsR5I5Z9W7JDBhSPeTEWT69YFTDdDPuCWdqYweY9lUCxNLkOvHbIHrH99AnAJW/kmrBpRstwQINdk6HQk/vOEY/H27t5WKlbj+2qPeVut5B8K3BEMIMpal6ZfdJGqCnQL9txe5nw6bbypusYuJrZcXfXIBykdE46Hk71dL35NuOcnbmQ1fWHgzPPZ//1tgXDQ6RsYsxA7LWZShHF/FOnOOsVhybAD0/+2TZMGlOciy3/tf2xb1XaWnWXCgqjHkniCjswmB/H30gU2cI3WeTKpF0RZktjwSlg/YTtIJsOPCKW1+dLoAJHEObJ/o9/hj+bGNbXDjkLeF9n+sfQT5/fuTOwnhxmQZp8hd13YL+cDftGEErJ67GqpRkID/4Jb5niTzTnMJsdy1w98sic6yUWWK2d0di0hqHyb5Fy/+XcD36NgJLlO7vSb0Qz1QhnwwbCdBoAvXT3YE2RAJYZtREWSs/02H2ohOygIZpb7ZI7nYf0r9OhMFxnbm74zTNBzOfwbPHbUCjh7TejI/SH8v8+cizsDuPNE0EVU7cl4Q9MNCLsCNF6dq3bR6IPnA4PmMCb9P1i6G1/Ach2ISNuc0gCA7T5BETRMR5ADRSWk+JAVHtXiLjIrmFYuS1IOOrRW+sugv4H8+dSP8M0M8/6V5MEk5WX7B9wLbfSUTFhZBLjhTNocqYChfW1x0xrhhFGViD6zwZFQ2Tv5rrGTMjIy/XxAcFyXbsuhYWNSs4hHkf72xJB/xW29PhQbB7ynJITnnlvRdpac6jj/JgmCirmoMuSfIDImlkY2VL3kpFmE2Ui+05X+E391RDQ9/fCXMuHkJzJ8yGYZcGTyMVmrj+MzAvSi39oBPzNlzEiKiTueEOiwcnf3j0EcjHRY2Ne8lB+DQ2kOJqegwJ7WJb/dMgZnre8gh58e5CK/Ibpp31PiBDxqtYw9I4zpsGbYNndQMkS2pMMqCfZtYI+J8ZMl8GdZtL8q7FQU6XiBNsxFX+nfWp/Ft0Sgw3gnmdyui1tPxgyJ/juXkOQMbyGL9Pj3PEIUXrN81k3z8hq0FfK42i4VMNp3xyriUDGvRWMP4GD3XErobFENxExHkLBmzamGKT5AXw4l1k6F5+ykSQWdJ1Bf330mI8fIL1pLcOWkkJglBplFqyS0Apggy2w4/LnpCP4mhxNBdZRXVnLOLIm6M6vPPRrSRLTN6Qp3+/gcXLC7JlTSd3qAjs05upRIciwVUYziXCDJNy8E7L15kNnhYL7BzFWLLOML74wfvh2WPXVFyqFG0I0NzWfmdItUHcpHQL4HD86tLDrCFqY2ReRekPajIqOjvYbm8kSPH+DaDglzkYCnzEzVqpcLI5SB/CPzTvuzHm5isol2WS1fAte0b4Pa6oT7BZW0tjPh5wQ4vCuylHqFUjsKNM3Hq6fhBGUGW+VaW5MvGFQicCdYSHS4QNl4bft8YQWb8d9SbZaKuadpPTfO5Y6ITwRb9cKSmVQtTEoJMtm8KUaPg9gzekvtb2PfnpeH5tjEJsreVwm6TFg3bj8xSh5MgxYLeYuF/nZGITnFc6q+94NaOLG0l0oRqFFbNefEAFbMVjU+041ssyMGq4O/xTgA9bS87Aa8hVmgRlcxZ2LVRjeFcIsh8BBmnYuGUiQkHvW3i4m0TMlv2nD+5HegqnC5RemuJMGWJrinHl0H3pKqSFCtVigV1yKKUjjjRv0Adbr1jb404hVLaRsz4qPgRIDh8Q7eGd7dN9W69ENyeJLMTkqomSFNh5aNzxqeysGVUpD0uRlmw76RrXFRCwhJkYYpF4VYTalP4Ks7abVd4eceCHVg+EomJHxsQKZ2D0hRFnGLBB1hUHEJFbL2dySBnkEWIwyLIcl4QPcWiNMXIrN/XIcg4tUOUYsGuA+X0x9oEGSsue18ke4+sTSOK07bKaauUm25LyL5mZb/Xui8zNkH2rkWiB220DumhAwv04IHsfkPiIPg8Su4eZHZcOtiRj4hCm2k5pIfnLOo9yLb1XaWnvs11fAxj+74Mn0f3cNO7m+PYhY06OmMg/Vbg9pak41WNTWg7TA4yXkfwjhO53xelQ932nS/Dv7/uXSkls2X/7m10V7coYikmyOwB6rbiIb2C/XskQXFID5XRibZSTFXYhH0Yye4zxTKu2/0pLFo0pTh1iDTvuGMuSqfoJBiKDi7K7ER09zyPqU4ZWwQ5C/ad1IaSEGR8terg3q97h/QYXWZthB4sO9Q9EgWQGuCuQ7Ww/+g1gZspijaDSWMxekzXpVUT60k9fAUle2jN75OLOuN6Kj+oRZCRzQU4A1ojqSx0DDrtyNYSLKN/YFfCBdg1bGLjeHTlXV0gFYne/60ar/+RLfL76EOAv91H+jEwZ6twzvGujs46kERfE6VYJOm43HW1F2+Tgily50x2Vda2Eo4LR82+/fOaSPmNccZXkTmPIyhTR1fmNL+0pTuGhFBVpHqex5YU0DRikzY70cUobXIn1Q3d+qpDeml+tEJ3jKHlEvpWIzLIGkkoWxy/L/z4tzrIYOOOIFsCG0cmL5y0VvpSk6VurTcbd1xs5FUW6TYtvK4zMt1vkvayKDM/3jyMQTaHeR5bEr3FdR02agQdRuEYncsEOa5vVWtd8hJxZUvq9x1BTj53Wi24hUkLplwVyuKcZ1FmR5BzZTaxB5MH3Y09eM2KDqP4BFkTYlfMIWAMARdBNgalayhtCGTRGWVRZkeQ06b5lZEnD7prGzmHkSPItnXMtW8OAUeQzWHpWkoZAll0RlmU2RHklCl+hcTJg+7ahs5h5AiybR1z7ZtDQEiQT5w4cdZcF64lh4BDwCHgEHAIOAQcAg4Bh0C2EODv5Y50zVtWhuq+3LMyU+bkzOKcZ1FmF0E2p7NZbikPumsbf4eRiyDb1jHXvjkEXIqFOSxdSylDIIvOKIsyO4KcMsWvkDh50F3b0DmMHEG2rWOufXMIOIJsDkvXUsoQyKIzyqLMjiCnTPErJE4edNc2dA4jR5Bt65hr3xwCjiCbw9K1lDIEsuiMdGVO80MCumNImbpoiZPnsWkBEFIojdikzU50MUqb3El1Q7e+Lj667blyDoEkCCQmyLInQpMIZaOuyvBEz4tiOa5ufMrai29RL8GWlhc92RvxGd+osrBzVPK8Lvqj6ElcG/Ma1qZqznFdmf4Kf48x7T8Dfvb7k1636JnbTcd+AbOG9jY2NG2Zc/DUNNabxvFHYO47HVDVu5cxDG02pJofkS1gPVmKnptundInkmhJbDJSR4YKq7Ch3YjmXWRv+Dln8iQ3+9N3Nrzwp29C+8BvKO2QtCmwE/bxAtk6pSoTeA44An46GMnkjtBNZovq4BNncNq2hJ4vfnLt/9/e1cdoVZz7B+m1V2MT/2hu00WoEuVLSkRbkOwGhAWl7BauMSWtvbspsLBUuyq7RmgFvSDoWmrSi0LZfXeNWiKf2ipWBWRlrw233FTo3ailsa6gtYkpN1jBEjQ33pk5Z847Z96ZMzPnzHnfc96d/Utf5uP5nOc3zzwz5y24tq0R8OfYtf/i9tOeoNhQmxe/i2l7GUmm41AfWvn8p8ZrXwyxKLvEwaqJADL+usqY9SPhcH8H4G9/t8zYk9lgp+14hsBSqZWIBqYGl2WAnPQToKay0JG7Sucy+538yl1iu77A+358moBORXNITsMGYcOcxVDzWJ9VkK4j26g2Kh4ABZMNc2ph9cEPATDgOdNTVQCZ9wX8idXlD42CbYc6jIJuGj6RVLdp6F03jmB5ND48AvZ3X6z0Q5mfLDzZDtN2j4K93e3wNeI/tXDmzvdDARzTE9WGboJq7jsKz3ZMMBKpyjfy4N9GDBs2VsnHZDhWll8d/AXoxCis+5v3nINzfxpj5K9x+5nww24wdXiJ294KQE6Ao9JY93TXGJ73RAAZ7/DXffpIsEjg/99x+fOZ2C3oMCo0hASKNTV2U0NwANlMwkaLLQFtArDJ/P79L3RpLbJmVIZbq2gmwXvPrOBUA2eyXp97PFM+p+Ih4LiMvpZEJ2xfFW9CH43Jp+n6YIvHuOOoZCPTu24cwRmgs237QccPdf2En1vEe6iNvx6cHH0BnBq72TpA1qU7ro6y3k/bhjQYMQbIRLedMHXzNbB26Tl9gBy3nwYPoiam64JpexsAOcmcSfpqiVQW6wWdEwFkFpXj3fjDP6yHI1e9aLxoaDGVsJG243HBjChr0VEYP/4dKGwbDS/svhgeuLUARz4+T47Y8dHpuvGFYpvCIVRe8BxM/fPPYVXveVi5pxfWTegj/37l8Ofgif5TUFO7BHb2F2DKu8VdLd7htrbcH/z7+p4ukhXE89Pf6+rqYBAWkIx96PgnosSiuW8yrG05Bo0TB2HV1lcDmvFxr2xsES0kKDFyYLN+MoNmx6c846P0kt8PrYL+uXUko1hTt7GUv5i619Y5Gp9khaYchZ/9LXzcz/6O9TX9G0/DP339Tfjtbz9KpYxERbMITLCb1JiistpNxcNQA8hsBpn3LbwOeD7xMvLzJuL/ZF2h68bif3iBetgrsGjmA/CV9m7onD/Oqr5sDRZX7zpxhAc7Kj/U8hP/JIPPIIfkwbXxMoWz4KeTtoaSQ7oyVMlIi27dyXLYLko+NBbzcRT7D9ZL/cKuYlxG/vOlTTcEMeVQ70WweIk4DlIx4TGa3qiH615aFopFMp+N6kfnyxJuIDS1FIE/9anHe+SyiYcR9kGh8BdPPP4JIY6dLL4prntFfEMwQgQWCGExA5zFl+/JYr3IXRIBZDwgrevAzDVMeCfWrrocfqxamGRBmwgTgaLmbT1wW2M4MLEG1jRlO7T+rp9kN3B7+t/4KAQbYNP1x6D1sAd68SLYPLAcfr/yAz8jeTNsu7GYvSwGA/w7OgK8A9UvoqCIA+2ND44yBsirp26HG57qIWPgRWDuhpEo6MrGFtNCeEA8yuQw/bp2b3GiTvHxjwnopbRTnge6J3rHmj5PpbIwO4aOsh1dndNaR74ekf+d6uX+wgqYPvwAATRf6fir1eytiuY8BFAVD9UOkEO+gJjFa+OTvV0we8wJoe1Tn/hwXh9sap9AwHLL9PUwres78PTGz9D6MREeXPYgTEcbXJv17rbX3SR6V8UR9nRSxw91/AS3adhVH7khD7Uhm5RdsORgN1yyZZ4DyLYNCI2nAsg4icHH0YHCghAlIeDnA0IMcnFcLo2Dfrzxs8Az9nWHEldBGQ4Xr4I5JU49gjoAABK0SURBVP3ofFnCDVEAGcd2mxihZRxKCgabe7+UiZehIRagWMwUZ7H2IYv1MlNODJDZgeNeXEjBz0qGjLt489lRb0e1A2V6XiNz4Iwna3hsrRP9b7JDk+3c0O8EfH6zowgw8cAoi7TlmYUkQNLaxTglFiSDzBwXiRYPnI0OgX0NWlgBi+gSyY1uFqJkYVqnaQMgkzFk2aSILJPO8aypbavsVCfwm85pu72Kh2oHyGx9IAa7G5c/hOpcX/FOmmjQ4HyO9QkqHxoQ8InF38c9kdplYVv6t6X3kjiCTsgoMBVd5qQ+8b3Bb8PCLYPkYvVTXIZX5Ddtu+uDtZVe0mYvZeM+bBt2jLi+r5JRHvzblr2IxlEBZJH/4JjhZXn14jIb72i88bLHreT0mz+tkM2JxzHpp0tfWrhBhUN4nBHVXoVXRDjIZHzZekh1YYKzSjCFzsmRb5z2ALLBpGk6mMlOQNhWVGLBHHM2j1gL13d72WTZTpVXosowaYZZdLwf5ZxFoFFaP6sDhGVAFWe7VbRUHUBGDMmCnunvSexbFUDzUKOo4mEoAWTMK9VZ8cTIy1rJfDQEkFHGbP1/3QNHbp9ecpksiZ2l0deK3gVxRAVGRf8e5SfGmWP8mgF7sZQRnulrPSoZ5cG/07AdOmY8gDwJ1ly2TjsulwBkclmzE3D2mJYAioBY7H7o5CELuEGFQ0wArAojZBogR8R63rYTAWT2tu9ZtAObeMsnmb2RrlqYZEE7lAnFho5eMZh50C+VeOx2aNh5hVYGWV1iUQvFI1ZU90xAebgMImphJ5e1bvpNUJ+IyzG+92w9U8YRDsrysb05eVp451IB5CAjm/BYJclirNI5Le/Y2zU/dKP9uyfmkxKYqN/Jqy3oGHxmX7/VY28VzWF7zOkrFlSpMS+vJbGJpH2N9EOfiaJ8nvRq7WVlR7ISC5ohE9XIJ+XHZn+VbGRrbGQcEVyoYf1W5ocyPyElcIK7Bvx6pmqjAu1xEzV58G+bNqMDSPgNY0mJhf+qiW5c5oHulw/cFWSP8VylOigtCcTH9mz2mO8XejUjM7gBbSRG7grwC70bIQPOSTBCmH97JRaqDLIIZ2FdyWK96unNRAAZG0Wct+XSdLC4C5MWQEYB7w8IFC+/t5eUQ9BLc1olFkt2oEt6x71LeP5FtPAua19wSQfXLLKX9GhN45yWGej5mUbx7VoUSB6+bSm88MZnhJWLxv0rFLraydFT1LGUaGwcdOiFIUpL1M1xWekHW+DPXr4T/o4WkQ1zmmD14QZrmyxlwEYy2/2jZehYto+UtLR1FkgNKAb3Rr9bNGglzdTnquAdZBgyALl4woP9KLiswlxIVV7Sw2uPRs2sRVM0HkrHdsmgAr3L4giWy+a9n8GKFd8u0iPzT45i0XvCovfu+SywTpu0AHIQUzPs38aGYdBBmUFetL0kjmLAK4rLh/snoWRPM4kpB45dKyw19EBgMXtM7ZONRaELZtRnuawz34+fLyu44fTmed7b4ijeLf3B1fDH42NIiafoNDnYmPv3i1j8ocIIItwhXveYS3qBbDks4D+vypaLSkssBDiLPGiguWbobNiGfY7+cEPtBc/AASrVtJK8SGuHKyWMITJvJXUeV8S6NGf5S1u6PMSVUSX7VTNvSeWaRdlkzU90ZZQ1upPahm5/JUBmavh1x8xrO4cbzDSXhrwSZ5DNWKhca92FKQ0K01BcGnRW25iV1HlcWeaRZp1dd1x5ZK1fNegnLZk62agl62QULSMHkIvycbhB7U9sizTk5QCymQ5c6xxJII/BKI80O4CcI6dIkdRqsN0UxUOGdjKKD5DT1o0b30lAJ5a5EgtnJ1UhgTwGozzSrLOoVIVBOYATqcZqsN207dTJyAHktG3MjW9PAi6DbE+WbqSMSSCPwSiPNDuAnDHDrxA51WC7aYvOycgB5LRtzI1vTwJCgHz69GlySc/9OQk4CTgJOAk4CTgJOAk4CTgJDEUJXHrppSG2XYnFULSCKuQ5j9maPNLsMshV6DwxWKoG243BtlEXJyOXQTYyGNe4ohJwJRYVFb+bPE0J5DEY5ZFmB5DTtOL8jF0Ntpu2tJ2MHEBO28bc+PYk4ACyPVm6kTImgTwGozzS7AByxgy/QuRUg+2mLTonIweQ07YxN749CaQKkLP02LlbmOwZTV5GyqPO80izA8h58Yh06Uxqu2nEizTGTCJFXRllje4kPJv01ZWPyZiurZNAXAlYAcj4geaWGUdh2XsFqBuOPuuH/kSf+YxLpI1+KsfDPNDPLpP50KcYVz5zCFTf6taiDX3m8FebHoGPbnoUFo0bHnT5ZN+j8JM3L4f2uxqBfA4x5h/7GcsRtXXwb/cUoHP+uJijcd+ij6CLyuwfC3cC/t45+UO8bphTC1vO3w2H+zsS8RWbAb+jSud0fKn9+p+gFtkB/hzt9tF74dkO9Glqi39JaLZIRqKhdHgIPi2MZuI/9Zto8pQ7q3hLdR1Jmbekw6tkE8QF7Fec3qPihcg/P9l3J9Qv7IIjH5+HOS2/hv10/WGYUMWgKB+W2afsk9i6stOWkfvUtK5Itdppf0SCxOq34No2w5gct58W9dlqpC3LCpCd1D95kpMBZB8MrT74IcBFi+G1Mz0EIIcESL5ZvhhqHusLgcNyy061MPFKt20EJHBOOQo/+5u/ifj8ADSPWAsz+/oTyeUPj34LGnbVw5M9K2D22OFI9i9Dy/T10nF1+NJpg/VH2i3aDjBsAeDvtmOQTwHC+5PWZx8gS+wXB98x60cS+vE351tm7Alt/iiPNfcdLT9AltBcbn+Kmk/la1i+03aPgr3d7fA1sj7Uwpk737ezGU1ZECre0l5HUmYv0fAq2cj0vm58AerpJ4TZeDH2BLENPr4AWTtvgZqu/4XOxvfg4R/Ww+mGt0P2o4pBUT4so3PNhXdHrgs6wlPJSEW3zhx5bqOSjwlvrCy/OviLoo1FJH2w7m/ecw7O/WlMENN05sT9mt5otR4PdOa22UYn9uu0sUmT7liquK07DtsuGUCmI+EF67KdAYggC8yeWUFWEe/UX597vKIBUOV4JUrneIojXL4PBrPNA8thoHsiWfhf/1ZfMociYMls86Fj3DptAoCMAlvj1S/Cv9x5gAD9uAuMDfnq7P6E83C6xnpa9+kjgW7w/++4/HnPfn2Znxx9AZwauzmZ/gTEqOw06JKCfdrSgTYP/oS8vG3RkcY4Kt7KsY6kwZeNMVWyEa2H2M9+ObErOl4I4gvdwMpO3iJjkKEPC+0zxtqL+VfJKIux04Zt6I6hko/uOGx8wskbLYBMdNoJUzdfA2uXntMHyH6/Gfu6gxN0Ezqz1FYn9uu0qThPMf1TB0OYP/OmATBYwFEJ4akcj1f6my/dAcsfGgWP91wEi5ccg/Hj34HCttHwwu6L4YFbC+Roj5ZhfPfEfA/4+sd80g2Bn/3rvwKXP6wIjgXx3K0t98MT/aegpnYJ7OwvwJR3wztekVGqDJU9hiS07umFL226gWRkauo2BhnS1pYmMjdts25CH8oMH4XGiYOwauur0nITOv/WH78Ha95aTsAiPuI4NXc+PL3xM7LA4IWJ5W19T1eijLmJ7ah0LgOb7E4UZzhxhurIVS8S/rwNwCz46aStIRBtQldU27g025rfxjjaPODJfJ+o1gwyXUdEvhD4OfK1K4c/F/J/WqpmQx/lGiOu3vH6yW9IQ/FCEF/Y9VbEn2iTS8c08mGJfZacCGoKWSWjKLo1p8h1syj5eCeWYl9RxbpDvV4cj4ppXha4Hq57aRkXI8MxDPst6580e7xjwSEhfSSWI7pNMcSmgRr4+7i7S3AFPnExwQv4FJSP8bgEUyUzeoKqiw/ISRDls3AIlc49B1P//HNY1XueYA88J491eDxAdUxkJRiDYhPVehnXPx1Aliwf9MiNAF/0h4EqVt73v9AF07/xNDRv64HbGsN1vRQgYhDddP0xr3zigldC2XR+utJSC69m98wdqN4ZGRDNMv9+5QehI6E4AJmdm6V1cYu/O/aPtz+c1web2icE5RnTur4DTzbthhue6iE0YUeau2FkyY66dMxJ8O+zBuAn3WgxInPcDNtuLGa4VYDe9squCkYygIx/p7VM2A4aJrzjZYvbP4BFM3fBkoPdcMmWeQ4gSxSmLXfUn5YIVbpeXdf2VLzJ1pFFY71yAZGf49Kr1sPexjE4ZRLU1OrSWKl2KtmwdLF6P7057EslGVsBQL5nYCSMePtXZFMhqkGWAk1DHxbZJ/5t8h0vx6qdV8nIAeSPgP8wA7UbGjtVviKKdThRg+O4NKYxWeBQcoqWgHHxOXznphNw9hj3E/kyjuVxMERz32RYPY3DFSdXQf/cOgO8gGNwLfAxni/ttIEPCA6ash1af9cf4Cb6314JlRoPEB0jPcnGoFgrygaS+KcDyBEAOaiDY2qUeFDn7YB2oIX5NQ9I+5nY/267kpSR4Do1trxEBJDZeUTj438nmWsKZP3aXp4+FeAU0Up20v64smMnGU20zphdsIqG3wnXrPhn+I9fz4YXfHBPjPmbHV62nf6hTPbjA/9ZliyyKhhFAWRWb/Qyz30XdgSgOK2yAFs0Vwok4Xl1ecAybNtdr3+UWUmm/LlVvMl8MomfZ4BtLRJUsqGD8HpXgkJRBvl/ZpfUsF/38jhYuGUQvo4u7T3FnfDQOWQ+jH2c9qXgJ9I+Y558qGSklIWWJvLbSJlBprXqXEz0TirDcTkq1vH+yNYQs//Gx0jdfvQ+jiyW62IIehpNcYUscSbDC/zvrGXYxgfsXKzc6H/r4AGZ7NkxVLiI8BjTP8sCkLNYR6VamLQC2zCUHUYX667v9rLJbJ8vH7iLAOM1F26Cs237pQBQBT6FOzkJQKb1sMILkP4lQJ5WmRGztXwqGksBcgfgLFDbrrNQe08f0Es3ocy6/7pJOZdulc61ADJ1NJRBoOUpLA+2X2CwQnM5hSyYS4eHvGWOKZsq3rTWEcafdTbCFVan9vQq2eCBRHpXxgtBDTJ7IUq0WRWOedNvtH1Yxz7jbJJVMlLKQlsb+WwYDyBPgjWXrSuJy1GxLuSnJEvsZYH5RwYiAXJEPylANsQQ1B4orsAn2qIEmzFATgEfaAFketIuwQPWALK/1iQt7RXZY+Ia5FLjM7tIloZrqxYmrcCGjRtdRpx50D8Ofex2aNh5hfdaA/q3RTNvhf3/tzLy9YaSeRgAxpZYDHRfHJqLrWVkwaz8FYt74dX6Z0poZXfV9AUBUYkFrSFmHV2eQfZqjekrHcUjKv54B9WQMRmANPTMjqnSuQwgs7fYz6Lykom3fBK80MJmwZI6n4j/uDSnLUuT8VU80KPS4EUXk8Er3FaHN6GNS/ycHL8OkRILmd6V8YK/kOr/f3NfF8we45eucK+gKMeMCKAyOmn5y96u+bFfXzGyn4y8AFVOl1MBZKGvcLESP3uK47JuBhknt9gNV6ntlJZG4VMG/uUKajf88X8o62uKIZCth3CFrORDihdkJRb28YEKIHslFmy5Ryke0AHIuJxVVGJhwz/LkkHGk6jeoCyn0+G5jBamiBIL9s3huro6GIQFASDWeRtXBMS9ow7/kp5fsoGBKa2lwZfnlv7gavjjcfHTMyxN9KIdAdtooVh+by8pcSjSOgkZaTOsPtxAQN+Ud0sL+EkhvOQoKyrTLMossxcEaF03+xZ0mnag0nlUBln1nmKc7JEOr0lo1hm/HG1UPNDjbJYW25n4tPhU8RZV9iTyc5KhQk8lXjn8uHdJj/H/tHhIa1yVbKL0HhkvBC+22HgHWebDUjrbvwi7f7QMlWKgd5zRmtzWWSB3N0z+VDLKYuw04S9pWxVAlvmKKtYdOHZt6GWKop9i0FbMHhP6kb1tmNPExEjmkh71Ty57jLuRMQW+zGehTTEEjytM8YLskp5KZqb4QA2QvWdT6aW/EB4INr2TAz3JyjQWL9khXi9REiKpf6YDkCVekaWvAeksTImcm+z0vAtcebyBnoj3jHZOXecp8J1HmnUWlRREVZEhbesnClBXhMEEkyaVTRrxIo0xE4hImagpJhnehhOfj4YxVxU/LJVk3rz0VQLkMp5AmsossS+LMITDFSE1JJaxoVLtlFgYTlqJ5kkX7yiacTbjkrmbYt1qroQshsqcaeo8LRnmkWYHkONbQ7kX/PiUqntWg+2quUzWwskoWn5DFSCLMITDFaW2Uu710gHkZOud651hCeQxGOWRZgeQM+wEZSStGmw3bXE5GcUHyGnrxo3vJKATy8wv6eVArm5hyoGSLJOYR53nkWadRcWyais2XDXoJy3hOdmoJetk5ACy2kpci6xIwGWQs6IJR4d1CeQxGOWRZgeQrZtuLgesBttNW/BORg4gp21jbnx7EhD56/8D7l59Ddp4rJYAAAAASUVORK5CYII=;" vertex="1" parent="1">
          <mxGeometry x="-70" y="-128.5" width="712" height="229" as="geometry" />
        </mxCell>
        <mxCell id="iovOzbsHrw43gdFjkHrP-6" value="" style="shape=image;verticalLabelPosition=bottom;labelBackgroundColor=default;verticalAlign=top;aspect=fixed;imageAspect=0;image=data:image/png,iVBORw0KGgoAAAANSUhEUgAAAL0AAAFXCAYAAAD3f09gAAAgAElEQVR4Xu2df6weVZnHn9tS3SbK1o1ZpQWqVX41QIIYsLQplht3kVJIJTbuEpptqaVue2G5NZasoGtTN0WKbiqttLcYBVZsbyHo3bilpXdbIRg222q6aUKyUEGDLitJ2S1CrdHunHnvvO/MvDPvOd8z8573zDvf/rMr9zwzz4/PPO+ZmfOdM3Dy5MnTwn/MQI0yMLBz9AeEvkYFZ6giA6eDfyoRr776qsyYMaMWOemXWPslDtfQEXrXGS/xfITeLpmE3i5vXlgRersyEHq7vHlhRejtymAF/akXt8rg8rfk0QNrZeakAaMzF7U569i3ZP7lw/L8//2ucb4pV8m63Q/JxhsuNDp/fFAvYInHX1YsvYgDTnbMQOWgrBoW8cM59N/eMVWWr3g784JJXxhpUOIX2qkX98h9q/5GDn1yXJ5YOxvKQS9g6UYsruLo5DuS+Pb66mto0yx1PjmHvtOvAwK9Csw2Ia5giSdfB45NLK7isPEtC7ys4+iOrfu7DvCsv3eEPjzhssPy4ck/kO8cfF2mz71Vdh4ckSt+/q3m9Oa9+/5OBpdsa0w71JTj8QPymZdvkKVHVsmRkRvDc46u/pA8+6E1cvjJP0i80x/fcp1cdvue0O72jXfJn//os3L3/tdk+rz75LmDa0VNA6LuHv//m1Oq0/tk6dk7ZeUvRmTeZLNplvInD5afffOTTX+GNo7I5uHZ4YV124ovt8cf5OX6i4/JXQ/+WzPujYumJMbPmDtPTg/c2LVY8uJQv4K3rbgl9DmaBq6fPR7W8qKLXpKRR2fJvp9+RP75tn9oxrVhxzZZduFk+e1TdyTrGUwh37354826HHio9UutaoLmpm1aHKvhZU+nWEqdO2Iifs7IbwR+LfTzrzgstz3XSIiCQsH8H+tezZzTR1elAvuWj/1UNv0mgHHS0yGYS8cvk6989u0Y9JfKPefsCoFVF5E6z4afNMZEvwa67iinX5KvfmK5TH9gPPTP9F8mLLHkR/5s+p+75OC18+TE7QfCe4d4/PM/+j35+MM7wv+uQLn2q+cEfi+WR/9ibnN8nv/ZFzAeS3Yc6jhz5bXrxicu2j2yYv4GmbPt0/LdW0Zl6aM75G8XTknkLa+bxusZTUlbvidj1ecm2cRajSs77qxzzxw4ZuS3jgMt9Ml5dOMGNt6tG1f794OO8Ux4rqhL//vQh+XQtS/IPe/4vMzZfU3zQmnZNpL2rZPnyU2f+oKsXnSdfGBgW+Ji0kNfYqcPLyAzf9L3JZkFCm7wMejxWLKg1wGsGkrbjfTEg4FvH/mx3HzGtrZ6prt7mgEFMJqDrF9r1WzSLKXPnbgRjvmNNL2C0Afd+uz18rHtQfe4/sJEkdW0R8F+zzs2y5tDe8NkZidrj3zj/q/JXd/9YPiTi3R62/lep7mwmhro/OkG9DaxFII++GUNf4nj00L1azfjK231TDe5MqFvxZ3NUvrcakbQ5reutaf+roW+8/SmMUVZsH9i+vPAalm484PhHHbmwNOybMFfy94/rEvMaVtBNIJcMH5Qll3wcviz9Wd3fEq+d9/vjaY30dObE3f8UtRcGvmXO70JCh73Z/oDI/KrNfMzpzdZv4Dp6U1r2tP5/sQ2FnR608xtOE2IT4GiR9DZ9czq9OlY86a+Jk+twhpefyCcBqdZip+7Mb3J8tv80bniRAv94LLHghvZFxo3PBk3mMe3rpFVX3wovJGdN2+eHJPGjZv6+VI3sI/NGgsfKWb9/MVtF286Kk8MvxoEdYvc/dxCeebEjsQNc1nPtjveyAYXbRRL6M+E380bp4z44z/t6alDpxvZMp5XwzeysXcr8Ztd9YAiuiH8WSwHrXpeGkxFl4Z1if8aJ25kwdyETSr1rkV37gYTTzVv0uN+I01PDz34Eqp58uCnctmCXXLr/u3QkxXEeduxrh71Hf3X2+WvnhhsPsWy9TfPzlUcZfvd6+N1BXr1s/6uazdL1C17HWT6/N2EZXT1oCzZOt64qY910G7koJtxdMNfX45p9XLKF+dt/egXWPolDts62toRetvMeWBH6O2KQOjt8uaFFaG3K8PA8ePHm3LB97znPRL8b6nL/7VLGa2qnoFmp3/jjTfkd3+YVPV4jPx/5+Q/yrRp04zG+jxI1awf4nCZY5WzBPSqw//36//r0oeenOv97/1TmZAG9+T8ZZ2U0OOZbIOenR5PYi8tCD2efatOf+rlF+XVP86SD86q7lSInb4By6kX/0tePj1Lzj/PfIUqjpm5hQt/4E4/tm6RfPbh38lH/uSn8u7F35GdX19oHpFHI7Vz+nDh1U3yyK9PNLwOXperFYjISj4X4Zp0+vjLsvjLwvC/j5yUK6cekjOX7JS9Te1D6+Va1svF+NKSrBjVcpMVVx9OaBzyfIjb2/qD5hnq9Kd+PiKfHnpbtv5wSGZM+rn80+LV8v77/kU+82E/ugQSvLbTW4pTEB/KGKuDXr0ZnzN6roxtHw4WADYWa6nFXesvGmkt4Y6tUV/yynDm+GhBnwJarRma/qXD7RLNiaXZSgQkU5eHa6fUCs48H+KLBBMrTAF/bHIIdfq3xtfJ9WPzZfwbje4+tu5S+c9rDsvf/+UZNufuqY2u09ss8+1FQDro0z6plZDrT90vj1y8LVz2HVe2Ke1DerVqND7UIE8Idl4JprWvX7AlX5esaRiJY044GF4YqD+WCYc6/dGRT8nXT/2jPLS68fWB9P+29KEnZrpOH3a0QBk15ZKj8uyzb3i7hgiCfqITq06v5JwK/khQnwViA/LGL4O6GBSYiwMwv3bpgwnbtgJ2gj51zMg2fX4Tf2zBgTp9P0Fv2um/PHKnzJ+8L1zK+r61v4LX7dsWxtQOgV6BtHDXYLjsW2mTddDHxze0EY0Vs+/amrRFoE8cM/bpGBPo82xNcxWNY6c3zFhm5zG07eYwU+iV/0Ojg01xjg6yTuPjtuqmdsnWY3LJiidby6dzOn36mHHbh1O/Hln+xf0vklOo09dpTp83F0a/r1OkOCa2JtBndchOc+i28fEb1JhTucvGM6DXdWnIH5PEdBgDdfo6Pb2JpG9j224IRNRPhV8TCGWEwBcXCtbGyFwHfXhvkqEpzXtaonTMOg2q9lcvBX2eD/EAi/hjlKjYIKjTK7v6PKd/SUbXrGyIQYJn9NE3cNAEd3u8DvpoChH3I+rQWc/FO43Pu+nUzelNjqmOYesPmmOo00cH5xtZNM3dG6+DXndmF29AdT4kO3733xDDnR4JwOexuqc3Pvse960o9FWJs0w/rTp9mQ706li65/S98gs9L6FHMybCTo/nzCsLQo+Xg50ez5lXFoQeL0cIfVwuqA5BqSCeSFpUKwMJ5VRdpGf90iH7JQ6Xl0zb9IbQu0x/8XMRejyHhB7PmVcWhB4vhxX0vr3QwMNuPLbqh1+1onH4VksX/sDQ50m6bMDrpY0pLLbSN1exmcRBuWCyGhD0eYuCfFuEZQKcFpYC0jeT85c1RhcH5YLtmYagN5V0lVXQbh5HB0vz3BbSt276nT62cRwThpQLZryR7TTP1QkPXBa76LmMYbGQvhX1DbE3jkMdlHLBMLVQpyf0yS07dcIIBF7bsQj0lAs2skzodbQZSt90h+nW302hp1ywVQEIes7pG53ehw4fldAEesoFky0Hgr5WT2+iPFlI37rV1bOOq4OecsH2rEHQK/O6PaeXFPSm0jdX4Ougp1ywBOjVIVy8Nes2NDpYun3+so5fNA7faunCH7jTl1WsXh+nKCy99h+Z0/viqy9+EHpfKmHpR79cvJbhW5kRequ0+WNE6PFaEHo8Z15ZEHq8HCH0abkgfhhaMAPVygDlgtWqV8Jbdnq8eJze4DnzyoLQ4+Ug9HjOvLIg9Hg5rKB38QIBDwWz6BdYisbhWy1d+ANDX7dlCB3lgsHXjNc9fqCnu5OYQE+5YLIhQtDXasFZB7ng+RvOCbewCb9bf/XuxNaR2O9N8dE66CkXbM8xBD2XFg+Ey4rTezV9/wM/7Fm310GfLjnlghSR6FttapWluvCjTq/2Zb33c4Py/Hk/yt9eUn+GQiMg6CkXDHMNdXrKBRsikmiOPH3urbJw9kud91QthLTeGIGecsFGPgm9jivN1xB0W8brDl/076bQUy7YyjQEPef0SWF4enPhogDb2JtAT7kgn940f+KMPuuXMaefM3qujG0fljeD+f3FN/1WnjmxQ+ZNTl0QNgRb2Oigp1yw4NOb5nx25KRcOfWQnLlkp+wdudGiVL030cHS9DBjetN87l2B5/SUC5YAvTqEi7dm3b4sjKHvtiMFj180Dt9q6cIfaE5fsD5emReFxZdg+iUOl/kk9C6z3YVzEXo8qYQez5lXFoQeLwehx3PmlQWhx8sRQk+5IJ44WlQ7A5QLVrh+7PR48Ti9wXPmlQWhx8tB6PGceWVB6PFyWEHv4gUCHgpm0S+wFI3Dt1q68AeGvk5yQZ+WG+Rd0ibQUy6YzB4EfZ3kgnGxiA+yQFvoKRdszxwEfS2XFquchYqj5TL9gXHxbftQk04fLzvlghSRGN0I5C3PNTLu8iAIesoFw2pAnb6OckEV82W375HFm472TAfb6bpBoKdcsJFJQm/SiWMdcuOiKSYWzsaYQk+5YKskEPS1ndMH+Ur/yjmjWnMiE+gpF+TTm+ZPnG539KVHVsnYthtEferjq5+YKyfu+GXPvm9j+/SGcsGCT2+UeW2e0wdTmtE1K2XJ1nGRQBY4tHFENg/P9qXBN/3QdXrKBUuAXh3CxVuzbtOlg6Xb5y/r+EXj8K2WLvyB5vRlFcqH4xSFxYcYoicRRl918MVhD/wg9B4UoYgL/XLxFskBakvo0Yx5Np7Q4wUh9HjOvLIg9Hg5KBfEc0aLPsgA5YIVLiI7PV48Tm/wnHllQejxchB6PGdeWRB6vBxW0Lt4gYCHgln0CyxF4/Ctli78gaGvzTKE4BrKktlFS40Tl9jU5T37XLcJ9JQLJhsiBH3d5ILRd+g7LThTObn+3hk9+2S5DnrKBdtnABD0XFp8f5uQRHXRN4f29kxGqIM+XXLKBSkiMbsRyBGRJH75Jvm5E0kiQMoFw3RAnb6OckGVpCwRRvTfe7mHbFRA0wVnlAs2WgCh1/T6tMyuOTzYlmfZgl1y6/7tPdtvCoGecsFWoSHo6zanz+vwUZeP7xxuNk8qf5TJnJ5yQT69af7EdZoWdPzsh0ffwdFBT7lgwac3yrwuz+k7yexOvbhHtoz9Xu68c1H5rRs8og56ygVLgF4dwsVbM7D28HAdLPABe2RQNA7faunCH2hO36O6duW0RWHpilMWB+2XOCxCtzYh9Nap88OQ0ON1IPR4zryyIPR4OQg9njOvLAg9Xg7KBfGc0aIPMkC5YIWLyE6PF4/TGzxnXlkQerwchB7PmVcWhB4vB6HHc+aVRVHoXbwMQhLmwh8r6NV6jhVXH5aVvxjp6QpDJJnpsSaw/OyB1bLqiw/J829fXtmvFqu4KRdMVh+DfkKEcPf+10R6qAstAntkq4M+Wqi14SfbZP7kfbJi/gZZMH6wZwqpvJh1cVAu2J45DPrIPlhLvvTsnX3d6dOqKLVw69C1L1RuU4Z0ySkXBEUkzQTWAPr4Npo3n7FPblvxeM8FI1ndXtfpEzaUC4bpYKfvMFcKu/2yx8IRc78w7l2XjwpIuSA24SX0OfmqyudOTDs95YKtQhP6HOirIoI3gZ5ywSJPb2p0I6ueepy/4Rx57uBa7i6Yagza7UVT93wmO67n/bLefEbw9OyKw7LpN+U9Hmen7zAdjD/f/sSKJ3v2FbNOM1Zdp6dcsKxHlth9g5ejdbB46XSGU0XjcPEGFMmlC3/sOj0Shadji8LiS1j9EofLfBJ6l9nuwrkIPZ5UQo/nzCsLQo+Xg9DjOfPKgtDj5QihP378+GnclBbMQHUzQLlgdWsXriMxXYZQ4TBLdZ3Tm1LT6f5ghB7POaHHc+aVBaHHy0Ho8Zx5ZVEUehcvg5CEufDHCvq6yAVVsdpiVetKZtwkj/z6RKOWU66Sbx/5cc8UVSbQUy6YvOww6GskF2yISOZKmzTSMwGNDnrKBdt/ZzDoI3vPCo/8fEZjdbA0j5mxYnBw+Vvy6IFg9WWPNleLx2scx4QR5YJUTumvl6xlsh/9nky55Kg8++wbsnjT0bZtNvUHLW8EBD3lgmHi2el1/OV0+i+P3Bl+JeG2FbfI+9b+qmdSQgR67i7YKDahB6FPD9cKKnTHL/h3U+gpF2wlmtDroNPcv1QBesoFizy94Y1suJHy0iOrZGzbDXLWsad6/hEoXafn7oJ8etPMgA6WvKc36lHm6JqVsmTrePiMfmjjiGwenq37veja33VxUC5YFvRdK6G7A+tgcedJsTMVjcPFG1AkQhf+2M3pkSg8HVsUFl/C6pc4XOaT0LvMdhfORejxpBJ6PGdeWRB6vByEHs+ZVxaEHi9HCD3lgnjiaFHtDFAuWOH6sdPjxeP0Bs+ZVxaEHi8Hocdz5pUFocfLQejxnIUWLl6imLhWFHpf4ohideGPFfR1kQuiMjsTSMseYwI9Gkfe+Mh3tbThsVljuTqCLD50x1THDseMnJQrpx6SM5fsbH4l2sQWySsGfY3kgqjMbtmFk5G8lzZWBz0ax5JXhmXO6Lkytn0487v84QK2y4dl+pcOt0Ofw0eeDxsXTWnmIe/79Dp/bBKJQR+doU5ywYmYUZmdTTFsbHTQp4+JxpFYOh1CvVxemTVJXr9gS75izGI5dnhh7L5GjozcGLqct5tjGUu5Cb0JaajMzuSYJY2BoEfjiI1XXVmBuTgA82uXPijrT91vB33qmFEajLY7yrFFU0noDTKGyuwMDlnaEAR6NI6E+GTgaVm2YFe4rei7tl5nDX2WoEUlwwT6PFs0mYRekzFUZocWoOh4U+jRODqNjwMarde/JNieKJqaSM70Jn3MuO3DqV+PrItgaHSwlK9QEPoO1KEyu6IA29ibQI/G0TY+foMaczL3SxAZ0Ou6dKc5vc4WzRuhz8kYKrPz9ekNGofJbn7am0nuLoheh27G6zokKrNz43X7WcqOo1PceTedbV6loDc5ZuOJTftzelNbJP92nR45g6djdbDo3Hbx5lDng/p7v8QRxeoir4TehCyPxxSF3uPQuuYaoe9aat0cmNDjeSb0eM68siD0eDkIPZ4zrywIPV6OEHrKBfHE0aLaGaBcsML1Y6fHi8fpDZ4zrywIPV4OQo/nzCsLQo+Xg9DjOfPKoij0Ll4GIQlz4Y8V9HWXCyJF7PZYE+gpF0xWAYOecsGebbOTd/HooKdcsD1zGPSRfY3lgk+s7d236LPA10GftqFckHtOmc0+SpKpmZ0MGwVBT7lgmFx2egPGyhYxGJzSeAgCPeWCjbQSeg1eaYmbMY2OBppCT7lgqyCEvgOcPnf4yG0T6CkXLPL0pkY3snkyO0cN3Pg0OugpF+TTm2YGdLB0Q6ZmTDIwsEgctvI8VCNrmktbf4B0FZjTo2fxcLwOFg9dznSpaBwu3oAiuXThj92cHonC07FFYfElrH6Jw2U+Cb3LbHfhXIQeTyqhx3PmlQWhx8tB6PGceWVB6PFyhNBTLognjhbVzgDlghWuHzs9XjxOb/CceWVB6PFyEHo8Z15ZEHq8HIQez5lXFkWhd/EyCEmYC3+soK+LXFAVKy9WX3JgAj3lgsnLDoO+RnJByYvVsxzooKdcsP13BoM+sq+TXDAvVk9yoIM+XXLKBSki0U83+wl6ygXDerPT67DvI+gpF2wUm9DXBHrKBVuFJvQ1gJ5ywSJPb3gj28peRW5kKRfk05tmBoyfelR8To/ukmgi7aNcUDc98PTvxtB76n/kVtE4XLwBRVLowh+7OT0Shadji8LiS1j9EofLfBJ6l9nuwrkIPZ5UQo/nzCsLQo+Xg9DjOfPKgtDj5aBcEM8ZLfogA5QLVriI7PR48Ti9wXPmlQWhx8tB6PGceWVB6PFyEHo8Z15ZFIXexcsgJGEu/IGhz5OeIYH5MNYUFl9kgXk5M4mDcsFk9iDo86RnGxdN8YFjyActLJ7JAm2hp1ywPXMQ9Glz7cIjCEO3g7XQR+54sprSFvq8mj1y8TaZs/saOTJyYzhELTQ7dO0LbVuGJmocNoLl8sqsSfL6BVskd6dFTc6yuAkvTtQfS2Tsofd4xz2TXNQSesoFQzSsoa/Cfkyd4K8j9JQLNoiwgt73HffY6dszQLlgKycw9FXv8FHoder0lAsWeHpTlR332OlbGaBcsODTGxMpmQlwPoypS6enXLAg9D7AWpYPxtCXdcIuHadoHC7egCKhu/AHntMjAfg8tigsvsTWL3G4zCehd5ntLpyL0ONJJfR4zryyIPR4OQg9njOvLAg9Xo4Qeu4uiCeOFtXOAOWCFa4fOz1ePE5v8Jx5ZUHo8XIQejxnXlkQerwchB7PmVcWRaF38TIISZgLf2DoKRdUgotBWbJ1XGTKVbLu8QNtwgukyEXHmkBPuWAyyxD0lAsOiMrB+RvOkecOrpWzjj0lK67eLSt/MSLzJg8U5dfKXgc95YLtaYWgT5vXXi44IZ+b/sC4LLtwshW0RY100OfVjHLB06dPq+RACaRcMNxYef4Vh2XTb/zt9AnoKRcM02Hd6asuJjG+wHNEzir+y27fI4s3Hc0XSBdt4wb2xnEEx6JcsJFQK+gpF5yg0YNfO1PoKRdsdRAY+qp3+Ch0U1jE4nMWBg26tCEmcVAuWODpjQ9z2LJoMYElPFcKegXQ0iOrZGzbDTJz4FjwHZi5cuKOX/bssaUuDsoFCz69oVwweCwZTGlG16xsPqcf2jgim4dnl3UtwsfRQU+5YEHo4Yp4bKCDxWPXE64VjcPFG1Akly78gef0SAA+jy0Kiy+x9UscLvNJ6F1muwvnIvR4Ugk9njOvLAg9Xg5Cj+fMKwtCj5cjhJ5yQTxxtKh2BigXrHD92Onx4nF6g+fMKwtCj5eD0OM588qC0OPlIPR4zryyKAq9i5dBSMJc+ANDX3e5YLSkOFHIqcvlmRM7eqKeMoGecsHkZQdBT7lguyRQLei6/t4ZsndiwzKkq5UxVgc95YLtWYagT5vXXi4YJER10TeH9lIuGIfDYjk2dxcsowVqjqHrkE3zDgVUXX5w+Vvy6IG1MnOSn8LwRBooFwzTYd3pqy4mKQN6lYPvf+CHPVtLHxVw2rRpRm2CcsFGmqygp1wwyFzwC7BswS65df/2ntzARpSbXryUC7b6Agx91Ts8CkueXNCX+xkT6CkXLPD0hnLBiXm7B9+7Mb14KRcs+PSGcsEG9Kde3CNbxn4vd965yGgu3c1Buk5PuWBB6LtZPNfH1sHi2h/b8xWNw8UbUCQ2F/7Ac3okAJ/HFoXFl9j6JQ6X+ST0LrPdhXMRejyphB7PmVcWhB4vB6HHc+aVBaHHy0G5IJ4zWvRBBigXrHAR2enx4nF6g+fMKwtCj5eD0OM588qC0OPlIPR4zryyKAq9i5dBSMJc+ANDXye5YEeZHXcXzN2BRa33WXH14cQGdCbchGNGTsqVUw/JmUt2NtVoJrbIhQVBXye5YF6s97zj89xd8PJhmf6lw+3QT4hU7t7/mkhMN2zCTUKQE373f7moDeyWvDIsc0bPlbHtw6XtBwBBn76afFlei1zl0Vh0WpAZqwerLW3j4O6C3F2w83WTs7eUD0utIegpFwzrbN3pqy4mQWDJipW7C96fv6tiB11xHjfpX9KsX9aymLOCvk5ywY6xcnfB4GsQHwq2Ijoml6x4Uo5En0HpsA3p0OhgU0gft3340gdl/anWhZR1EcRtbaa08akt9Ea2rKutiNNl2Jp0epNYe31fYxtHp09utMUdv0GNJT93D90M6HW5hPwpCADU6X2YwxaMt2mugyUvVu4u2NiEOd6V22qSgt6Em7ynNzefsa30Xdkh6OskF8yNdfid3F0QhN6Um6zn9Ka2SDOEoEcO7PtYXaf33X/bR6/puFy8AUVy6cIfQo9UxMOx/XLxukwtoXeZ7S6ci9DjSSX0eM68siD0eDkIPZ4zrywIPV4OygXxnNGiDzIAvZzqg3jDEPqlQ/ZLHC654vTGZba7cC5CjyeV0OM588qC0OPlIPR4zryyKAq9i5dBSMJc+ANDX7Z0C0lImWNNYGnGOuUqWff4gZ7uOJIXOxRHcJD4IjFbeZ5aGvDYrDHKBcsE0sWxdLCoVX/nbzhHnju4Vs469lSg+dyd0Hy68NHkHCZxZMnt1l800tovC5DnhYvHKBfsICYwqVqPxuhgyVrP3ev9pbJSpYsjbRPFRbkg5YJtPMU7/cygE977uUF5/rwf5auFPL14E25RLth8XG31nF4nCugRA8anNemQ0Zx++txbZeHsl+T1C7ZUGnruLtjAA76RVUZ1kgtGV5Hu5s34ait5oMnFm1UznSa1026EcVvKBUsuaDcPZwpL6IMHWtgiT2+4u2Aye1CnN5F9dRPUMo+tgz7+gaI3gyc5F9/0W3nmxI6e7hlrcyPL3QXbswZB3w3pVpkgI8fSQa+O1Q/P6bm7YEHoEah8H2sCve8xRDdl06ZNs3bVxRtQxDkX/kCdHnHe97GE3vcKdc8/Qt+93Do5cr9cvE6SNXESQu8y2104F6HHk0ro8Zx5ZUHo8XKE0B8/fvw0bkoLZqC6GbBahlDdcBue90uH7Jc4XPLE6Y3LbHfhXIQeTyqhx3PmlQWhx8tB6DU5c/GyBC9by6Io9L7F58IfGPoqvJo3gcgEljw5ncnxXY0xjkPthhj8o1wQXFpcFQmdCXA6WPK+l77swskmh3c2RhdH3s5+lAtaK6ca2x76BoIJcUaw7L6muaWMWrh16NoXvBOH6+JI54JyQbDTxxNY9WXGOlh0IguTC8vFGF0cCR8oF2w+roaf0/uys14RqHSw9CP0lAu23tHA0IemHquJTC6GukHfSf6n8qXbzS/+99rJBVpacOEAAAHbSURBVONAaTfcMqGvR2N00Hfa7a5HLmeeVhdHBPTCXYPhN3xmThoIjwPt5lfn3QV921mvCHw6WPrl6Q3lgu2UYM/pgyt+dM3KYLPc4Jlv8Km7oY0jsnl4dhH2emarg1451g/P6SkXLAp9zxAt/8Qm0KuzunhDWCQ60zjyzuFbfC78wTp9kep4ZlsUFl/C6Zc4XOaT0LvMdhfORejxpBJ6PGdeWRB6vByEHs+ZVxaEHi9HCD3lgnjiaFHtDNi9ka12zJQLVrx+Rdzn9KZI9jyw5fQGLwKhx3PmlQWhx8tB6PGceWVRFHoXL4OQhLnwB4a+TnLBxhvZrcEma4e93GRN+WcCfd6OkNxd0CCBdZILRkun797/msjU5V5+m94EesoF239n4E7fPES43LR/5YKtOPfJ0rN3VrrTx8tOuSDlgvrp5uk+gp5ywbDeVp2+DnLBfuz0lAs2qmoFfWjZ53LBfoOecsHWj7o99MEx+lku2E/Qc3fB5CwWgr5OcsF+gZ5ywaJPb2omF2xM46p9I0u5YFHo9c86KjPC5KVOFYIpGoeLN6BIHl34A01vEOd9H1sUFl/i65c4XOaT0LvMdhfORejxpBJ6PGdeWRB6vByEHs+ZVxaEHi+Hytn/A6JznHkk3xNAAAAAAElFTkSuQmCC;" vertex="1" parent="1">
          <mxGeometry x="-70" y="-541.5" width="189" height="343" as="geometry" />
        </mxCell>
        <mxCell id="iovOzbsHrw43gdFjkHrP-7" value="" style="endArrow=none;html=1;rounded=0;" edge="1" parent="1">
          <mxGeometry width="50" height="50" relative="1" as="geometry">
            <mxPoint x="60" y="-210" as="sourcePoint" />
            <mxPoint x="110" y="-260" as="targetPoint" />
          </mxGeometry>
        </mxCell>
        <mxCell id="iovOzbsHrw43gdFjkHrP-11" value="" style="shape=image;verticalLabelPosition=bottom;labelBackgroundColor=default;verticalAlign=top;aspect=fixed;imageAspect=0;image=data:image/png,iVBORw0KGgoAAAANSUhEUgAAAZYAAABPCAYAAADIvuPFAAAdXklEQVR4Xu1de5gVxZU/IxI/9kuymi/ZVRAERAQVXOMKuPChMIIjM4iAshtdZgMMQhwZ+EABFb4EBUICCgEEYWZADMpjREF88JBxUIO6UYijuD5RUNz4CmaJIrjubFf1re7q6qru6te9fe+c+494p7vqnF+dOqfOqbr1K9pQt6UJ8IMIIAKIACKACMSEQFGT8Tl8+DC0adMmpiZz10yh6JE7BPV6Rpz1cMKnEIHmgoDoEzCwNJeRj1FPDCwxgolNIQIFgAAGlgIYxFyrgIEl1yOA/SMC6UIAA0u6xiMvpcHAkpfDhkIjAokhkIrAcuLdZVA8+mtY2zAFzjiwHPpePBle+p/jptIt/wWmPVwL867uEhgEdHiBIQv1gg7O/BifdVJRqH7wJUQAEcgPBGINLGKAYMFCdCSik/F678S722D++J/DK1fVwyNTzguEqo7DC9QgPixFQAfnpAKLX7u6NolDiwggAvEhkFhg8VqVBgksRFU/56GCQ8fhxQdl821JB+ewYxgV1Vz1G1VufB8RyGcEAgWWr7ZPhOIRK8wyFSlRbWqAO7tWQ/GovdC163aorv6IYtG6z3xoqG0FoyuO0fLWkXsHwUVV2+g7VfOmwz88ORZm7PqEPrdnt1n+4kthrkynaSeUn7kBbjxUDX1a6JdRZA6POhpD3rILDsD0+56x9Jg3uCV46/eeoV8DDF2wBXq+uwim1x63SnSkzXEVv4T7d38OrXuPgdk1K2BUlxb5bBeBZFcFFh6XPn36wAEYYo23DK8/LbnKspMJ86ph8eTzjEXFNgPbkRRbVha987z6jM2ZY2LZ25h90KnFFmscNjRMh90lfSxb422S2Bwvw4bd1dDjfcMOFbYRCBB8GBFo5ggECiw8VmwluKqmFYzssQ7K19ZARRdjwnN7Jea/u8PMthtpUCATt2+PvTD7hYtg1lgz6JDMxrdc0fQezBkwGlovrQ/ksFWBpe8/PwSXP1BD921IMCmZ09aSheko6jfuxd1ww8krgLzL/m3qNxTWDrRla44rZGlgoWPWG45WNVCc9z9VBQPntjMCiwovt50s+NQMDJ8MqreCTEXf2XDpiutgzcg6h81RO+y1D8btMYM6CVLljePh5WmHJTZJZLBl45/VsY1m7jNQfUTAF4FAgcVcga43VoTPSTMTeeZhTuLl35wDw4dNhcrBg6B90QprsusFlpgzlkzwk/UdVD/q0C6ZYh82IMgYmdmqxmcDBUHfkUrxA8rMUIKzGq/V8PHNfT3tRAz67LAHCfCkXZYh8+PKf8/sU+dZ0TbwwEGKDRBFSx0C+oGFlKPazIJeK2vgprIuVpYhm7j8hLezkm2w8O7fwvQ1HWDnvp8GyljCZgFBHB7NrM68M7B+bKW84LNgZbrUWUIEgYLg7IcXKX2p7AQDS4RBwlcRgSwiECywGPsc/XZlSg1LK6F0QwfHXoo8YzEddr/63TDq3A9oSetHE4fBQ/O/1SqFsVNhRyd+CGQfJMgniMNjJbvg+pkZmV2usY9ON5dVrk4pjJSbSjcWZ0phMrzcdtJ6aTXNYmSlMGY/fBYSRymM398Lu6AJYqP4LCJQiAjoBxZD+z8ZwWT8HbW07MM2Y/kN0bOKnjYCx0iYsafUkZUcWXaz9d7QBfvhkcmHreeeO1pjbppm6XcsXifSeDll+qkOGZxxYLu1wYyb9/Y0IViz3yQNqLgMjr1Vlvmtkhwv3r6onRjHy5Wb98JeHs2cx6w3Nu/fNDfvMwdDVDbp2LyXHCLBUlghujvUKVsIBAos2RIqrn50jsHG1VdzbicNOGN20ZwtEHVPGwIYWNI2InkoDwaWPBw0FBkRSBABDCwJgttcmk5DYGkuWKOeiEA+IICBJR9GKeUyYmBJ+QCheIhAlhHAwJJlwAuxOwwshTiqqBMiEB4BV2A5cuQIUhOHxxPfRAQQAUSg2SNw6qmnOjCgDJJffvkliH/IR6QKRY+0Y484p32EUD5EIHsIyPwBBpbs4V8wPWFgKZihREUQgcgIYGCJDCE2QBDAwIJ2gAggAgyByIHlxLvvwAdNHaHzOem8Ih4dXnaMHXHODs7YCyKQDwhECix1lcUwovob6NnqFfjhiA2wo3pI6nT2c3hRfq2tepdcw//9ksUuLLpVbIbGBDGKokvUgdPB2UE3nelw2mMnAt3/pqOjzjNR9NVpX+eZMDLI2k2qrzDykXeoX1hWD0HHNmx/aX0vznGJsy2CV9ztiWMQOrA4BCs6EIorJRsGoePwVPTJfvJpDw69FXo4tF7xRSAn6te/+HeeP4a/Pj5oO2GeTxJnXh4dHbXHJYyimpMyKRlSH1hCEvJ5DUVSWCbdZ5xyx9lWqgMLWZVf+nB/awVeV3k2vFLyZqKOM4wfSNLh6Q42WcGt67iEXqiY5EdXniRkSBJnWWBhVAwyXZLGQad9nWfCjEPaA0tSeofBKtfvxIlFnG2lOrCQK9DvPHG35SzF/8/1oLL+wzo8MpAy6lz+e55qV3U9vn1VvM2UKbZLWCkJHa6DUpejyRW/J9TMMvloOxzhlXnb7z4pBXPc4xMFZxUVMK9jm959oKloiEXRwHMA8bTXhM54wdUNvvTCdKJSOm2D2nhtR3oT94PjfmVTGhv4mzgraJEZgZlxm/eofnfBP05eSVky2cfRPqFONuiqCfUxadOL/lpGl+1nc87qgS0Po2/2a5PJxthdKa/QSU/bVOCZf5fXG6yvFR72lMnMf//fRwFajQZ2a7mK/plhT55jNq2cB9xN1kHopHXmMbuNnM1DKpdAd+2HIbNPQrPOfAGzgVAU6IJNynxN0jYcxUeELoUVdGARaJDtieuks7Wpdm1jcq2uDef164YMAZiiXS9KXULjLFLtNq68wFF6FMtDzOkyymg/CuYoBhQkgLv2WAznQxz6jJ7rJDTRTqxVOqpor+VtOic9oSAmdNo3lbZ0UCgzmmITZ543ZhswWmTCBbOq5gKYe+Nc6HvfMy6mUCIvT3FstSnssfF6EXpv91j525zdhlMeUQabgltOy8zb1YiDk+k+IdknubNrtbVgkcsoOFMr6JISuZr+mWJvEAbywVhm7za1dFA6aRUFtvx7GcW6eg7J7ZPPpNX4O/2FaAMym5T5GtZ+UjYcxS9gYCErV44+l6WJLidoUA0v2zRCSU7mylgybJuU3MzgXw/Trhd9rowKmcnHBxYZVa9XGSmsMUXKWBT0xV40wzY2wWivHatJgc/FZjo1bULE3+EAjaDUstt++GuX+6UHMsTSBf//Jg+Mmt5bRaus4odhDkaURyWDyq6I/v85oRMtaV+8rQQ+6lQGT73RER69th5Gvj4O1g8xMkEFpXdcuMra97PnMPNkzb9Pc1GJ8/M7DgrrKDbA8z55jTvPYeWFnTjnVTYTdv6L74UOLIW8x0JBNzIFkWrYy1DEwCLbVwnarueE6bVPKZ/fRCyswMJKjHq013E5QGIfs1+YCi9V9gUZs6naVvzpr0MFFok8YQLLj3dOgvLX28MPt34Hv6rvDr/q3wjdh+yATzo9YWUuYgAWV+lRnF3sgUUxT/zmd7KBxd8GshJYfGw4SpAJHVicdd0COxVGS1Yy6lx3Km5S7TpTW1XZAxTthiuFueUTA4rXyjRuyuS4M5a1DU6sWRnHHTSD0V7LAstZ9FSju2TjVwojDpU4AJWTkpcx/47uXXjRXztXqP42J2ZDTB6eldWvzfLG8Wbmldkn+duUF+n+KVkgTXq1A90fUrcXvBQmO4nJFl5i6VenFCbPpFSU4fLv+fniF1hU9qkKsk78DZttu9HbBiQ2Kfoatw+O14ZzElhIp4XyOxax7EV+b/LytFOkVMPU+C+eTNNonmrXctSZ4DFj1yeucVG1a24arnNR6lLjlnxvGqm9qezYfBQ37yuOUSrgpGl2dQKL7HcsAyrGGnTFnaUyUqedwdpz816gvQ5asmHYWJvCjNJYwBmMcui0h2uBbopzJSHxgIZV9syUy55//kubJtlo05fem/Zrl2h5HGQ2J2YmTB4HZbikTZm+bPHDsjC+MqGTscueEfsRV+POAw+KeSDbvNegk1ZRhnvNH7ZgkJVDVeOi3LxXlA79KNCZTXr5Gh2sRV+hZcPGgRSy+LnxkPwQB/3eOITi9QmdsdjGgL+8jxLZvY7+iYYTtZ8k3/cLLFH7JpuXP3ukONEfmEaVEd+PhkA+2buoKdqnE5HIgSWaKSX/dtIOLw4NVBMqnyZaEjizX3ATjFlWxg5CxIE7tpEuBPLJ3q2KjXHDANqn244wsKRrbuWtNEkElrwFAwVHBJo5AhhYmrkBxKU+Bpa4kMR2EIH8RwADS/6PYSo0wMCSimFAIRCBVCAgDSxITZyKsUEhEAFEABHIWwSQmjhvhy49gmPGkp6xQEkQgVwjgKWwXI9AgfSPgaVABhLVQARiQAADSwwgYhNITYw2gAggAjYCGFjQGmJBADOWWGDERhCBgkAgcmAhP2qquGyv+fN/n5/55wIxP4fHX9FC5EvLD/HIVRqdZ7d13UOWCwx1+vTDmbVBaZsHvwyrGp91XTWv0w8+gwjwCOTLjyrTJmfS9NHhAwt/J1aG1CdvAwt3k/FX25dAyZzj1t1VuZrGZOD/NmFH3jhf3cBC9Nr57dnw+bmTYmPUzPakzXZ/ubJBWb9MdxWlQLZljWMs4mjDT+9s9OEng/X3BOijxb7DBxbWUhaE1AZM8qCfw3NdZZ9yfaJgkeS7fjjTvuliZB5ctu06qL2i0biWXU6QlqSc2HY8CKTFUcYhRxxt+KGajT78ZGB/z4YsGFgE7hU+YzEJmX5p0dXOrlkBF+0sA+uKcWOk6irPpsRIhGUvGGWqm/KWUNuSQZdRIusaTa6e0wksRLey37SBHRwDpkgHO3TBFuj57iKYXnuc3iSswkRGI0voC/jbbNlNrqSNoHTAPI7ktuCLqrYBac+iPma3SCuon/lx5G++ldmUQxeDkpZR9YpjKcqxePJ5Lnuxrrc3mEt16XTJLcgjGW+JByWxRdlr0CwPPHmLOS+4G4ZVlNsiBbGoV9Cx4bFV0YPL2pw3uKWEavo2+MHiCiC3kRNd6I3QxpiqKKuJDyD31cnGQvad1JlzdNZpoI9OotKEgYW7Bp8aAbkafVMDzCs7pKT/dU3Cg9Nhd0kfOFplvGc4McbHQngkeHpakRr2k0H1YDoHk/K2X/0q+PjmsdB6aT013mysLOIKRDqBheCyvv1jQCY4o7YmV9wTjMa9uBuIg+X/bV5Nr08jyzgy3LjaLJ5EX76c40e1S/lJMleIM0742S8Y3O9jj1GGSR06YXsc/XXhqXodYyORY8Gn4eyO2alMLi9KYkKBW9HFpAxwlMIod8hol93yVL9KvQQD9B8bf6pm0aadeqqppi1+HQdltVsvGR32gk9HwMqzNtK9ZmYnPFGgrVfK6KMNOoUkPhhYhIyFlcaI85jRY4qLvpRsOn9/SWeapcz83i1w6cP9De6Ww1LKVi8GSJ52l1/VyCiR82Gj2zewSHhqrBVihjOG5+ngiZa8aJi9uDP4CWOucvXogB0Mmxm5l39zDgwfNhUqBw+C9kUGf46Euli1/+Bwlpe4bUqkvJZOdA85/CiV/eQKQkksI8Di+WIs2SVU3ioHFmRsdMnrdNqUZROiDcrn42pjAdgXeJvo3OkDShbn+O4ck5KcLWbIoilt9NFxE/4xfTGwiDTEdAKPhh9NHAZr/uM1F/0vAY6RH8383mK6wU5LGSF426U81BJK5CRWFHG36RdYrDIYYSkkHw7nh+Z/Sw9LKAOLBw2zVmChrIizoNfKGiArZx1HK044klUuvPu3MH1NB9i576dWxsIvEPzaZUyhfpTXXmMjkyOOwKJLSawMLBpU3vKAGWxstAKL5nhrBRaP+ciPBStfyr6zAksK6aMxsIT0hDoOj6eWtTbzM2UGu6xiM/qdRWuk18OO76aZx4EV1LaqTEZdsiGlsL4g7TOhlDUkrK7X/HBmpS9Cd8s+5LupjW0tBklZYHFjZY6DjEZWjesd8EzxpgB0wNyhgoyT6ldvlNPOJatSc9FBgqHayclplXV0UU50iRytl1ZTe5GVYL2oetnzdmmW2LDBGthmOPhREkspezP2L9qt1smxTIkvTqpmVr4U29yzW6QkNkvQl664jo6nuLhh89o9H9102K2XTodn+s8xytm2nbCSNgssbEx4Ouuc00cn5FcwY1HtsQgbfeLvW8im/bqOW60js45N94CUqfwms4wyNR/IrTwDSyY74SeatYozqIc/7D6bBmh5YHFuyIs0zO5MZ7tFKc3jGpQOmHfw/LtDF+wHRn3stXqW0SqLhwtkutB+FScTRTlIkA5ud266Z8fiaOKHdA9MRUlsj1F3WDuwHGbsKaWHDXq8b+MeRS+2Ge9Hq+xJD24Yl2y8lYc7Bn9oLBhGUl1YNmpngW4KcLp5v7QSxt9RS0vlxCbIWMi+k2VFZIzTRB/tsDfJ4Y0wv1GMHljiWvIm1I7fSjpUt8bEH9VvI4zZtTKVPwoNpVPElxLBOaJMaXk9MG0tta9XEz+OHViuqIBmSa+oYuL70RHAwBIQQ/rL8ZLF1iol4OsF+zgGFufQppVWOa1yFezEaKaKYWBppgMft9oYWOJGFNtDBPIXAQws+Tt2qZIcA0uqhgOFQQRyigAGlpzCXzidY2ApnLFETRCBqAhIAwtSE0eFtfm9f9ppp4FhN4D/RRzQDnAeED/Q1NTkcIRFxhdNhbICLRQ90h6qCM7Hvzsp7WKifIgAIpAFBE5p8X+AnPdZALrQuygqKoI/f/7XQlcT9UMEEAENBE7/8d9jxqKBEz7igwBmLGgiiAAiwBDAjAVtIRYEMGOJBUZsBBEoCAQiZSz8j63YtQZpQ8Vvj8V1NX3mFtlXrqqPxHAY5sp73Xd0n8vmWOhmLF/XT4OON+yDRc89Bf/Wyb79NZuyYl+Fh8CJ96vhugnHYNljE6BNQvdf+aGWtAxJt++nX5C/h85Y6F1Cde1g68rJ9iWMmXuGggiQ9LNBAwu5A+yuE/dAI7uFN6SAMufvFxD8/s5E0X0upOihXtPNWLZOGwzP/m9H+EvHX0BtZZdQfYkv5dOEi0XhFDTCMF+0uBVMqsqtQydwpMEGkpYh6fbjNKtIGQsviOz22jgFDdtWkMBy5N5BULqx2LyxOOKqJ4zz131H97mwmIV5Ty9jOQCLhi2C3nVD4MFh++HWR3O3ugyjI77jRiAtzi4NciQtQ9Ltx2nfoTMWhxCZ8tHRPM5Y7rvtEFww/CsHLazj5liDjpXQkjIaWT/aV8ctrYzqtLqBo3J138JLaUoZrwtHX0pYKfmPKrB4UbwyWlkZ9a/vex50uUwunYyFTIyRS1rDhnu6wqKhlXD6/MdhWItVRgnjNejc+T34/QPPQ+msdfBP798Lcx78FqruXwq3X9mZrkanTpwL6/f8BU7vWQ7Tf7fI9d7pPe+CJ7ZOgJ8c2gVTq8bSZ6FlT6sNUoK7dswq2Hv0ROb7J+GWzqtp31d0MTh47n/e+v72K0+24DYnc0a+jR3hwdWt4O4bV0vb6XDSVkvG6scWw4WHaui74veXtCjy18noa+vBxUCeFT/7q4dB8W27qLwVMxfD7JsMjhkBI75/mX7882f06AVNRaXw6JJWUDmgEWa9bfR70jMwodujUP6q/e8Rm7vBgkmvW2NFxuLyFo9ndM7gf7DGe6w89Ao6RrwOPXv2goNQSm2AlcLEsatr6AabJv/aYUekHHvig6elNuOFKbVXQxe+TS8ZVLYha4fgSsZPtBPWPhknPkvkA47K/n3nkMe4hAk4sWQs7AroOFb6YZTwekcnYyFXcH/U7RI487U/wuVrj9JrwxkRlUgTrEtHS26OHTi3HeXQJvS1PK2rijeE8UKsqnHSl7pKP8ZV/zzfhkx/keJVTf3rzM7E94jcOrSyOhkLcYhb2m00gsXJQP59z4m5sHzQc3BNcR2U73iKBgv+32bNvAzqhptBiDqBTC2dlGAqr6iDEfcthevP2Z2pr5NnB8LnAx43na3hMKaUzofeW5507OeIbfRZbgYw4th+dk8bR52ePEtkIv38fGBnZ4DnZTEccvn2RbQfotuEN8bAtqqP4Zor3N/XL7QDq0onsS+r46Z6y+GTwEXan/X2JPjDtVfC1+OfpHo4+jdkd+tn4sSetx2TjfXVh26HjiPug6oHv8gE4GMgw9xZCnvfWjAE1kswYv8xcurw1tNT4V8XnukKLPbYnSyVzbQvmc0shT/fepUSU9MeSJs2jkoZJDZAbcOyK2c7bPxMO3G3rw4sXrpUec4hpb2FdMiRMxYSVCbUFVOSnKjlo5A6eL6mFVgynOuE77vz7LYWN4iMllSkkdVhDWQsg1KSJK7kRknGJPSluoHFj45VzXey3Je2129s/DMWowxmTJJ5z31mNUWyDH6S/MRY7bINWPZv6syKbzczBPYxVurz7h9qvPstDQL8s6p6v7li22SsVl+grYh9k1WurNQgfhekHXH/weEsfXRSb0CbOK45fjaUlU2C0SVXQpuiWsfGtWr/w+97guXe2y6E1/rvhW71Q+Hj9iVQ/057WF32LEz4r1F0ESAbH4Y5GYdr+nuPldfGehzY8pv3jpV8QNlk405058eUt9cg9qPbjpf9yDIW1X4XXRxFGBe/uS/7e6SMJc2ZClNWJ7DY5acDlLeanAgjZE48syRrTyxDxR5YJPSlWoFFg45VHlhMNjw/2l4/4/LLWOwyWGmmKeIgK+HU8Ve7AoQYLKzyDFcWEp2GOFkdDoys8i/4DVy8cAnNOnQcrLOcktmcLjLKQwHa8QwsrOSk0MnvZBPJxlYsXQhz1pvlmAWTvrEyLT/9VHIR3E9rmG4EkXbwgx3fGXtg58P8ofuha8ku+KLjJitzUQVzGlhoBuUs4WntDQQcIy8dZGMXVLaCCyxhx8Vv4iv+HjpjsSh8P6tONdlVoMBCVq2ZrGHci3KaYF06WhlDnO3Y9ShSZYGNjKN0j0WD4lUZWNpu9KXt9bMvv4yFlb74k2Dku7veMKiJ3znbkXnwjstVquDKT/xK2S6bScoam6fAH4Zuhd6bWanqFrhhcztHtqS14iSBxdh3kLVDgl+wUhgnp0QnZWDJOGCzvHcwU95ZrCzb8EdwnSUvu8TiKAHS4DkSvr5pFz21R07xzXy9Pa35m3tGZpCVZ4mkFBZBLwW28v0EZymM2NINmy+X7LGwE2ty2cKUwmxMzTb5EqRMBlk5lJTCvNohpVSxFGbreD7M677ZskNSgpu66MxM2Vhd1rNKxEHszW/iK/4eOmMhx3JHLDvgaDaNv2UJGliIQiQolDeOh5ennWLR3KroVnknz9PRDqi4zOByL1NwszvpdhmFrmPznqMvFfeuaPAz9oUILSr7dKvYDA9cuMOiS5VRvKpKYUeW3ez5nk6J0ztjMbMTtk9iZX+ZFP3j82aaG++SUhh1YtyGvHPz3unkxGf5zfv91bfArXPX0JKaziaoNGMxxkTZzoSHoUOLt10b2dfd7P6eBjFuw1imE+2f20/hN/F5GUpnvUQDgHNz1t5IlwcWE2tWHmGb9+bGN3OWb9K9MBJ0yrb2NZxcqaNUaI/V+cYexTiY98er6GGDCz+0D09E0UtnjHgdLh/Z21iglLj2xxz6SzDX37xXY8pwVMogsQFZGc0+oGL2xRY7sva/rB1uHeAYeX1XePutzOJMcXhFy954b87bnuQgBz3UITlYwpoInbGEDGRZf80vsGRdoALt0C9jKVC1qVqqUo9WCcgLGGNyT7rm9cSPZZMV7y+euIwGj6x8sqRXVnTx6SSyDaRBiRAyhM5YQvSVk1cwsGQHdr89luxIkZteEgssCapDSlxja5+lPbDMAm9CiB/w5hpYMGOJ35aaZYvNOWNplgOOSiMCHghgxoLmEQsCzTljiQVAbAQRKCAEMGMpoMHMpSqYseQSfewbEUgXAtKMBamJ0zVI+SIN0hIjLTHSEiMtsYyWmPgwSk2cL84M5UQEEAFEABFIPwIYWNI/RighIoAIIAJ5hcD/A0NaB7DRLLTeAAAAAElFTkSuQmCC;" vertex="1" parent="1">
          <mxGeometry x="-69.5" y="170.5" width="406" height="79" as="geometry" />
        </mxCell>
        <mxCell id="iovOzbsHrw43gdFjkHrP-13" value="" style="shape=image;verticalLabelPosition=bottom;labelBackgroundColor=default;verticalAlign=top;aspect=fixed;imageAspect=0;image=data:image/png,iVBORw0KGgoAAAANSUhEUgAAAUQAAACKCAYAAADSfzO2AAAgAElEQVR4Xu1de5QWxZW/iI+Yo9kkJ5sHKCoqChHOqgnqwhklA4TAAIskE2MOsyJDICKoQ45DImp0MWLAxEUdnRnwJIaVlyYiefCQyUz0kMdRiCRszBEQTTBrYg6uaHh4XLar+6v+qrur+lZ1V339fTU1/4gz9fzdW7++VdX9u30OHz58DLyf9Rs2kf+4H4eAQ8Ah0GsR6MMSYuPnJxUGxP79+6F///6F9W+6Y9vnZxq/SrTvbISjbAtGonk4QsR9QEsJWxxJCxhV2oizEW4YWzByhIjb2mgJWxzJKEgFN+5shBvAFowcIeK2NlrCFkcyClLBjTsb4QawBSOrCPHo7jaov/Yf8Mjyk+Ha5kOwsns+nHFcH9yaEiVo26TNT+x9COouboFfv3UkqHnCv0Lr4ytg8aTzJVqKFsniSOxYdM1PeeC9qEIWGxF4KmUn0o8uf8xq1qwYZe2v0uuxJs8QK0mIhHgp4R7dvRGWzL4Gnv9cF/xw/hAlG/McKW7sOMkTQmb7V+rQFVZGIOtiryQhqvqj7rHpwCjNr+Pj5a0RU+uROIwjxNiySTNAnmgAI0QaAWL9K69yV0EaAR2L3WQkzyM3jPCwv0uDUypoGiMVQtS9HmuCEN/ZdAPUN7YH21ayZX2iG+4c3FneMs/YAYMH74HOzm7oN2IGrOnphOEvRyOrSETJlJ+ydD1csvs+WLDiSLgVRgnp2BZoOm0NfOXVThjZV36bnnCkY3vgrjEjYOHW16HfyCXQvcLb/ntjO6fvevhezxvl35WOBMhTdVbz7cHfvHkuWt4O08/vq+rPrnwKAsKH1vTtgY+tHAhbdlwE/zXrmxE7fPn49jCSF9mJ58eLJ54Av73/c3DhvI2+b89d3AnLWob4W3CerbnkxvjjhU/fGF0r3vHOqcuuCH1sW09wDJTHj0SEKFynPnabvPX5Zx/50NdLfn3gwfHh/OctXgAf/enMxHhpVMyNLHWtx5Jf1FSEGN8qkzPEacNXwRWPLvfP9YhzNe2cDc+17o9sNdl6pPysX/UAceK6Tz0W/psHOt8AhMiuhX4PdCkREhYh0r7Yc9Fy/1Ng5dhyn7qf+o4lAwRENiJ+0rRyOVw34YSI7ZNHN3J2KttvGNx6+lr/4Uoe4nXDt8PSvy6AnnEzQv/CH9B8f+QeK/XZyx2/yhm8TIQYX28Eu+bzuyIPjWC9Jee/6JcXwh0zy/cCWeeP+XTNXqoET8vV3hP5mcQTJn6pIjpb5P2eJTuZf4dbIY1PJNkzRJ/4Pz2/fLlDkPAiikd2/kKJlDEn6e1/l3loRS41SnZoe6IRHlvyrn/JJ7ITeQDH/XhbDyHQEfDQ4XNh6pU3w5yJ4+HMPt6Dmr3IY2zNRqI8fySkKlor3EvCDH4kIpK0dUr7TgYd/PlHz0mDC9R4GybWY/VvmQn59L8DLu3wns4N54e3eZQIiyDErNGZzGITXar4C+3SHbD0b2rb9N5OcKrzl7GRH8XF7BCJiHh2Evgxeznw3Xu/DQu+f5a/JV94Gd/W6WeIXrR12p3CtRISImf8KjhxCRFZp2JCDN4OIZeV7PxVIkSd67E2CNE7rxu1NTgv++0Dc2DCmrOC8zbvDIISxaxtpb+Xtsw7O97vn/PRert+Ng9m3z0g8pqOTFQY3zLTW+aDN/wJyPmPyo/MYhPfMgdP0tfHd4VnTO72WQV9ubKYjc7wt5xJO5QfzCI7BVvDuB9v6wlIbFRXD0w/b19pO9sJr11fx7V1qj82dEd8Pr5WfPIVjD/3lrm0axKtUzEhJuf/4Ruu9KPt8sNCHCHqXo/VT4jeCIlhZ9+ywt8ujhw5EvbC5CghemeCJwzdBc8++6Z/YEsOjslThz2snnnNJ+EPLw7KRIi63vsSPVnvGjMNFm6b4EcGwZNxmEd+TbHfkcPwTd52aJq7VJHjtkylUEIsRTNxO0QvVfh24vkx8dUDbdeH/j1l6S7/dS6y0Hm2JtFQmj/y+yj70zMHl3tnlfn8SLRlTlunARk/7RF+3Nc582/ZH5YLxlu+IK3Ee8E1damSycurpJLMYXSVDLXXDsPZCDe9LRjV7KUKbqLaKGGLI9UG2tlG6WyE42YLRo4QcVsbLWGLIxkFqeDGnY1wA9iCkSNE3NZGS9jiSEZBKrhxZyPcALZg5AgRt7XRErY4klGQCm7c2Qg3gC0YSRHi2NF1OCIGS3zoQx+CAwcOgK3/NQida9oh4BBQQOCDH/wgt3TklpkQoqigQl+Zir755ptw5L3jMtWthUof/8g/wbFjfvoa91OlCBAfLMr/qxSSxLBswChtDlVFiCQy/J83/rdWfENpnCf1/T+32JQQq3xhGxa7adRswKhmCNFFiKbd2bWfhoANi920hW3AqGYIUSZCPLpvN+z/v4Fw1sDa2l67CNH0Us3fvg2LnUXh6O6XYN+xgTDoXH0ycbIYmeg7v4WDFrQRIvl0qPny7cpagDITkTlD3NA6EWY+egQuet8OOHXK92DNdybINF0VZbAzxKwfqZPJieoSjbpTxi1LzH9o85Ows3OyMVyyzqVcL/gmOP7NeNZ2ZScqv9iT62DdnHpobOsKNTsjWofsAE6+FsgnaURLU2Y9icpgdf3xdB6GS05+Hj7QuAY2l+wdfmJ36OJQf1EWH4xMaDuivlX6MVk2PyEyYqbAGFTnoMkg0yLEoy93whfmHoK2p+ZC/+NehvumzIGPL/kxXHWOvqefzvnE28IixDyLXbqur0oyFfq1/11ZnEIFG5EMG9YGOw8iHHrn0XsjqRrI9+nx32FtqvwdJUTBOiAPnkGLTve/oyffnDdf/jg3aCDza7inP2zuuCAUBxauJ9Gak1iLEX9gNBB9DVBP7WbRL73/9t0CzXWLAmEJBaFhDCNR3yp9qNgsS9n8hEh7zagFKDNoLEL8R1crNGyog67vBlHhhtZh8LvPbIdvfPZ4meYLL1NEhBifNHlyrxp4v3I+GFXwpAk61nCqGKhPBOrCvCpjxxZ72FZsHcSJmvz/6jOfSjx0CP5vz91cJiCZ9SQqk1KXEPRlj38m3AWsm3M2PD/uxVBpnirJ0N+rKDdhGIn6VulDxWZZytYMIaZFiLs6r4TvHP0WrJgTZLyL/38WYCpZJ2uEGAhvJlMHsL+nKkBU6Yc3L7JIJ6ytD9WAeO36qi2e5HuYxoBNycD5Pd32xcdH1V8iupVeeoSGC/bCgod/HtlWsmNNiy6ykqyKjbHFLiJENkIkElv3fLUefn3uTyMPHu74DREij6D9yLrlpPCh8uXjt3h+9QTM2NqhlAoDw0jYt2JSNhW7qZatGUJMu2WudULMFCHGoqLEGdu8bj91AtF7HPutASHZxR3Er+cR2t3dJYFZQbsifUmSkoFstZK6k2Trl0xtEBfwjad6IAQy7q7TE+lj46TBLi7T22WCGbbYRYRIfk/PEEm+mwlD9sAb5z2Y2O4nosZKE6IvLUZ8YZU/lRE3dykfnWAYOUJUpWdBeewMsdYJMUuEmNC/I9h5qQOoZD1PRDOR9a2kZsyeFam2m6ZMzpPMZyX1qZAvmz9bFO3Ffx99AJjdLuclRNatyVZ01cANZUL0bDB91NpkNBYjRFKvsW0vRC69JLfMbN1Hhz0cOWulJLV6cnc511Asv4rsMnaEyCIl80STRTZWzp0hlpWB2ZSkaZL1MoTIOzf0CTFFCj/ebiohciTz45cqovpxpeYEUdJI9v4vwCOzDiciyoyuJqyGLfa0CLH8tyCbIntDLoxuZdaTJCGykxKd4121bxKXKFVyjGMYuTNETV6JRYi98pa5dKOYTB1Qei2ltGWOnw9Sk9AshIlXbATtZtsyiyX1sdw3KCF6EyFzmLv2bfjnf2s3fhmELfa0M8TL1g2ADR0t8LZ3HHDB1HfCV2sg7TLIECGKzmIbX2kJb8NpOgHVdBgYRu6WWSMhYl+q2P4eYjzbGtk6Pdd6EionP6b5cjj0x4ZoBMW+nhGzkajd4FJllXep8mKYG5rm8uX9niYIEknq6yBEP5otpYs1/eoGtthlzhBp7nB6q0rSATy44V246aaJyZViiBDDM03Oe4jh+5JeoTGef9H3E2WXsQxG9r+HKItWjnJYhEibdl+q5AAZqSp7tmduBMW2LLPYix2hWu8mvhaRxchE32qzF5fWd8usa0ScdrAzRINdV6Rp7Ja5IoNwhJiKgOxirwZbFTUGGzCqGUKU+Za5KEfI2y92y5y3fVc/PwI2LPb8KKS3YANGNUOI2BmiaWObbL8WIkST86+Ftm1Y7KZxtgGjmiFEFyGadmfXfhoCNix20xa2ASMlQjQNKNa+rekD6Lyw+bu/OwQcAuYRqIkUAjbLt9vwZDXvpsX24GyE428DRkoRYlGkZAPQbjuGL6hqLmG7D+rA3gaMHCHq8IScbdjgSDkhqPrqzka4iWzAyBEibmfjJWxwJOMgFdxBNdqo2l5wlsWo2sbNupYWQmQ/+ZmydJf270rlgTaXxsDkesTml1Cg8VRtWp/oToh6mhwj23aa/iCRG5txVQf8+q0jfpUxzUuhs70FEko7gsFSX2p96ihcvHGcL71P/l20iChmIzodgk08lYZSCoG3vggdAz4PP/jLwaBJz9aP7PxFQrla9AmczFrEyiQUeSQdSwYj6z/d8xUsSh+vZ/0oHMMbBVpCOh3ro8i/Y/MTSV/FlWJU55BVWFVUz9cyXPQO3L68HUafF6RvIHk6ml4YK5enhf1+97inoem0Nb7c/vCXH/Klqdj5fmJv8Lu4CIQqBrLlMRsFQg0jYOHW14GV/ldPIfD+cN5EZJf3kybQgK1FbL3Sh2+/27YrBzYYRr1L3KFkORNinRjQodPIfBAvuwIqWA6bX1L6yst/4pFFU9eFcMfMQxUjBTYKSpCRBhl/dp48wstK4DpMidlI5IOqKQSoonga0cvKaMmsxUiZkg1f8bJWxkVsZTDEMJIdt0xfpspo2TKXnSGp96Zj4BjQvY0QybZ09t0DgoiJI79PtO2ads5O5M0gv79w3kZ/GzZ3cScsnVQWBSUJkKgyja/K8vgKX3GbOHF9Y3uwBU7ZqmNkRZW5Bw/eA50rB8KP170f/uPqznK7j38dXpt9dXmrSI3qJS7bsuMiuKN5Rzl9wcgl0L3Cm3tz5R4GWX1QNYUAeRAQBZ8Thu6CZ599E3hHUFLK06WINVXCK1aGjHWKl2/l2zERWdk1jGEkNW7ZzgyV00qIIu29vGPHgO4NhMjKfxEp+kXettTPlOYtniseXR6SF5Hfp9qFS//mpQWgW89XGqHjjLXhFjTIsEYjzEBDsaytuJGbdS0u7spGMXFCZNOc9isR2LThq6Bp5XK4riHIfROPOEVbYhotVvWWmU6Gs0tRSSFAcby98yY/+x15SH1s/muRM1QZYpFZi5EyfZ4OlbtPaUtmNZRZw9g6lRm3TD8my2gjRF+sc129ke0bBnRvIETeeZlYVn8+/GbuOX42tVtP/FqQZa2U3vKhw+fC1CtvhjkTx8OZfTyNw9jZXPzyg/Qxq3m1p4H4jA8zJbd4dIbJg/GUsdPaZbfMtU6I7AKWTiFQqkRJ5Et7J4YpBERpAKi6dXwt8tIPxMvoyFGDrdNeQ4gyT6M8rI4B7Qhxvn+Ly5LSR7bc6BPhrScui6S3JKKk373327Dg+2cFW1HvDFJ4OVPKuXJpRxDVpUWIIvVnbh0vGmnqfwektWslIXK2sdg5H+/vaWdxMmsxUUYgGKz6xgi2TnvFGaIoB0ceAozXxYB2hJgkxDP8LdDVsPm91iDjXomE/IRS5+3zM+J9+IYr4bEl73pRvWjLfAv8vP4JGLW13X/tg9wYT1hzlvD8Ln7LTMi3ua4Rtp59W7QOGYt3KZTWri2EyN7qyqQQoKkdNrRPChLbcxLGi25rabJ5/6gk5YaalzOHXXMYSYvWNrZOe8UtMw3HWZBUnywYeWJAO0LkEKIXMca3Z4TQZt+ywr/IIDZiM62JLlXYOjTHc9qFBvseIjnrXNg61CfdeBSKtcsjxJXdw7yzziZYuG1CGN1WzWs3EmeIUikEvGht3fVf8d+/pJdfy1qGJJYI730+mbUoU8YUIZJJWP8eIkZmOv4uTYg6OiugDSPzE6W3LGB+NnRpxEY5gam2Lz5kMaq2cbNm0HapktO2qdVlgTY5BpNt654fveHVHambxKDa29Zto2qfb5bx2YCRI8QsltdcxwZH0gxJ1TXnbISbxAaMHCHidjZewgZHMg5SwR04G+EGsAEjR4i4nY2XsMGRjINUcAfORrgBbMBIiRBxSFwJh4BDwCFQ2wi4FAIF28+GJ2vBEBrv3tkIh9gGjJQiRJdCAHeKLCVscKQs866lOs5GuLVswMgRIm5n4yVscCTjIBXcgbMRbgAbMHKEiNvZeAkbHMk4SAV3kNdGJl5GNtFmHpjzYpSnb111tRAiTyJd1wBJOzJAY7LoOsejuy1sfpjWoO7xZGmvFsaYZV60DmYjUk7kg2mfq/FSDrAalGOan4TNnZMTQ8c+gUtLA5A6ztIngyRFhWraBhmMyER4c85jG511cxOirER6nkFjQGOy6Hn6rkRdbH61QDa1MMY8tsRsJPLBOwd3llMd9Nnri2r0e6CrJLCRTDkAvsLQVOjX/ndY3PAq3PPVejgw4aUIOWEiCWlpAETjJDJxgxad7guB+KISlz/ua2eKRCJ4WGIYidIs5LGL7rq5CTEyIA0y8pmAjlXK+nG6bnBl28McqRbIphbGKGsPnT74gwvaAz3KUpRHIjeiUxlGXzFB2YjCtifQwftJldFSTAPAXSsZ1zHmx+FcqjjVh1ZCNCUFJg00QVxGOj3PyjBQF5tfmvjqrObbPfHWN4BV0a6fvh18qf7Obk/VZj1csvs+WLDiSJgWIBB9Lddb01NK5OTVa7hgLyx4+OdhugCycHlpBMjv2XaoEk4QYTwUaZ+oexP5sFr+wWyUDAxGAJHvJ2kb7jx6b5iwKUFAMXKg8l+UQHmYpQmtKqUBEKyVrOtYGqPeQIjESCRfhwlBAWmgPe+REcistoWJzY9LiLGnOCvESqT6Z/2qJ0wxQP8dqG4H2ocH53lnRF7OFLoAn2vdz01HEJfXKo8l2g6R/Rr7rQHelov8vrQt9EjQlsgRsxHrU6wPHngwKscvQ4g37zwd+r/0I/9BxztDFBJiy36lNAC8tZJnHUtj1BsI0XcIQ9GZLNAm0xiYJFFsfjxSoedENP+xPz4vCVTbE40l0dcgUqOpB3gy/KzKNk/in62LpRGIEPKn54d5mem4eLmFTWKqu23MRrS/NGl+UkaGEJteGA0bOrxc1v6ZYxBpXrzxfDSFwG0nzg+jUbYfmRQCoghX5WJFFiP/nLSUYlbljFK3TVWPRvocPnz4GKm0fsMmGDu6DmRezDZxficDdC1GhtQg2PyEhOglioqrI7Nl9RDiMLj1tDtT5f7jxDrt0h2JcVXCmU32gdmIkt2EtfWBQnnp/A+VzeecIU77/SzxFtvriNvmZ38Cpy67IsgLzfyIsvbFxxnHLss6lsEoCJwsJkRW8ryoRPVZzzxMLiCVtjFHEm+Z2Ux5banJ3MvkKN4ys4msyn16hHj62oTcf7A1jm69g0UWT0cQjKtSytYquKuUlbERT5ofuxFOkEOJLJq62mH0IJLqIYgQ2UgNbZMXiZYmK1orOtYxhlGIt82ESLbJMpLnKs4XL4sBLSOLnqd/03Wx+fG2x0O999Oeaz0pzKUcuVQpERBfhj926eGlCKUXIXxCnA8H2q4PUw/EL09oetQxzZfDoT82+MTHpiOg47L9UiXNB1PfGeSQg473EEURnnCcLSflXseYH/cOQjTNFl770kBXYCwmurB9fiYwq3SbeW1k4qsSE23mwTUvRnn61lVX62s3ugalGiGa6rdS7drgSJXCqqh+nI1w5G3AyBEibmfjJWxwJOMgFdyBsxFuABswcoSI29l4CRscyThIBXfgbIQbwAaMHCHidjZewgZHMg5SwR04G+EGsAEjJULEIXElHAIOAYdAbSPgUggUbD8bnqwFQ2i8e2cjHGIbMFKKEGW+VMFhUy9hA9Bps7Z9fuoWr74azka4TWzAyBEibmfjJWxwJOMgFdyBsxFuABswcoSI29l4CRscyThIBXeQ10bV9hK1CTjzYmRiTKptaiXENNly1YGx5WWANp3GIM/4sbrY/OKf7lXL53AyYqbY3Gvl75iNyDx0pRCQ9WWeFL9sKo3Uup5qkkshkPRMJbWbNNnyvE6POWMl0hjknUOeM8T4B/nvbLofxt11pHDBBLL43p67uebFX2VsK+ODl60bkJDtUk0hIOXLJZk9X9nm5GvhmYPLfal/qVQaKXVdCoH0z4TlCVFRtlzGAVUjxLB8Rvlz1THpLI8ttoRCSRWrhejEpZrawmwUHysVV1BNIRBpB/NlxA9SJbzS6mL9CgwjjVEV+6+WLbOSbHkGL5cG2mu7FqXAsPmlRYg8uf4LtzRA087ZiTweJFpRSR1wdPfGUE2HiM+2Pr7CV9mOpyCwIUUA5paYjZJEli2FANsO6ssoqSWlw8qBg1iTEO3XEWKKQKxnlOmj1sKMrR1wSltULh1zMtm/yzpjHvlz2bGYKIfNLyH/Rc94vKxsYRY3Rq6fqF+HIq3HPR2oE7+yAHrGjVRIHRDXNdwIzXWLYFTXI/Da9TODzHEWpQjA7IrZiK2fJ4UAbUfKl1MIERVMFtSV6tcRopgQ2bA8i8ou5ojk7yrOaCqNgcw4s5bB5hd/YtP/X/TLC2HhcL5c/yn3D/Kzu5H0kiTrG8mZwtM7FKUOiP+ezk2UuqDWUwRgtsNsxBLZ3HX14fluWkIov45klMemEAgTUKWQGjsGXgoB2X5dCoGyZ+BniOwBLeNRuhNNyToj65RspjPM2Yv+Oza/5BniHj8y/PANV8L3//13XLl+KjN/64nL/IuPLx/fro8QOakLisbQdP+YjUj/vKhMNYVAfB6q54BoZEg7yHP+6CJEuZwqRUWIOuTPTS+otPaxxSaKEJf+NdgGvz6+C5a1DIlmuOvztHeUcTVsfq81yPFBExZxsu3xlbLTtsx1/D4FeYSLxFZX36o2YiPqEF82UT1NyypIQ7qhfVIkyRQ3UovVVTr7y9OvI8TqJsRKpDHQtbB47UgttotbypnsmPfE2IuP+PuJ8fdCI5chEqkD2FQA0UuV8mVLtbwTadI+Msc22lIIqKTkiJGaUiqNeISo0q8jRDlCNOWUGGGY6rdS7RqZH3PZVW2pHiuFq85+8trIfami0xrm2tLy2o254QUt53VG0+PL277u+ZFzq1PGLQPdZ7l551nL9XXbqJaxEI3dBowcIVaBZ9rgSFUAo9EhOBvh8NqAkSNE3M7GS9jgSMZBKrgDZyPcADZg5AgRt7PxEjY4knGQCu7A2Qg3gA0YKREiDokr4RBwCDgEahsBl0KgYPvZ8GQtGELj3Tsb4RDbgJFShOhSCOBOkaWEDY6UZd61VMfZCLeWDRg5QsTtbLyEDY5kHKSCO3A2wg1gA0aOEHE7Gy9hgyMZB6ngDvLayMSL2SbazANzXozy9K2rbn5CJJ8A9Z8KP/jLwWBM3mdlupVPVIA2lcZAF+C8drD58T7JIu0MbX4y1DxMG59QPmziCSanxW270ukQqKT+vHu/A9uffC+zyjhmIzJZLSkEJNeT31fnYbjk5OfhA41rYHPnZB/vzOkHJPtNc5g8GFXcEQUd6iFEorf3aqcvY27iRwZo0q/JNAYm5kXblJ1fqmRTygAJLjLSXybnSNtWTYfAjp2I4bLzQMfLfK87/GXFurHGMRuJ5PtVUwjI2DhiT0YwovGVFkDTAAhSCMj0i+GdFSMViTFsDHn/npsQ44st74CyRFB+HcNpDEzMqyhC1OH8WfFQTYeQhxDz1I3PD1vs8fJZUwjIrCdUUoxZD1TIN2EvjlKO0sOG4wBZMfrh/CFZ3Ul7PS2EWPepx+CEobvg2WffNPL9rAzQptMYaEeeaVBmfgHpJ2Xf43L+a3qSkXp8ke362TyYffcAoCKw/n9n7IDBg/dAZ2e3Z8P1cMnu+2DBiiN+2oA7h3RB/fTtcE7f9fC9njeAKNzw+iE2qG9sD1R5BJnbRBEiV6g21ufY40v9M0o9bEoEksrA13306g0evMmby58DlL1ETFt2XAR3zDwELVO3wO2/vy6RXgGLUqRtFJJRthQCPj7IekJFZ70xoFJgPOmwnOs4K0YY9ibXnsqDDxeILQFPniy3d94EdX23+Dk4Pjb/NdA5SRToCqQxMGkUdH60c45k011jvIUX0zgMFZVL9UTndlQ01k85MHwVzPpVj08oZEHSfxPb0pQEs7a1+2kDqP5kvB8WI1GkIzrPjGwtPV1FWp8lysiWOaYtyJYnc2lauRyaz/eI3Bv/yu75QOty0ytIHPdI28gDIU8KATqPtPWEEaJUGgBBhJhnHWfF6Iwq0tHMHSGKtgo6w2AM6EqkMahGQhSdDRICYJ0sjZwo4V3bfChCHHESoX8n7aa1N6t5tRdFPuPD1a8UycXHUscobrPpEEgER8eOESIhuDpWI5J06EWlbU80wmNL3hXOhbT/m7nnRNIrpBE7tTvmg7Qc8UVtKQRK5ErU37+0dyI0tu31L9IeHfYwsIrwXGHm0lnhwRv+BCrpB9h5qKrOZ8XI5NpSbbv2CbFCaQxUgVUpL+tI8S1zVRGif0t5B1zasRyuawgy8/HOpJJniOV0CJTIWNIVRYg+IXJSGYjODdno8iNbbvTzzND0CiTqxX5kbFSpFAJSZ4gMmXKDk4JSCEinOMAMYujvuQmRle8nCstBZrYercnLZZwxz5PNELbSzUrPL8eWWUROshEiyeKXumUujW3U1tK2+oE5MGHNWUH6AmZLFCfE8P//2ggdZ6wFWj9+zslGrH4UWUqJEE+fkEagZSn/WHoFiS0bZiPRmZ3oRjgk4RQpf9F6ErVJ04N9cvgAAAagSURBVM9mST+gYx1nxUh6oVSgYG5CrIR8PwY0i5OpvC4mbSE9P+xShbNFJePWsmWesdq7VHkxuFQR9PNbjwRn37LCv1QZOXIk7IXJfEIUpEOgZ19k6zvzmk/CH14c5G19h8HKsU2wcNsEeOatL3o5ZEr/Prgchr+8KcwbTVMZsMm02Kgw/sqO6vuqmI0qnUKA+x6iShqAAlIIKKU4MLngUtrOT4gVGDjmjBUYgtEuqn1+Mq+CGAVId+MZ0ivktZGJr0pMtJkH6rwY5elbV11HiLqQzNFOtTuSTYSYNb1Ctdsoh/tpq2oDRo4QtblD9oZscKTss6+Nms5GuJ1swMgRIm5n4yVscCTjIBXcgbMRbgAbMHKEiNvZeAkbHMk4SAV34GyEG8AGjJQIEYfElXAIOAQcArWNgEshULD9bHiyFgyh8e6djXCIbcBIKUJ0KQRwp8hSwgZHyjLvWqrjbIRbywaMHCHidjZewgZHMg5SwR04G+EGsAEjR4i4nY2XsMGRjINUcAd5bWTiJWoTbeaBOS9GefrWVVcLIbI6eGM8NQ4qZ16JQfp9aJA/1zXWLO1gjsSVzPJ0ChdPOj/Snf/S8cTnIikcaN1/eDLzoapLSRCj7cjX/E/rfKGEkuQX/cbWppexs9gkXgezESmvI4VA+PkiOwBPz/EZ71NFVpFelEKAVsM+TST2bb58O1fpHqsrwjMPRjpspKON/IRYIqN+7X+HxQ2vwj1frYcDE16quB5ik+E0BjrAzupISVWbjbBk9jXw/Oe6gFUyIYtky7tnwxvn3Rj+3q87fRVAn8kRaS0infWnYYvKhMj8f5rEl0kcqrltbLFrSyEQA4HYr+Ge/pEgAxOMoA/Bfrdtj/hHEDwQdaERsHDr675wbpxoU+siBsqKkU7t1Lw+lJsQiSPQPA6mhB4xoGs9mskyv8ScfUdfDJdv/AKsGL0TvtkVqMzQcg2f/Cl89IYtvgpRoC5+CA79kYgnlMVTSZkD4zf5D7NaxzTvwsgSIbJ1sqYQiPdLHnJvz90cUY9Klf+STaXBk/+SrSsAF/PjeLVqFGLJTYgy6sl5nRMD2n+q5ZQ/zzvGPPVl5peQ7+IoHvuRRMcFHjFeCzSXBiW2h7/+Ktz637P9iIEssjfGTUoIqQrVqSXksfLMvxbqYjaKzIERZ71q36R0MdcUXULRQylNMVs6lQanX+m6OgiRwciqCJEY5+adp0P/l37kS0MVcYZIHSeP/HmRixJbbNyFUXqaU+Ijdlh95lN+dMcumKTy9DD45md2wjc6vDwqHJXs38wd7alJb4S4pH+R+FRD35iN4tHhhLX1/nHEgQfHZyZE1qa86JMel4T2btkP00ethRlbO+CUtmi/CQwT8l/e7kG2rgZCrFahWD0R4gujYUNHSyjaSWTLdbK+ijMSW1VjKJ62qLH58QmRSTh13N7yuVCpI6pZWNYBnOLpCi6Gf7npffCfT46GH7fuT+QbCYRXiXjqCxHCNHUUUg1EJzsGzEa0HW0pBGISZVRLMC2FwG0nzg/Jl10DbN3yxVo0YZmONBxZMZK1QSXK5SZEEmZP+/2s8PDWBBnJAs06pWo+iEqALeoDmx+PEONS+ZGDdyZ6ZAVTSbQyd+3bMOLmrkgEGBdPpVE/PWN0hAiA2Yg+iGlkSDFD5f4FW+a0dcRt87M/gVOXXRFcljA/U5buSl6skL+z/XIeqKSIsG6OCLFaI0M6pdyESIFt6mqH0YP2+ZFKpSNEHfLntUSIR3cHt8wUZ97iob9bPbk7EgnSPCRs4vZEAvjSmwNbz74toXhdJE5F9o0Roq4UAv4cY8ch8Xljt8xSu6SUs8usQU1WjIq0a7zv/ITotVj8e4h7YN31X/GyknX5mdfmLu6EZS3Vk/waM7iUI8Vl9+l7iILFkzw7FGfiSxCiN+DIk9zbRtfya00Y/jJ/x2ykLYWANxjywHtww7tw000ThUPD3kNESa0AQnQpBGQ8TaIM5owSTVR1EdvnV9XgSw4ur41MfFViok1JOLjF8mKUp29ddbVEiLoGI2rHBqDTMLJ9fqb9oxLtOxvhKNuAkSNE3M7GS9jgSMZBKrgDZyPcADZg5AgRt7PxEjY4knGQCu7A2Qg3gA0YOULE7Wy8hA2OZBykgjtwNsINYANGSoSIQ+JKOAQcAg6B2kUgTQS7z+HDh4+Rqa3fsAkaPz+pdmfpRu4QcAg4BHIi4AgxJ4CuukPAIWAPAo4Q7bGlm4lDwCGQEwFHiDkBdNUdAg4BexD4f1EYJTtof424AAAAAElFTkSuQmCC;" vertex="1" parent="1">
          <mxGeometry x="350" y="170.5" width="324" height="138" as="geometry" />
        </mxCell>
        <mxCell id="iovOzbsHrw43gdFjkHrP-15" value="&lt;div align=&quot;left&quot;&gt;&lt;font style=&quot;font-size: 15px;&quot;&gt;Table name: Playlists&lt;br&gt;&lt;/font&gt;&lt;/div&gt;&lt;div align=&quot;left&quot;&gt;&lt;font style=&quot;font-size: 15px;&quot;&gt;Primary key: playlistID&lt;br&gt;&lt;/font&gt;&lt;/div&gt;&lt;div align=&quot;left&quot;&gt;&lt;font style=&quot;font-size: 15px;&quot;&gt;Foreign key: userID&lt;br&gt;&lt;/font&gt;&lt;/div&gt;" style="text;html=1;align=left;verticalAlign=middle;resizable=0;points=[];autosize=1;strokeColor=none;fillColor=none;" vertex="1" parent="1">
          <mxGeometry x="-70" y="-780" width="170" height="70" as="geometry" />
        </mxCell>
        <mxCell id="iovOzbsHrw43gdFjkHrP-16" value="&lt;div align=&quot;left&quot;&gt;&lt;font style=&quot;font-size: 15px;&quot;&gt;Table name: SongSet&lt;br&gt;&lt;/font&gt;&lt;/div&gt;&lt;div align=&quot;left&quot;&gt;&lt;font style=&quot;font-size: 15px;&quot;&gt;Primary key: none&lt;br&gt;&lt;/font&gt;&lt;/div&gt;&lt;div align=&quot;left&quot;&gt;&lt;font style=&quot;font-size: 15px;&quot;&gt;Foreign key: playlistID, userID&lt;br&gt;&lt;/font&gt;&lt;/div&gt;" style="text;html=1;align=left;verticalAlign=middle;resizable=0;points=[];autosize=1;strokeColor=none;fillColor=none;" vertex="1" parent="1">
          <mxGeometry x="-70" y="-611.5" width="220" height="70" as="geometry" />
        </mxCell>
        <mxCell id="iovOzbsHrw43gdFjkHrP-17" value="&lt;div align=&quot;left&quot;&gt;&lt;font style=&quot;font-size: 15px;&quot;&gt;Table name: Songs&lt;br&gt;&lt;/font&gt;&lt;/div&gt;&lt;div align=&quot;left&quot;&gt;&lt;font style=&quot;font-size: 15px;&quot;&gt;Primary key: songID&lt;br&gt;&lt;/font&gt;&lt;/div&gt;&lt;div align=&quot;left&quot;&gt;&lt;font style=&quot;font-size: 15px;&quot;&gt;Foreign key: artistID, albumID&lt;br&gt;&lt;/font&gt;&lt;/div&gt;" style="text;html=1;align=left;verticalAlign=middle;resizable=0;points=[];autosize=1;strokeColor=none;fillColor=none;" vertex="1" parent="1">
          <mxGeometry x="-70" y="-198.5" width="210" height="70" as="geometry" />
        </mxCell>
        <mxCell id="iovOzbsHrw43gdFjkHrP-18" value="&lt;div align=&quot;left&quot;&gt;&lt;font style=&quot;font-size: 15px;&quot;&gt;Table name: Artists&lt;br&gt;&lt;/font&gt;&lt;/div&gt;&lt;div align=&quot;left&quot;&gt;&lt;font style=&quot;font-size: 15px;&quot;&gt;Primary key: artistID&lt;br&gt;&lt;/font&gt;&lt;/div&gt;&lt;div align=&quot;left&quot;&gt;&lt;font style=&quot;font-size: 15px;&quot;&gt;Foreign key: none&lt;br&gt;&lt;/font&gt;&lt;/div&gt;" style="text;html=1;align=left;verticalAlign=middle;resizable=0;points=[];autosize=1;strokeColor=none;fillColor=none;" vertex="1" parent="1">
          <mxGeometry x="-70" y="100.5" width="150" height="70" as="geometry" />
        </mxCell>
        <mxCell id="iovOzbsHrw43gdFjkHrP-19" value="&lt;div align=&quot;left&quot;&gt;&lt;font style=&quot;font-size: 15px;&quot;&gt;Table name: Albums&lt;br&gt;&lt;/font&gt;&lt;/div&gt;&lt;div align=&quot;left&quot;&gt;&lt;font style=&quot;font-size: 15px;&quot;&gt;Primary key: albumID&lt;br&gt;&lt;/font&gt;&lt;/div&gt;&lt;div align=&quot;left&quot;&gt;&lt;font style=&quot;font-size: 15px;&quot;&gt;Foreign key: artistID&lt;br&gt;&lt;/font&gt;&lt;/div&gt;" style="text;html=1;align=left;verticalAlign=middle;resizable=0;points=[];autosize=1;strokeColor=none;fillColor=none;" vertex="1" parent="1">
          <mxGeometry x="350" y="100.5" width="160" height="70" as="geometry" />
        </mxCell>
        <mxCell id="iovOzbsHrw43gdFjkHrP-20" value="" style="shape=image;verticalLabelPosition=bottom;labelBackgroundColor=default;verticalAlign=top;aspect=fixed;imageAspect=0;image=data:image/png,iVBORw0KGgoAAAANSUhEUgAAAtMAAABOCAYAAADik5qFAAAgAElEQVR4Xu19e5RWxZXvBiQzetWLWa7JCIKCyEOBNUhEGTqtgHARWlj46GUmoZdAS3dEEJtZNElUEBFRIOYCtvYDllHCG19Mrsij7Y4u1ERBOmLMUhufk8uEtTCDEYVruKfqfHVOnXOqTtV5fufrb3//0HxfPXb9au9dv9q165xOX3/99WnADyKACCACiAAigAggAogAIoAIBEag0+atzyOZDgwbVkAEEAFEABFABBABRAARQAQAOp02Pp9//jn06NGjYPEodPnDAl+s45bhhXg4kUE8wloW1guDAOpbGNSwTlIIoD6KkUVc4tU4hieS6XhxTbU1NAokj34Kh/qRqjkWfWeob0WvApkCAPURyXQaColkOg2UE+4DnQWSaSTTCRsZNq+NAPojbaiwYAoIoD4imU5BzQDJdBooJ9wHOgsk00imEzYybF4bAfRH2lBhwRQQQH1EMp2CmuWHTJ/8oA7GTP8K1rfMgwvaH4fSYTXwxn9/Y463679C7ba1sGzSgMDjL1ajSWvcZN4cc2XM0JQVh+CZeZcFnqskK6SJB9Pjizp3SnJIkdpOCw8iJG/bWcYkEqBY2ReBNPUtialwr09uGw+j42HqJDG2YmxTRx/jnp+425PNW5R+dHDx05cofedTD5Pmn6nmTPs5q5Mf7ITl1bfBW9c3ByZpUZUjnxMcpe+0xl0oxoN4OLUpDTyYbqxrOhOmV56gG2Uk01GsunDrpqFvSaKDZDpJdNNvW0cfVWub6nf3qFTlVb/rohSlHR1c0iTTqrGo7DIMZiSYy2+W4+CfmSHTUaJbUZVDdzKyVi6tcauUPSu4IB7pk2nWY6HoSFZ0tSPKkZb9JYWdatEOo+Nh6iQ1vmJrV0cfVfOj+j0omY5rDoLKxferg0uaZFqFSZSx8m0nYd+kfWXOtHsA/P+PPTYBhs7ZSVMzZi9rhFU1l9Fj3qrKhfBk61HoPnIGLGmqhx+dUQ9jpu2HgQM/hMb1fWD3gSvg/tvN6JV7Z0AHfXo3VFy4GWZ+0gglXfSPz0XKEbv8jS10XHMGt8OCJ14201K2t8CyG7rC3166C8aU15spK7nvFw9stMdu1J2y4nm46oNfwoK131jpLCLMpg3ootIt6/dUxu2aNxZ1pPgac1s2CPGwNoIFgAeT1ddWJfoq1XMjdQsj09pm22ELSv2RYRd9uzxvrQ2bW03/LtIn4k/fXn29Z31xf7diUguUDt8PK/5itNV5j71ucH8PP/y4Y00i/ZLv3GvSr6sWUdlKSkqgHSbDvlbx+sSvKefvnuvx+SLZiZwyP9lhFSEjA5ORRn7d5efcM6dG2uk5q66Fe/Yege4lyy29cPtOfs12Eza+rKV/zF/OOCBcP2W8QCZ30JNAGS4iG3NGb800XerrDdkpr8vxImbTItslUd+qyqnUxlg67+LLmh38iODbstZs1+ErWhZA6/gSaw5omdwJKOGQQnwl67CKTEfln9LItJyMDoF7e26hhJc4JurQ/osMeAZ0X9MMRLH4o9+pwzdCxfomuKNsgCOvUkymP4QHx0632tG1yWCkMpz8lQOaofT7G+Dap5poXjdZCMY/2NNzrO0ee9XrrXRTQeqyv00FnQLrx9ljDbP7SmPcbN4cOdNnTqcbo3uu2li0eIjyKQtBP+C008b09dWZvsHXI84NybSut+q45WT+iKwRVfvq6dpAFtuKtmpoa5zsAML2fyL/XA4NF8nXnPKPa+Ds8aug9oWTQIMYln8dCcfnGAEPw1+zft+s/Zz6YromTexqrDd2mUMvzoFxS3tZpMl9T4QIzEgVT2D8ZF/y2lAtP9lxtSJ/IxOSRur/xHMumlOHX+vU7uAnojXb/o6s72L9Y4SUcCMvn5DxAmd7vK7GQqa5QCbjdUR3WfCT9OFeK5jslk03nGVtap3csASOTGjOBV13QmXpEhhRfwv8aupWaoeEW1mYXH3A4yuIzfJ37XTsW8TTeM6ZBP8MQabNSX3860vhphvnw6wbJsDFnQyyyF8mJPZjRGjrtpfDhuWnLMKZ9M5AFtLnFcEkscHl9+bYOC9TVlVuMnZer1ARrF0Wt4NyKwMx0qlXzrMvYOYwW9f2W7ro6HyCkelw43ZiZxMqv8i/uWNEPPg5zxIeKluVOR2/eUUyrWOxHbtMMH9kRn/ddrGv1eun+vX9iBIgfs3pd2kX2DrrEnhr/HswbOd4+KxvGbz4bh949uZmmPpOFWyabESEc5fd3USAj2yJyshOTr1RR6ePE8lO1kZZH0FJUMfWnvhHF4c+uiOhIt/Jr9nuIAO7Q6IKPjiIqoAX+HGpoHrkt8lw8zqVDelwK9FlfREXdK8hIizZ2qRT1s1d1GQ6WmZECDJtEioSun905SOw4Fe9zSjliAPmkRuXnqEiXHHcliYmGNRowsgvJ9NGJOXCxXB1gzP6zk+2aBIpmTZ2YW7MgriUNMYdnEwjHk7MsoeHdTwusVWx0/EfB5LpIJbbMcsG80difbLJh72+vHK8ia4r/JpDvhu6Zy5UvHMxnLvjW1jUPAQWjW6DIZN3wZG+v+Ei1Gy94o6oBUEOv4XXkdpGCbq+7Hxqo8yXdkxtyP+o4tBH9zqu6ztVZM/vdxEv8ONSsZDp3HS5eZ0sMs1fNvfK5uSGfBtMK7JIpsNkB/D8U34BMRf2H7XXPJ4jxwrVD/WyHMmo5laY1p9EDEiqQiP8552lXCjf67hUzordpjx+16c0DznIR7zTMncZccnvS6aNtBfWz9trZsHEzb3N/B+fyDSLkNvHH3akW9c40hh3KDKNeHApTeaxdXb0wzzmdOudavNHCYTPOJBMB/FYHbNsoDSP3JGw2y72tZpE1bm+LICXRz/o+s5IKezfDBU9boIv571OnwC1ddYYmHuwN9D8zc7kSF5+zE5JOz22d5aZuGWMRs602BZEsn/3rhulp7O6fr5jakvyo9JJ8yApCuacq/000xfvmm3rLEk56rekp9GeOs1DTEjNet4+vO0xXQ2qR1Le0ON+r92N2e7hUCwQ6EndIjbtacPNDe00D5a1wEebyUbC3W7QNA+d0ybZ0zyi8E/fp3nwyeS333Y5/PG9fjRl41jdnVD987U0RYE9b5hPMndcQBQctaX1nOk45fdL8+DxYBca1GSaHHO+ZCXmM8x0UzxkEXnyfZzjDk6mnfrRUfFwH/f1GFkCvTtPFqY0ZU0/VLYqOw7zGweS6eTJQdZ7kF9A3GhcKnrPvICYu8hF/AoJPLB1hL8IJlpf+LLWM+5Z/msuAEPusYzYNtrKx3Zc5OIukLkXW2bLYyuvgRN/KpNekOcjVyJbIBcX3bLL0k3wEZLJa7PfBUTRnIvndIhBbivgnn0TgZyGDD8sXrOty7QnhgFL+/DTP1lk2uRG4j5IeyK5YyHThDdw9shsTMQlKJk28r27Dj4Er776hdSmRdzQcQGRe+eIfbFxk9dXdNpjbHqn0jlwP8TCuoDoY9/efOtk3nOS6qPxkjKfqI96SUqupNst1nHLcEU8nMggHklbILbPI6BzrI6IIQJpIYD+T4x0VnEJm2aRlj6peAeS6XzPRIT+s2oUEYYUqSrigWQ6kgJh5UgIIJmOBB9WjhkBXA+QTMesUsLmmJ4hmU4D7YT6QGeB5NFPtVA/EjI8bNZ3UUF4EIEsIID+r7DIdBZ0JowMSKbDoJaxOugskEwjmc6YURaxOOiPinjyMzh01Eck02moJZLpNFBOuA90FkimkUwnbGTYvDYC6I+0ocKCKSCA+ohkOgU1s18nfuzYsdOkw/POOw+Mvwv23zRAwz4QAUQAEUAEEAFEABFABBABgkC3bt0oEDRn+osvvoBvvu1csMj88/n/E4xhFKz8YQUn88YmMmwbHake4uGcTcSjI2l39seC+pb9OSomCVEfxbONuMRnBTyWFpkmken/e/Sv8fWSYkv/0OXvRUkq0SiQPPqZGepHik4IuwLUN1SCLCGA+ohkOml9FJJpjEwnDXv87aOzQDKNZDp+u8IWwyGA/igcblgrGQRQH5FMJ6NZdquhI9MnP/oAPv97H+jdJ1spIRiZTlplCqN9dJ64uSgMTe2YUqL9dcx5LdRRRdXHkx+8Dx+d7gP9Lu1SqBAI5dbFpaOOP87JDBWZ3lF7A9z+1DdwxT8egHOmPAmbfzExTpkiteWXMx3krTpBykYSOKbKKqPwjCf3+t23rm+GZ+Zd5pCi0MYuglCFB6lz6MU5MOPWBnjjv7+hTYytXAGN9TUQ9JWspG7WMfPDI4jsQcpGVe3Y+zJ0/tlVK+Hh+9ZZc05e/f7j+Y2wbNKAwOLK5ItL7ijtRKkbGAhBBR37I9W2zhoD5XXNUPvCSVh2Q9c4utZug+978cBG6/XMrAHrVeXGF+QV0Wff8Kb1emihzXM+lbw6nL3umReIjJP0xb/GXOY/RH2ysqxtor8/W9AMd5R1FfogXg9+N/u6SFhH0al8zjPBTEcfmYykPD/39PvGr+GqM9+Cc8s3w67GyXRKZeXZfG+ddQls7LPDs76y3wmeldfsh5mfNEJJl06Wmsi+5/UoSl2+HW1cBOPXNrQiKRg4Mn3ycCPcMvsE1L0wG3p0Pgy/nDIL/nn5f8CtfbOxY/OLTAdxBkHKZkFXVEbhHg8x9AdO/gLaco7BbahuZ5+FMQaRQYUHWajGL/kbLGyqh+v6m7r79ppZUHFwnBATVd9Z15eiJ9M5otPaux7WzC+zIkwnP9gJy6sfgtbeNdYiqZprfjEU2UlcuhClnSh1dcfvV05P34bAvT23eMhEHP0rx396N1RcuNnqW1WeEKfdpy6Bo/3nWuTIz6f6tSf6TfSdqE8gcve4H0Y1t8K0AV0ogS4dvh9W/KURhh9+3IekR8dahZF73uzy0fuOqhM668GIrb1gR4MRTOnUDg+OHQnH7/rUufGh30+H7muaofzjGhCVZxtCOi/DaqD7ffu9ZDrni+7ZewTgzOnwyvEmk0zLvucHH6WuAEQVLo4558ZPdA8/TgQCR6a/aq6Fsh2l0PyoGY3eUTsE/jB6P/zsf52RCWwxMi2eBt4ojj02ASZuGQP7WucJo7BBnWYmJt4lhK+ToA7JdIpxOYWsY6ZHbsT6kK+NVpyYEmKysc9qaZSI/P7l7F2B9AEj03LLVy3SpGac8xvUB7n79pWF+otlcM3OW2DtdW2wqNm0Ez+fGplMa/TpPkHzI+nrms6E6ZUnYH2L2sZlWIadr7D1gs5p2M2dqN7bq6+HxSdXwtOD6mHEttFWgIUEod4a/57nFIWVp6e8ufXlYyMF9mj/x6Q+h26MuA2dJYfsewepjlCXa0dlpyTopDP+OOeqUNsKHJk+1Hgj/OLkUlg7yzwWdf8/30BoR6Y77YFpox6A79U0wK0f3w0VbdUOg3n1kjth/3PfUudzQfvjUFW5EJ5sPQrdR86AJUY0k0UF2PfkuO10p8lSgpo0LiqjYA7tiZ9+AoNu+pu1GyZOIMzYkx5P1PajkkfiRMaU15vpAF3/FWq3t5hRimn7YeDAD6FxfR/YfeAK+HXVIqoXJSUl0A6ToWWtsWjNOABlg9phwRMvW3VJxILMgVuPfnRGvaNNK0oRFYAAmwtn9CE5uzh/99y8YErm6f7bTSLB2zKZs1OH+tOo3tl1E2DTxS/QOebnaHOreQQr1YfpX5kEhfMniy9rtiKEfmNW6QjTKfemV6RHbn/k0EeORKVFbJT2N20jnGr7vWlfuegciayq/Czxv2ROSFkWkS3pvMcmJbm/K5qHCuec1m8ph4ZeN8PTfz7u6Ft2GkcwK3u4B+xqGOTYhMt8qmqjoBOZlvXJopf/NaERZt0wwZHDK21XE2vii3Qx5fWdpEjJ/aV3nvmUhpjdnLQ51froqJiL/pLI9K0fTaKkmqVCOkgzq8SVJ36eYDHFIOCPDHnCUdcjXAGQafd4heNPaxIz3k/gyHTWybROZHpd0yBYOnMplBpkx31Uxhyz7YynwPpxdhTTdljke+MoaE4LzbdMa5GS6ZPKWbBjp88GXwkX/uH3cO3643R3zR8T6o89fHQjLXtQLuaMBBkRJpqbOH4VFa17yXLPhojNLYnuTB2+ESrWN8EdE7uaR4G5+Sf51+OW9qJkmpS59qkmqhc0neTBngbhEuuRo82y4Hm7unjq4JGmXaSJKZmDqe9UAc1jNY7Eq/aZm2E+Wk0WiU0XPQrnrLrWmlP3RpNhzctOon0i3PzSP9ici3XEq1MOMu06VZH5I14f+YhkWn5KT9+4aKnrCFk2LmtOOGJLjtyJ/fL5yHYk1umnWf03az93pEQw/8juT/DH71Q3jI0W8Zc8mZD5VEamPTnT3KZBlE/N+x5Zn2bbO+HRlY9Ym/V1bb+11zEjtcAaQ05hSbt0k882Vb5Y22kMMkzd+u72QV77iB4V1/VzYddHvh7Bnp3cklNcFZnmy5ubjC0wY28D3aDzdZFMR53FbNcvush06fc3QNfBh+CvA5505May45t7v/Pv9FiDOVu68F05z+mgjEhl3fZy2LD8lHVsltYiFdZZUMdvjL3q9Vaa79VvSU+LNAYdO3PeWVZtncXcfeTJz6EZwdxkRJ1fsUg2vyCR33nC5F5AWNsO0qihR0lhqsIjDbvIF6aMTPNHtoSQVJYuobmnww/XQfXSg0b+vB3NdB/jy2QnGye3PwmiR3w/7qN4WaTRQ8R8/JFOm0nonErfiO3wshF8g4yL2NfvZvelR+7Ddo6Hz/qWwYvv9oFnb262Nk7uPoJiTXHhc1Q5cko2OFRmiU/1Ww+Ukelczi7NqXX16U7tYJsmJo/sYqMO1sSvn726ny+mMj9hnpaI/WUcKSZRdVQVbGLtE2I8e+sYa11XRWb9yvN1yRpbXtcOgyufs3mHZmQ6Sl0VbipcVONXtV9MvweOTBd6zjSJTC15bT68MauUXjBgFwZYbtC931lFcyfp8XvO4U+9+gA9CnbfuBWRqSg5aVEUT2UUzqN884IFe5JH0LFHkTOtumFypm2MjAszFy6GqxuMCLQRLRYR5VBkWkOPksJHRW6St4v8YcqOXXc1nGXo/VQgJIU8uaXH+8vMFJ0fLIeFjXdDaRfT5t0bofUtctmJb3D7kyB6FJTgOU6SXE8ACLK5S9pPqfRNSKZzF+l0/SxJoal452I4d8e3Rh7zEFg0ug2GTN4FR/r+xro4JttM6G4yrHQLdlGbOxlga4SZ5uP0qVHINPEtNK1E0KfnjgdHyPwuIHrItABr4nuIrfhhKvQTuUuRMn9ZKGTaEWE2TiwZHrKcYU95wcaLtME/GcTh3zXJtHBNiFKXa1DFGzBnWn9FDhyZ7ihP86BRBd6hGMo5bdS/wa5va2nE1iZL5jHhkQnNsKrmMi6dw3l8aB/n5ycFQmUUbufOR6qn9Tcu4gUae37GqK/W6kchuZ/mYUYqy2HvJfcZ82/ePh+110wHIE/5mLi5t+Co1D6SZ47VcZzquKQk1qO0FhodcsNyipOxizxiSm37ASutS6pHLPcxl7pjpxScRXNy/fSB9yc2qdEYs0BHWOqQaHFnkVKVP7LrOmUgkczqh3pFuoimY4c6+ubQ/RwZ1RmXdceDkrib4Mt5r9OcVpK2M/dgbyun2txc6Kd5iFJzRDmi7DuSNuTewLBItYNo54gZw00VmXanFpB6rM/7vjPPeOLQdeZTJ4x2w0SmGfH3Ym3m/qsxzUXl2fqZy1OX2UdaPs5PL3XWR4ffyzXmDUKZaTCO/HJuU8vLoMwvjkKIo9QNQKZl44/r4r6OLymUMoEj02RgHeU50+7Fin8upPOo9iXjCGuq8AIi/7zPQriAyEek+JzQoGPPuoKrnCeRn3/ONLmYdE/tYCt151jdnVD987U0vcfvMheb/7GV18CJP5U5jq69qQJePfJbdOPEWIfcMN1Iyi7yiSnbPJI85Z+U9Zc+S9w8rs5dNuby58mGSqUPog2V7pgZKePTHZhOsQuO7Ob/8MNqf8TXJeRs6Jyd9DLs7bddDn98r1/2yDTdVOyU+lnRnLCNBTth5KNo3lQb55zKTpYcEXvJU39kKV2M9BKyT9IERXnRJErpJuGknjNH3PukIf73382eSZ8XTT7Eb/1qrfl4Tz+S7o3Ei7HWxZT4NkdusY+/LAQyzVIpeJ/LIsqi50z7lWdtdAQyTcYie852nOtTR2grcGTa2l13tDcg0uiVeXEgzG1jQsx++MyYUM8ojkORdMijPCIXbexxyB93G5HwiFuYDLQXGo8CtwseenZx69kN++w7EAbBfOyZFvrSC/zEh0CQzVt8vdot5fsOSxJjKrQ2szQHof1fDvSO+gZAXVw66vjjtKlQkek4BYi7Lb+necj6Yk9zkOY2SSryb0DiH5kX95h02tM1CndbYceuI1M+y4TFI58yJ9l3GDzC6kaW7CJJTLFtOQIyfQurU0GwTqOPIPIUY9mszUEY/1cM84a4xDfLoSPT8YkQb0t+z5mOt6dstYZG4ZwPxAPxyJaFFpc0aH/FNd9ZHy3qo3iGEJf4NBcj0/FhmdeW0CiQPPopIOpHXs2z6DpHfSu6Kc/0gFEfkUwnraAYmU4a4ZTaR2eBZBrJdErGht0oEUB/pIQIC6SIAOojkumk1c1Bpo8dO3aadXjeeeeB8X8o1H+TBg7bRwQQAUQAEUAEEAFEABFABAgC3bp1o0B0Om18Cn0HV+jyh1XJYh23DC/EAyP1YW0J60VHAO0vOobYQnwIoD5iZDo+bVJjiWQ6abQTbB+dBZJHP/VC/UjQ+LBpDwKob6gUWUIA9VFNALM0X4UoizBnmoWqC31AhSh/WJnRWSCZRjId1nqwXtwIoD+KG1FsLwoCqI9IpqPoj05dJNM6KBVAGXQWSKaRTBeAoRaJiOiPimSiC2SYUfWxUF5aElTOqLgUyPSnImZoMk3eblR5zX6Y+UljqDcGJjW6OJTD73WxSckdtV3VuMnrT98a/x4su8F80xt51enQ2u7wyvEmc/6MN91V9LgfRjW3wrQB9qtps/Aq2DDYqPCgr5ceVgNflW+231pJXx88Euq++XfY1zpP+sppmTxZeuOXW0YVHjoYZ90uEsXf0I1nV62Eh+9bZ709scfIEvjx/EZYNmmADnyOMjJZ4xpDlHai1GWDVOkbe7FP7QsnYfHARuGrt8lvzF/xMv1udt9AvozIRF8icsObsK7tt9S/8R/3q8fdrwFnrwAXvR6cyUjegDvj1gaqG+4XeAX1vUHkJa/1Jh8eT4ZZYKWMWCELMsiGoNJHHkPyN/8CN9nrtPmXU4le+EbmfWOfHfDMvMuEYsk4lIpbWf0ab2+t3d5i2UiY137r4EKEV8kUUXU6RPXgZDpHOO7ZewTgzOk2GcsIHLrKIRLXTRYKiUiqxk3I8+KTK03DpnM4HXZ+83eY3thikefS4fthyWtD4f7bTwAbu/vf9S3BSWY+VEOFB53raRuNa7eTgY2JEexPhyxBMs1NmswusmYfcZBAoa7mfF5r73pYM78M+l1qkjHyevLl1Q9Ba+8a2NU4OZCaFzWZJhv3CzdbgRideePLHHtsgpYvW/EXO9BDiMbuU5fA0f5zPeTGTabHTP/K8glsUv1kpER9ypew+0ADXNffDESUfn8DVL1uBiZ0fW9QeW37GwL39txC8Rx++HEQyR9IOQWFlXPkmtOo/ck2O2zzELR91XpA5nDE1l6wo6EGLurUToMqx+/6lG70LDzp99Oh+5pmKP+4Rlie3/yRzVf3+/Z7ybSMQ2lwKyJnvyU96fp0QftLRkBzm3feOTndG0c3bipcTK4wErLK94LqQZLlg5NpJk2CxhNlwErl0Gg86xE40RBU4+aN8KJOe2DaqIMwacpuePr/PUqNnTqTbaOtKG0hYsDjosKDja/s8v8D/3TXbrroEQymbDsBJ/7Uz7OYaqgNXUSTWMh0+laVUeGhqs+iE2R8WSPROoRHZ3yyMoSIbeyzWhphIr9/OXuXJ+Lp12cxk2n32HXshi9z/u65FqHQ8WUmIVgG1+y8BdZe1waLmp0BgUhkOheYIASLJy68Pw3qe4PIS8ilDn5R9F+nbhZk8JMzqP9jG6CnB9U71kX3KQPrU7Rh+rhPZ2Pz9pjUb9DTYG5Tacmvy6043aPknlu/ZXIGJtMZ53s6uplWmaIi0zRiYERfaQSg8x5bkXN/VzT7RGVnHICBAz+ERiOSO2XF83DVB7+EBWu/gdpta+kxL3GYY8rrzSNg7viFRK+qKqfCk61Hze9z5eOeYKWz4Ax06J651PDerP0cyh7uQaNqzBlsmtxCCaFfZJosZu6x0h38tP2+GMU95ijOkzn/J376Cdz7bjV1eIQUHR0/CTYsP0XJtGicJPIgm1M/glRVuZDqAH8ELNIZhmPZoHZY8MTLDl2Kgp+ffkSyi8oTUqxUOrH4smalzgSxK9peLqp4Qfvjht1Fx9xNtFibJSUlcOpQf+pLzq6bAJsufoFGsfg+N7eakVHpPLMIKN3cPgDfq2kAfgx+dibSDyIrL187TPacsPBleF0U1W1ZeyZMz81vUNIm1TeaTnYTPP3n49bJpk401WFbBl6MhPj5Mna8TupSP9cwyIos8sQ3Cpl22A5Jl8t9ZDYVp7zUR8/YBKfafm+uO8ZJ8e4DV9CTReK/RDbwozPqfddAFt126zE/Rx693PZT+M/qf/PMqcgWRPqnkomty34+WeUblesj30AuGksi07d+NMk+BTHKOEizRTTN6C0pT9YHMygzGh4Z8oSjrkfGiGSa1zHig6yTZ5mcApC0cdEl+KqJ6MC/FxWZZukN7Jjm7PGrgOXs+RFI4rSmDt9Ij+2o4eeO8Mjf/keCU2D9uJFwZEIzrKq5jJKwytIlVl5ynHqlNApuFzt0dxld/JeVGSkeRoR6UTOR0zy+YmPSTfPgI9hBMIpz7KK2VHh4I+9DYNHoNvhZg5NAeKOe8jkV6oMrcqWKSDJdu/apJmuTNv7BnqEi5Twuvni4IrVYqEwAABRySURBVBxB7IInW26sVHaj+t2dUmRjJ56DEfW35DZCtj7z+f+y9vwwJ8Rh6jtVQDaZZCNeta+eRiD5aDVZYDdd9Cics+paOD7HyGE0Ntfku4q2ajsfnyNZTl8zCJbOXAqlxsYpmqwmJqx/ksM7bmkvJ5mW6qK4biJk2sBBFJn25CO7UgidZNo+bvfzZYww0/kh/s4gOiIy5CbTDllychAyKZKRJ6+OFASefHRORl5RCh4h0OaaJLMB+3sSzXTbulnP1iOmxyTw4rfWOU6rWJqE2xZcmxmnPdvpEzL/I/cH6tRD1XrA+0oy5olbxlDbcaQUSUgqX948KdkCM/Y20E02T3DjJNP0ztOcnVZut1uvhaQfyXSitKO4yLQBJTv+GLZzPHzWtwxefLcPPHtzs7VgqqKytrMyd/7OSNgmI/r4Cp2w7iXLwb0YJTmTOs7CXvSrKHGe1v+jXKRmAbw8Zrsj98qPTJsRD/lYZRiFzXcLg5sKD6cjXwb/cvc/wv9+7jr4D27RUI3TPR4RUabRAyN3jkaO2Mc4oSAXoQj59sMxaDTQDycVHnHYRVCd4BfgOOzKsbG7cl4smDMyzR/38pvi4YfroHrpQVjYZJ5q8fn3Kt9ANp9dBx+Cvw540pNeZUcW/X2Kd1NoEosguli3vdw6jeHrutN5ghzlq05CeGKm0667jI4vMy9WczmfOQMhvpm/YJx4ZNqQIwl5/cg03SBKbODs1f3oBU6/NdCtx25b1bV1tz5FlUnkk3Uui6v8H/OdZJ5mbx1j2bGKpPqV5+sS/1pe1w6DK5/jLrzrpXkI6xKBg0bQkUyHoRLadYqOTJMjmIp3LoZzd3xrRGTNaOSQybvgSN/fWJcNVESSXyTNv40LIBcuhqsbmuCOsgHWQpZmbqmOs2A5wT3e72flDRKDr/tDT/jo9ESa7uFenL0OWz3WwiLTZvRh9pYvYeT8Zu7CiXqc2mSapRZxx8Ds6SkqndEhGjrWrtKPaHahxkqkE2oyrW6XnwMHmb76gJnOFRFzQqbJke2uhrOMjedUehFnbOUK6PH+Mpq2U/KD5bCw8W4o7eI8pbLnTT6GqYaMS16bD2/MKrWOiHXqiVIvdIivX0qCiNzqtCnTvTjItB/J1fFlRDYrxYNdEM1F5797143WBkLHX0ntUCNnmsiRhLxKMi2ygZwsqjVQTqbVNsnj6SHTkWQS961zKV7l/8gcOSLMuaekuO8S8bnInvKCjRtpV/SkD2o3EdM8mMwk+q2b2+22Vx1cfGXVWXyKpEzRkWmTxNwEX8573cqTnXuwN5D8RpYXFopMG7epR+01j4DfXjMLJm7ubUQ/MpTmwYzXGPvbE5+2dsf0JrqR7sIMXotMC8bKR+F1Fqek7UvlJDxHuznCa+cGmjfkg8ypPM2DT/VhlxTF7Uc5Wo8SmY5mF+qxhCbTAebAmeYRE+a5fGaWhiHFmEWJPEfbZ9H8Xrceue2F3eVQ6Z9cP7zH8+yo2tpw5GS0086YLsrqOueVpI5UP9RLK+UoDjLNP66TpCSwpxjQ8eT8uJ8v48kG/3gyQoIeODkO/sfK7TTljm/bTQTZfPttat1P8zj04mqY8cPN1tM8LDKi8L1B5WW6IN6Uutce7nI0yTmXrIElNCXFL81DbevW0zCEaR4iuzROU3xkUtlEHJFprY0m95QMR543v2HnHIQy1SIEmWZpNzvqJ2k9dSTy0zzYeDBnWklZipBMey8LsFuwaiLpTe1gEZ1jdXdC9c/X0qNlcjmJXf4hj6/JxAVESqbNsb91fbN9w1jxfGlR9EM01kIm06LoJol2BJ1TUUoHOdZ7s/YfLB3gL32RTZdbZ/JHpqPZRRidUEemg82B8wKibXdRMafzatyTIHnsPynrL33+OClnXbriUgl05plFufj5V2HqTucgRJClFI2tvMZ4Kk2ZSXy5C3vDD4tx4XWXr0tObUhuJrk8ffttl8Mf39N70k1QMi16hjPZ4JOIG73sfGKY8xnRGr6MvyMjunBILh/TZ0NzbctIszBdi4s6+j1n2iTTat8bVF73/RaWGmSfnIrnmk8PYBfm3E9ycusxv8nQ1UuRLfCXtx3P4+ZSFtwy8XMi88mqFEJVcIWlUvCMiQWYRM9v9ivP2kiCTJO523rnTCNlpJna5OxljfQ+Fvkk+ZxpaRRdSTGLp0B4Mp1RjFRGk1GxI4tVrOOWAYd4OJFBPKKZGCEBj658BJ7dsM/OxTYWs8eeaTFSu8wXIeHHRgD1LXltkOXFJ/F4zrjSzcKgEkffUfUx6JsFw4wzjjpB5YyKSxwyd5Q2kEx3kJlEo0Dy6KfKqB8dxNALZBiob8lOlDs9j/Qm+i4OKZJqV0e2uPpGfRSjjbjoaKFeGSTTejhlvhQaBZJpJNOZN9OiERD9UdFMdUEMFPURyXTSiopkOmmEU2ofnQWSaSTTKRkbdqNEAP2REiIskCICqI9IppNWNyTTSSOcUvvoLJBMI5lOydiwGyUC6I+UEGGBFBFAfUQynbS6Ocj0sWPHTifdIbaPCCACiAAigAggAogAIoAIdCQEunXrRofT6bTxKfQdXKHLH1axinXcMrwQD4zUh7UlrBcdAbS/6BhiC/EhgPqIken4tEmNJZLppNFOsH10Fkge/dQL9SNB48OmPQigvqFSZAkB1Ec1AczSfBWiLJgzXYizJpAZnQWSaSTTHcSYO8Aw0B91gEnsQENAfUQynbQ6I5lOGuGU2kdngWQayXRKxobdKBFAf6SECAukiEBUfQz6MpQUh+boKqicUXHJ1ziz2G8oMk1fW0leZ2l82Cs3szK4fCpHHG9qCouj7rjpQ/BveNP5at6wnXL18jl2kfg6ePCvACZtjK1cAY31NdLXRevClDUsiNw6eOiOT7dc3nAwXrn77KqV8PB966y3FfYYWQI/nt8IyyYN0BXfKuf3iuk43jYXBacodQMDEaCCSt/YGlL7wkkgr49O85NG32n0ERSzLMoUdAxhy6v0kbQr4zWy13SreBB55fjGPjvgmXnm677dH2K7ldfsh5mfNEJJl04OfyP6nhWw+jXewFq7vcWynyRfJy6TNex8dMR6gck0IWMjtvaCHQ0G6ejUDg+OHQnH7/o0dYcomwwdo0lqIvO5sOmOmxjc7lOXwNH+c6VGHgaffI49DJkmejx+yd9gYVM9XNe/C23i7TWzoOLgOHiz9nOIQpKyhkVYMh11HFHrh9FDMIg08Umtvethzfwy6HepObfkdeDLqx8yvq+BXY2TAzWNZDoQXLSwrz86vRsqLtzsIRHBe9GvYc/hELi355ZE+k63j3nBNv15wFx/dpIvqVofZbxm8cBGey2gfGc6dF/TDOUf1/jyIKILpcNqoPt9+73rbM5H3bP3CMCZ0+GV400mmZZ9z8FD5Oy3pCfsa50HF7S/ZJDxbVSXhx9+XCjntAGm/wvNlzRkSn72CqOHwGTaPay3V18Pi0+ujJWYRYFOZTRR2lbVzQt5yAmlNW5qGMvgmp23wNrr2mBRc0CH7ANAPscuEst/MSc4mE5R5WxUcy76PWtYKMlNmEFq1MkHDmSzuLHPaqk/Ir9/OXtXoHlHMq0x2a4ifvaXD71g4qXRdxp9BJ2RLMoUdAxRymutj1wHjNc8PageRmwbDW25DTiJNr81/j1P8NDBg+g6Ox0+7tPZCFo9JudGsg2O7sYn149F7jXkdGOojYuuTFEmqcDrRiPTuV1LIUWmyc5uTHm9efybOyahu89p+6FsUDsseOJl63ty/EicUFXlQniy9SiQo+LTnSbndoWPW993HzkDlhgRzh+dUW/tDi9od/6+udU8ypG1d1Fn+5gnjE7pGAXpu+zhHrCrYZBFJqnMKY09zLjC1omymPMLz/m750r1ZeDAD6GxscVIdXoervrgl7Bg7TdQu20tLL6smWLKfif6QeafRg/Y9+v7wO4DV8CvqxZR3XKXUeki0zndzYBKP0R62bL2TJheeQLWt8yDQsCBnzfe/kpKSuDUof6w4i+NcHbdBNh08QtAbJ7ZNcOe2KfUP0z/iuJwUac9MG3UA/C9mgZznnPf++GjmksiXzuYfoX3A/yc8PPNf8/q8nNF2sg3eZLqG1mUe9wET//5uBWVI3bBzwXzpaXD99M5K+m8x45kc38P3eO1TbfPdtrVRjjV9nvT9+cignH2ba4j6j5EawG/hviNu6J5KNx/u9wmheNvKYeGXjdbmBO/c8+IA77YinDR9TVhfXaS9VT+z9E3x2tu/WiSI1goDB66eBDxIVMMYvvIkCf8A40RyTSNfudshPg1PqipG+TUxgXJtFI9I5FpMmETt4zxLALKXhMsoK0chgxswVnXdCZMHb4Rrn2qieZU0hSAB3sai+cUWD/OSGOZY+QlGd/bCxT53o5s8u2Y5MNZj+BU0VYNbZTEitqLHiHWGTeRgxAJ4nCZsW2a3AKl39+Q/NgDHq1HVZEgZJrmkY9fRbvsXrIc3MTEHdVi+lL1eivdQBH82N+EXLn1ic0/SR8hZSvWN8EdE7s6dMFdRqyLXp2jBE9jI6aO1Hv1koyDkWk3yePHmRUcCKGd+k4VUJ02FpmqffU0As1Hq6kNXPQonLPqWsuuLft06ajbrtc1DYKlM5dCqbHhJu2qIta6foXk7o9b2svpR7mok7Mvp29hdQuGTHN+19yc2Efn3nHaR+rEPkl+tePYndN7p2+2dZm3K6azlk7H3DezF4fdsFTI3BriXAtE9myvLSSVwD1ulU3K1h5H6porXcGLrXh90/U1UX13EvV11kfWL89rjj2mJqkOHkQ321tgxt4GunH3PbWPQKZJn0Pn7LTurLnJM5LpJLTIv83QZJpM1uytY8xojcZintbQVEZjRnU2GdHAV6TkyUuOzTE6yPeV86zLTbQhI8pdt70cNiw/RckUT0JU7cWBoWrcjnys3GSIiKNKVkoQQow9jjEG0aEgZFpEltn8mRFOub6Q31l0kv2tM/98PbduyXRHhPu6tt9qpSwEwUOkA4WAAyEfhEzzR7MkV7qydAmMam41TgbqoHrpQSNP3o7uuaO4snGSzXbXwYfgrwOetI58vZHwaH6FtxEadTJyLmkUlX04H8PKquw1bbtjourqG8FbNE6i12ev7keP1IftHA+f9S2DF9/tA8/e3EznmFzqCuPLedtMqm93H/z9C9Uaoho32Sjy/ibsWsbSFUTY0s2oQPd0fU0QP51WWeX6mBPEzWtUJNWvPF+X4F1e1w6DK5+z/AdokmlhXSJv0Ai6AGxdXKSypjWBBdBPKDKdxYi0jhOnCtHjfri6wYgMltmRZh3y4yHTV+eOyVy3cD3RDxcJFxGlOBY8lVFYKR4s+paLfH33rhvpBkB3caZkOsTY4xhjEHtSR2K9OdNeYmJcVrpwsa++pEqmBbjrYqJLbsTEvjBwYMeruxrOMqL+U4Fc8CFPaOnx/jKaSlPyg+WwsPFuKO1ip2M5ybR8nETnl7w2H96YVWpduLbJtBofnQ2Th0yzNAeBj9G117TtTscPuzchVloDN07SDpnPincuhnN3fGvc7xgCi0a3wZDJu+BI39/AsrKWUL7cQ6YFGEftW5tMS+zZb9x2ZD6azqn6kM2Jrr/JWjnV+kjkFfEaejFRkovsKc9f1uMAkD7xTJNM+2EZNLfb3ZYOLrQOpnkoVTowmebzdPjHuSh7SqmAP4kyb5GP2mse/5KnN0zc3NtzrC87MnSnfxyZ0AyraswIiZNE66V52O1Fj+6rjEJ07EO+m9/WE078qZ+HTLuPCyOPPUNpHmyx5J/mYUYwy2HvJfdx+mDe/PfTFxmZJuSLpRm4j5rt4235cbSbLLH5cOucLllSby5sWdhc26SgQHDI5TOzNAypy2ERHc/R+1lK/0CjmTkCZt+gV+PjJO1e/+BJl8vJ6J1vWV2nDCT9o/qhXnk7OdTevOXSIIR6bcwnya/+ct7rNBJN0nXmHuxN7x+wPGq3be5rFfteluYgSsGIq2+WaqOf5jESgvat0jnV+C1/kctdF2NrPqUrrK9JaakP1I1qfZTxGkcqF5ceQ9P7JBsxJpgy1SIEmWZryY76SY6nqcmeOqLKc1fhYoGMZFqpb4HJNDty4FvO0rOmVcpBCHT1z9fS41Odyzv8UaDzAuJLxvH/VOvymO8FRCMPl10u4o9v+faipsqoyZI4EkuO8z4dssQhH3+MyI774hi7UhtjLKDSA9IV/5xpcgHontrBnjSdY3V3+uqLlEzn0gJeffULmodtPsqIe3xR7sTCunjlU8aeD6/OqZylTqSQlBHpJZ+HWyg40HHk7gD8pKy/NAWNv8TH5ofYoI5/YBGpIPiI0kmYbY2tvMbY0JZZFxzZY+OGHxbPNz9XfF2S30nyKEnK2e23XQ5/fM/eJMdoWlpNaZNpagc7Pb6U6rXgYhcfJRTNFbMzmV15TyHj61tIpiV2bupD8L55cieySdX4bTJtPkKSPTzAHYGVyqY1+9krpFoP/HiN6PnNOjwoCTJNbGLrnTPN93wYdj57WSMN6JFPks+Zxsi0WqcDk2l1k/ktoTKaKNIR8vXDZ8bYOU9RGsuRubjaS3LcjHjGJWtE2LSqJ42HlhAZKhQEj7j1PG0YCBF4dOUj8OyGfXbOsbHwPPZMi5Hele4LQtIee1b6C6JvacgsuywaZ98dpY84MclKW1H1MeibBfM17qByRsUlX+PMYr9IphWzwr/lKOjjyERNx90e6yMJo0hK1jQMIQk80pA7qT5UeBTyXCeFGbYbHgGVvoVvOXhN9rSeJE9QO0ofwdEtjBpZ0scsIYa4xDcbSKbjwzKvLaFROOFHPBCPvBpkkXeO9lfkCpCx4aM+iicEcYlPUZFMx4dlXltCo0Dy6KeAqB95Nc+i6xz1reimPNMDRn1EMp20giKZThrhlNpHZ4FkGsl0SsaG3SgRQH+khAgLpIgA6iOS6aTVzUGmjx07djrpDrF9RAARQAQQAUQAEUAEEAFEoKMg0K1bN2so/x8irxJvEJArCQAAAABJRU5ErkJggg==;" vertex="1" parent="1">
          <mxGeometry x="-69.5" y="-850" width="723" height="78" as="geometry" />
        </mxCell>
        <mxCell id="iovOzbsHrw43gdFjkHrP-21" value="&lt;div align=&quot;left&quot;&gt;&lt;font style=&quot;font-size: 15px;&quot;&gt;Table name: Users&lt;br&gt;&lt;/font&gt;&lt;/div&gt;&lt;div align=&quot;left&quot;&gt;&lt;font style=&quot;font-size: 15px;&quot;&gt;Primary key: userID&lt;br&gt;&lt;/font&gt;&lt;/div&gt;&lt;div align=&quot;left&quot;&gt;&lt;font style=&quot;font-size: 15px;&quot;&gt;Foreign key: subscriptionID&lt;br&gt;&lt;/font&gt;&lt;/div&gt;" style="text;html=1;align=left;verticalAlign=middle;resizable=0;points=[];autosize=1;strokeColor=none;fillColor=none;" vertex="1" parent="1">
          <mxGeometry x="-69.5" y="-920" width="200" height="70" as="geometry" />
        </mxCell>
        <mxCell id="iovOzbsHrw43gdFjkHrP-22" value="" style="shape=image;verticalLabelPosition=bottom;labelBackgroundColor=default;verticalAlign=top;aspect=fixed;imageAspect=0;image=data:image/png,iVBORw0KGgoAAAANSUhEUgAAAOQAAAA8CAYAAAB2OhbPAAAMMElEQVR4Xu1dfWwUxxV/B+UP2tBCVLUFBygQiIGARBNBqC0H4kL4MESkjdUvW7E5sBVsiEwFLk1b4eLUfESt0sTEPoNC4oQYQ5qWKoUCxk6AtBWYyKpVqmIHgmmVJordIprUaXWd2b3dm93bvZm5neXWvnf/gM9v3775zfvNe/N25znU19cXzcrKAvyoQeD69euAeCZiibi4+xeLTQgJqYaIhhZ0PGc8ERckpFqmCWpDx0NCCrqKKYYRUhYxCXkkJBJSwl00UaWEHLxcD/ml/4bm9s0weURI1pa0ybN2j+/dC3n3VMEf/vUf3Z5RX4Wth/dB3epsaftuFSGp/apslh5kChf4gYtfc5jC8DxdEmhC8ghun4RUF4NkegYvH4Pd5Y/CheVt8OrmWVJgizoeb5z2m9rlE3/m2yx7T6mBc4RFcZG5p9c5TCce7DgDTUjehKgCkUfsVO8j6niy+nmEpLjxdPJ+z8Pey+9FcZG5h9c5TCce0oR8+xfLYd7GY1r6VlkXgT2r2y2pqTGY/U2joXTtRZg5swcikXaYkLMWWjoikDsyBHYdT1fNIk5zDMrCRfB8xwdmalgzqw3ySzrjOnJ3Q/s+Xe+dI3+lyWp626uhY1kuPHHqPZhgyIQ/0tJlmnaWhX8clyU2zH9nr6a34O5eqH7utH6/I+1Qt2qUxXnptQmRNnoCiu9ogfXv6mMR/bg5HovFxrpq+MLr68xxnOvYDJ8/8TjkFzboaXPMzpqZkRguxwm2fZoJdNxUnmfzvJM2fSQFH/P0Iss97ZjtaGqAkuyRokOVknPDhfoRO2/Uhu98qiHpvBnyubm50AsPDUk85AjJOCN16rz5nbDjrXmwfZ3u/HSvyBKyaP5BWPRCk7bnoo5X3FUOXY2fNh3a0LHnHzqh3lvRBgY5w3k7YGHDI3CgqBWKm5sgnE3ISfaklOhF912EsnO6kxh6z2+9bpIn7pRroHlpDtzYSMjG2EBl8+592bTt5vFNsKx2oklgg4TOzt0DtUtKYcIzbVJO6uh4AniyE2THlsXFjr9l7x51ttmyeMYWsMmhXsv4/I4WzrhY7XXzqfi8Wee5+7cbYemTk5IQMrh4SBKSDiQH9n48Hb7+8BbYsGoFfDlEVi2meOM4yQxRm9t18JLpMIxySj20yGs4j20BML43iCQiyy4iRkRNTkiFEVIjCh/PsvArJMK/aUZCLUtgMgAn/K2EjNtMF0GePktRKFbM2t/1htQCJBomnQiZUJiK2VB/pBBe3v2J4+Lv5BP2+TSLi7aFMEh4yBEyJk3Ty589tQuqD0yBExe/4hoh3UDSSeCuI8iETDViJNsruWIROgnFWdvhvsYmeKwg25J9yBAybvNc+OEdNVx9NPPZ875cSi5KQLucKyEdbHDbL7stvG6EDDIecoSkKwtxkMVtHVBy15VYalMNp/OPwOJTegpJ04Xyn05yTS21lDVBRwT+VpHnmLIaKyIb9VSkrG5RhU1T7SmrUWW9sematt+U+bimrDYsbt/0cDwKUEKS/aqB7dvPbICVLVP0fbRghLTYXNDO1aenrDnMXPj7+Mo9ZU20wZ14iVuTlYfyHVPWoOMhR0giTZ2i/Af7tCLDmj3dWvmfLUyse3Q2/PnSDJ2QZA85ak43nDkzYBYdaHR00uFa1Imlw5Y0dO0rpKhzSS/UxIoZk4nz1i4pgifOrbREbUuBwqXw4VaVuxXPIROwqLpujuPNG01w294KE2+jWMESkh03ldf25UmenbL3ixc/5pJtRLGGna7juFlgo0Wz9BR14kU+wwatqOOwPTIioTHuJeH74aO/FJg1gaGEhzQhZaKCH7Kppox+2CKj04/yvsz9gyqLuLjPjNLnkH45ABLSL2TToxcJOcQJmR638X5XdDxnDBEXJKR3dqWgAR0PCSnrNkMiZZUdVFDkkZBISFlftBCyv78/Om7cOCD/Av6rBgfZCUH5zEZg7NixJgAhSsiTPdHMRkTh6B+593aIRhFPO6QDAwMw9nM3FCI9PFQN/HMMJBCSRsbW8x8OjxGmeRRfmxayAJxmcwJzeySk81Q4EhIjpDq/xQjp4ngYIR2BSTlCDvb1wIfRKfCliSPUee8w1OQ1Qg5e/itciU6FGdP9OQalCnJZOzFCKoyQZ3eugp+/9l+YMaoTxiw/ANXfX6ZqXoedHpEI2bohHwrr27SxG68l0v9r30c+hgWjL8BnC1vgd5GHNBk3eQO81g3T4ODUo67dDehLFuH7OxPOdrp9H9cbs5M5R5rMzmSTySPkYE8zOSr3Syj7/SHy/rS+GNHv8ktvklfj1sPk0Fnyfu6vYf3Vncz51DPmd/OvvMTIxs+vWnWIn2u9VY4pHSEHrzVC7U8G4fGGChgXegcOl1fA+G1HIWcSRkqnSeNFSHq2b2HrJDjaWEWcTH/Bm77Erh1GNt7fZM4qFl6tcpQ3Xno3jjBN+FFnIiFjx77ogW4YXaq9v6odtnb7nhkQtXPGjomxF7ePE0If1gitHfp2sJN3sFmIkPdsh2tzNsO5N8oINuSkUKYSMtke8uZbW6D29APw5DY9Kp7dORv+ntMF38gNdkp1q1Y4+31EIiR7DX1hv2bwKXjx7gZYePgB6DKj4jS4sOxSwmkTQ17r9RM7kHx16gj44K5n3fv/uHU/EO2KwBx81hYIATvtuIgQkkbDgtnt0L/iBagrIF0dMpWQyaqsPS1r4PX/7YLKb0/XMLb/nC7HD+p9eRHSYncsUtEI+c0rqzViGk21LMQzLmLkaYSkUWwNIceuuc9Zrk3AxiMhtSgcO7d4W/0Kvp0OkyNKyP1NnyFHzvQ0dXwvm4ZmUMqaLEIiIeWoLxMhKemM83z9z/IdnZWnx7FKFh+CtacawU4SlYQ0jtyxR/C4C4cHQlIi/rHyuyQ7eJ6k8S24h7RjiYSUI6RohKSOXtmab7apsEdEp5/d5FlZWuAprO+FOeHXzPQXBCOk47V0+LKR3CMhaQGnZHE3bGuMR8uMKurgHlKOdMmkRSKkJdLFmktrxR6XvVmCPFuUYYxhK7bW1NilP5DoHpIok93rprqH1Cuq9HB7CWzp+iI5gDwlVmW9Rgpg3yNNxw46VmGt6S1WWdV59BDXxIuQ7H6MbS9pOf/JVFnp6Xle7xvH/SaLo2CEtBebaPfAow2rharBKqqs8UcclFDkkUZWGZyaWmlWXVsrFsGFB0l3w1V3aqZ2H6uBb726gHQ4fNBWABrihOS9qYPPIcVXCV6ENNJCVqMR2ZyeQyaTN3T4QUiaprZWrNefl8Z689LWnfTj9rw0GUqiRR0jQlJdNEqubFlgEhLgXdj52Fb4zZ8+0W41OnspRBrWmY9I8shjE/PPQZDfzwlH4PzW90mrk8TvKYmD8JF+DmkYjW/qiE0fL0LytMi+AcPT59fvZe3kEdIvO4OuF99l9XmGeBHS59sHVj0S0nlqUo6QgZ3pgBnmNUIGbDjKzEFCShCSt4dUNisZoAgjpIvj4WkPR2AwQvq8KGCERELKuJgjIakCbN+hpn2HgaPMpKBsZiOQ0DGA/SKzofE+em2vxPRI8a5xeGhAXJJkDvaeOuhA6pweHU/M8dQhPrQ12f1Fa3KFhFQ3qUhIJKSMNyEhZdBKQdYrIWUfuKdgopJLZO1EXMQWKuEIyWv3oGSWh4ESEcfL2BYenL11EHDhtUuhLmrKqGptIrWHFGj3MAx4pGwIPEJmdAuPJIQMAi5uNrB/I9SX1iZShDRcVeKojjLvHoKKeIS0D0n2WNOQbuEhUX1OKy6xSeK/tE//VH0pORLWBp5amyAh/WO6FCFlD/4O9RYeooRMNy7UPWxYO3mMstYmSMhgEDLjWngIEjLtuBD3cDpEznqN0tYmSMj0EzIjW3gIEDIIuNht8L21CRIyvYTM2BYeHEIGARdeZPRaA7Bfn/pzSCzqCLGYt4fM6BYeSQgZBFzcbLCnqspbm2CEFOJWSkI8QmZ0C48khAwCLiLtUnxpbZISIVNyz8y7iEdIHiKyb8Dw9Pn1e1k7ERfFb+r4NbHDTa9XxxtueBjjQVyQkGnxbXQ8McdLy+QE8KapF3UCOJggmoSERELK+CUSUgatFGSRkEhIGbdxJKSMApRFBBABdQjYzyKHouSjTj1qQgQQAS8IICG9oIfXIgKKEUBCKgYU1SECXhD4P5eYnUycQhlqAAAAAElFTkSuQmCC;" vertex="1" parent="1">
          <mxGeometry x="-69.5" y="-980" width="228" height="60" as="geometry" />
        </mxCell>
        <mxCell id="iovOzbsHrw43gdFjkHrP-23" value="&lt;div align=&quot;left&quot;&gt;&lt;font style=&quot;font-size: 15px;&quot;&gt;Table name: Subscriptions&lt;br&gt;&lt;/font&gt;&lt;/div&gt;&lt;div align=&quot;left&quot;&gt;&lt;font style=&quot;font-size: 15px;&quot;&gt;Primary key: subscriptionID&lt;br&gt;&lt;/font&gt;&lt;/div&gt;&lt;div align=&quot;left&quot;&gt;&lt;font style=&quot;font-size: 15px;&quot;&gt;Foreign key: none&lt;br&gt;&lt;/font&gt;&lt;/div&gt;" style="text;html=1;align=left;verticalAlign=middle;resizable=0;points=[];autosize=1;strokeColor=none;fillColor=none;" vertex="1" parent="1">
          <mxGeometry x="-69.5" y="-1050" width="200" height="70" as="geometry" />
        </mxCell>
      </root>
    </mxGraphModel>
  </diagram>
</mxfile>
